<svg width="15" height="20" viewBox="0 0 15 20" fill="none" xmlns="http://www.w3.org/2000/svg">
<path d="M1 19V1H8.1375C9.35417 1 10.35 1.24583 11.125 1.7375C11.9083 2.22083 12.4875 2.84167 12.8625 3.6C13.2458 4.35833 13.4375 5.14167 13.4375 5.95C13.4375 6.94167 13.2 7.78333 12.725 8.475C12.2583 9.16667 11.6208 9.63333 10.8125 9.875V9.25C11.9458 9.50833 12.8042 10.0458 13.3875 10.8625C13.9792 11.6792 14.275 12.6083 14.275 13.65C14.275 14.7167 14.0708 15.65 13.6625 16.45C13.2542 17.25 12.6458 17.875 11.8375 18.325C11.0375 18.775 10.0458 19 8.8625 19H1ZM4.05 16.1625H8.4875C9.0125 16.1625 9.48333 16.0583 9.9 15.85C10.3167 15.6333 10.6417 15.3333 10.875 14.95C11.1167 14.5583 11.2375 14.0958 11.2375 13.5625C11.2375 13.0792 11.1333 12.6458 10.925 12.2625C10.7167 11.8792 10.4125 11.575 10.0125 11.35C9.6125 11.1167 9.13333 11 8.575 11H4.05V16.1625ZM4.05 8.1875H8.1C8.53333 8.1875 8.92083 8.10417 9.2625 7.9375C9.60417 7.77083 9.875 7.525 10.075 7.2C10.275 6.875 10.375 6.475 10.375 6C10.375 5.375 10.175 4.85417 9.775 4.4375C9.375 4.02083 8.81667 3.8125 8.1 3.8125H4.05V8.1875Z" fill="#0F1E35" stroke="#0F1E35"/>
</svg>
