<svg width="1478" height="1906" viewBox="0 0 1478 1906" fill="none" xmlns="http://www.w3.org/2000/svg">
<path fill-rule="evenodd" clip-rule="evenodd" d="M1478 0H0V1906H1478V0ZM404.7 853L405.6 855.8L464.8 1047.8L466.4 1053H461H423.2H420.3L419.4 1050.2L407.8 1013H340.6L329.2 1050.2L328.3 1053H325.3H287.6H282.2L283.8 1047.8L343.1 855.8L344 853H347H401.7H404.7ZM353.6 971.2H394.8L374.1 904.6L353.6 971.2ZM199.3 1011.2V857V853H195.3H159H155V857V1049V1053H159H278.1H282.1V1049V1015.2V1011.2H278.1H199.3ZM136.4 939.9C134.6 942.7 132.4 945.2 130 947.3C135.5 950.4 140 954.6 143.6 959.7C150.2 968.9 153.5 979.4 153.5 990.9C153.5 1002.9 151.1 1013.7 146.6 1022.9C142.1 1032.3 135 1039.8 125.6 1045.2C116.3 1050.4 104.6 1053 90.8 1053H5H1V1049V857V853H5H82.4C97 853 109 856 118.1 861.8C127.2 867.6 133.9 875.1 138.2 884C142.4 892.8 144.5 901.8 144.5 910.8C144.5 922.4 141.8 932.2 136.4 939.9ZM108.6 989.6C108.6 985.7 107.8 982.3 106.2 979.3C104.7 976.4 102.4 974.2 99.1 972.5C96 970.7 91.9 969.8 87 969.8H46.1V1010.9H87C91.3 1010.9 95.1 1010 98.3 1008.3C101.6 1006.5 104 1004.1 105.8 1001C107.7 997.9 108.6 994 108.6 989.6ZM91.3 926.2C93.8 925.1 95.7 923.5 97.2 921.2C98.7 918.8 99.4 915.6 99.5 911.7C99.5 906.8 98 902.9 95 899.6C92 896.4 87.8 894.9 81.9 894.9H46.1V928H81.9C85.4 928 88.6 927.4 91.3 926.2ZM524.2 900.9C531.5 896.2 540.7 893.8 551.8 893.8C563.8 893.8 573.7 896.7 581.2 902.3C588.7 907.9 594.1 916 597.3 926.3L598.4 930L602.1 929L637.7 919.3L641.8 918.2L640.5 914.2C634.3 895.5 623.4 880.5 608.1 869.6C593 858.6 574 853 551.7 853C532.4 853 515.4 857.2 501.2 865.6C487.1 874 476 885.9 468.4 900.9C460.9 915.8 457 933.4 457 953C457 972.7 460.8 990.2 468.3 1005.1C476 1020.2 487 1032 501.1 1040.4C515.3 1048.8 532.3 1053 551.6 1053C573.8 1053 592.8 1047.4 608 1036.5C623.3 1025.6 634.2 1010.5 640.4 991.9L641.7 987.9L637.6 986.8L602 977.1L598.3 976.1L597.1 979.8C593.9 990 588.5 998.1 581 1003.8C573.5 1009.5 563.6 1012.3 551.6 1012.3C540.6 1012.3 531.3 1009.9 524 1005.1C516.8 1000.4 511.4 993.6 507.7 984.9C503.9 976 502 965.2 502 953C502 940.8 503.9 930.1 507.7 921.1C511.5 912.5 517 905.7 524.2 900.9ZM809.1 859.6L730.4 951.6L814.2 1046.4L820.1 1053H811.2H764.9H763.1L761.9 1051.7L691.7 972.1V1049V1053H687.7H651.2H647.2V1049V857V853H651.2H687.7H691.7V857V934.5L758.4 854.5L759.6 853H761.4H806.1H814.8L809.1 859.6ZM1042.4 853H1039.3L1038.5 856L1006.2 973.9L973.8 856L973 853H969.9L931.6 853.3H928.5L927.7 856.2L895.4 973.9L863 856L862.2 853H859.2H820.8H815.5L817 858.2L873.6 1050.2L874.4 1053H877.4H913.4H916.4L917.2 1050.1L950.8 933.8L984.4 1050.1L985.2 1053H988.2H1024.1H1027.1L1028 1050.2L1084.6 858.2L1086.1 853H1080.7H1042.4ZM1091.2 853H1095.2H1132.5H1136.5V857V1049V1053H1132.5H1095.2H1091.2V1049V857V853ZM1265.8 853H1261.8V857V971.6L1185.4 854.8L1184.2 853H1182H1145.1H1141.1V857V1049V1053H1145.1H1182H1186V1049V934.4L1262.5 1051.2L1263.6 1053H1265.8H1302.7H1306.7V1049V857V853H1302.7H1265.8ZM1442.6 871.2C1453.8 880.4 1462.5 892.4 1468.3 906.6C1474.1 920.7 1477 936.3 1477 953.2C1477 969.9 1474.1 985.5 1468.3 999.6C1462.5 1013.8 1453.8 1025.7 1442.6 1035C1431.2 1044.3 1417.3 1050 1401.1 1052C1396.7 1052.6 1391.9 1052.9 1387.1 1053C1382.4 1053.1 1379.2 1053.1 1377.7 1053.1H1315.5H1311.5V1049.1V857.1V853.1H1315.5H1377.7C1379.2 853.1 1382.4 853.1 1387.1 853.2C1391.9 853.3 1396.6 853.7 1401.1 854.2C1417.3 856.1 1431.3 861.9 1442.6 871.2ZM1426.8 978.5C1429.3 970.3 1430.5 961.7 1430.5 953C1430.5 943.9 1429.2 935.1 1426.6 926.8C1424.2 918.8 1420.5 912 1415.6 906.5C1410.8 901.1 1404.9 897.8 1397.6 896.4C1394.6 895.8 1391.1 895.4 1387.3 895.3C1383.2 895.2 1380 895.2 1377.6 895.2H1356.2V1010.8H1377.6C1379.9 1010.8 1383.2 1010.8 1387.2 1010.7C1391.1 1010.6 1394.6 1010.2 1397.7 1009.6C1405.2 1008.1 1411.2 1004.7 1415.9 999.2C1420.8 993.5 1424.5 986.6 1426.8 978.5Z" fill="white"/>
</svg>
