<svg width="18" height="20" viewBox="0 0 18 20" fill="none" xmlns="http://www.w3.org/2000/svg">
<path d="M9.268 19C7.54 19 6.06 18.624 4.828 17.872C3.596 17.112 2.648 16.056 1.984 14.704C1.328 13.352 1 11.784 1 10C1 8.216 1.328 6.648 1.984 5.296C2.648 3.944 3.596 2.892 4.828 2.14C6.06 1.38 7.54 1 9.268 1C11.26 1 12.92 1.5 14.248 2.5C15.576 3.492 16.508 4.832 17.044 6.52L14.128 7.324C13.792 6.196 13.22 5.316 12.412 4.684C11.604 4.044 10.556 3.724 9.268 3.724C8.108 3.724 7.14 3.984 6.364 4.504C5.596 5.024 5.016 5.756 4.624 6.7C4.24 7.636 4.044 8.736 4.036 10C4.036 11.264 4.228 12.368 4.612 13.312C5.004 14.248 5.588 14.976 6.364 15.496C7.14 16.016 8.108 16.276 9.268 16.276C10.556 16.276 11.604 15.956 12.412 15.316C13.22 14.676 13.792 13.796 14.128 12.676L17.044 13.48C16.508 15.168 15.576 16.512 14.248 17.512C12.92 18.504 11.26 19 9.268 19Z" fill="#0F1E35" stroke="#0F1E35"/>
</svg>
