<svg width="17" height="20" viewBox="0 0 17 20" fill="none" xmlns="http://www.w3.org/2000/svg">
<path d="M1 19V1H6.7375C6.8875 1 7.18333 1.00417 7.625 1.0125C8.075 1.02083 8.50833 1.05 8.925 1.1C10.35 1.28333 11.5542 1.79167 12.5375 2.625C13.5292 3.45 14.2792 4.50417 14.7875 5.7875C15.2958 7.07083 15.55 8.475 15.55 10C15.55 11.525 15.2958 12.9292 14.7875 14.2125C14.2792 15.4958 13.5292 16.5542 12.5375 17.3875C11.5542 18.2125 10.35 18.7167 8.925 18.9C8.51667 18.95 8.0875 18.9792 7.6375 18.9875C7.1875 18.9958 6.8875 19 6.7375 19H1ZM4.0625 16.1625H6.7375C6.9875 16.1625 7.30417 16.1542 7.6875 16.1375C8.07917 16.1208 8.425 16.0833 8.725 16.025C9.575 15.8667 10.2667 15.4875 10.8 14.8875C11.3333 14.2875 11.725 13.5583 11.975 12.7C12.2333 11.8417 12.3625 10.9417 12.3625 10C12.3625 9.025 12.2333 8.10833 11.975 7.25C11.7167 6.39167 11.3167 5.67083 10.775 5.0875C10.2417 4.50417 9.55833 4.13333 8.725 3.975C8.425 3.90833 8.07917 3.87083 7.6875 3.8625C7.30417 3.84583 6.9875 3.8375 6.7375 3.8375H4.0625V16.1625Z" fill="#0F1E35" stroke="#0F1E35"/>
</svg>
