<svg width="78" height="78" viewBox="0 0 78 78" fill="none" xmlns="http://www.w3.org/2000/svg">
<path d="M68.3993 41.5868L46.4618 63.5243C45.7749 64.2112 44.8433 64.597 43.872 64.597C42.9006 64.597 41.969 64.2112 41.2821 63.5243C40.5952 62.8374 40.2094 61.9058 40.2094 60.9344C40.2094 59.9631 40.5952 59.0315 41.2821 58.3446L56.9766 42.6562H12.1875C11.2178 42.6562 10.2878 42.271 9.60214 41.5853C8.91646 40.8997 8.53125 39.9697 8.53125 39C8.53125 38.0303 8.91646 37.1003 9.60214 36.4146C10.2878 35.7289 11.2178 35.3437 12.1875 35.3437H56.9766L41.2882 19.6462C40.6013 18.9594 40.2155 18.0278 40.2155 17.0564C40.2155 16.085 40.6013 15.1534 41.2882 14.4665C41.9751 13.7797 42.9067 13.3938 43.878 13.3938C44.8494 13.3938 45.781 13.7797 46.4679 14.4665L68.4054 36.404C68.7463 36.7442 69.0167 37.1483 69.201 37.5932C69.3852 38.0382 69.4798 38.5151 69.4793 38.9967C69.4787 39.4783 69.383 39.955 69.1977 40.3995C69.0123 40.844 68.741 41.2475 68.3993 41.5868Z" fill="#1F53F1"/>
</svg>
