<svg width="80" height="102" viewBox="0 0 80 102" fill="none" xmlns="http://www.w3.org/2000/svg">
<g clip-path="url(#clip0_1267_1532)">
<path d="M79.8576 89.5979C76.4177 88.9167 73.2052 88.264 69.9927 87.6396C68.2016 87.2707 66.3821 86.9301 64.5911 86.5328C63.8519 86.3625 63.5392 86.5611 63.3118 87.299C61.7197 92.1237 60.0709 96.9201 58.3651 102.029C54.4987 95.3591 50.746 88.8884 46.9365 82.304C55.4937 80.7999 62.8853 77.1955 69.2819 71.3491C72.8072 77.3942 76.2755 83.4109 79.8576 89.5979Z" fill="#1F53F1"/>
<path d="M22.0893 101.234C20.2699 95.8412 18.5357 90.7327 16.8015 85.5958C11.3999 86.6742 6.08364 87.7527 0.568359 88.8595C4.0083 82.928 7.33453 77.1667 10.7176 71.3203C17.0858 77.1383 24.4774 80.7711 33.063 82.2752C29.4241 88.5757 25.8136 94.7911 22.0893 101.234Z" fill="#1F53F1"/>
<path d="M28.5431 57.4994C29.2254 54.86 29.8509 52.3908 30.4763 49.9501C30.8743 48.4459 31.2155 46.9418 31.6704 45.4376C31.8978 44.6997 31.7556 44.2456 31.1302 43.7348C28.1167 41.3224 25.1601 38.8533 22.175 36.3842C22.0044 36.2423 21.8338 36.072 21.4927 35.7882C22.971 35.6747 24.2503 35.5895 25.5296 35.5044C28.3157 35.3341 31.1302 35.1638 33.9163 35.0503C34.7123 35.0219 35.0819 34.7381 35.3662 34.0002C36.7023 30.481 38.1238 26.9618 39.5168 23.4426C39.6306 23.1588 39.7727 22.9034 39.9717 22.4209C40.3129 23.2156 40.5403 23.8115 40.7962 24.4359C42.047 27.6146 43.3548 30.7932 44.5488 34.0002C44.8615 34.8232 45.288 35.0219 46.084 35.0787C50.121 35.2773 54.1579 35.5328 58.1664 35.7598C58.3086 35.9017 58.4223 36.0436 58.5645 36.1855C58.3086 36.2706 57.9674 36.2706 57.7684 36.4409C54.7549 38.91 51.7414 41.4075 48.7279 43.8483C48.1878 44.3024 48.0456 44.6713 48.2446 45.3525C49.2397 49.0419 50.1778 52.7314 51.116 56.4209C51.2013 56.7331 51.2581 57.0169 51.3719 57.5277C49.5808 56.3925 47.9319 55.3708 46.3114 54.3207C44.4635 53.1571 42.5872 51.9935 40.7677 50.7732C40.1707 50.3758 39.7727 50.3758 39.1757 50.7732C36.02 52.8166 32.8644 54.8032 29.6803 56.8182C29.396 57.0169 29.0549 57.1872 28.5431 57.4994Z" fill="#FF725E"/>
<circle cx="40" cy="40" r="38" stroke="#0F1E35" stroke-width="4"/>
</g>
<defs>
<clipPath id="clip0_1267_1532">
<rect width="80" height="102" fill="white"/>
</clipPath>
</defs>
</svg>
