<svg width="56" height="56" viewBox="0 0 56 56" fill="none" xmlns="http://www.w3.org/2000/svg">
<path d="M48.0697 7.96214C47.775 7.66681 47.4249 7.43252 47.0396 7.27266C46.6542 7.11279 46.241 7.03051 45.8238 7.03051C45.4066 7.03051 44.9935 7.11279 44.6081 7.27266C44.2227 7.43252 43.8726 7.66681 43.5779 7.96214L28 23.5082L12.4221 7.93028C12.1271 7.63534 11.777 7.40139 11.3916 7.24177C11.0063 7.08215 10.5933 7 10.1762 7C9.75908 7 9.34606 7.08215 8.96071 7.24177C8.57536 7.40139 8.22522 7.63534 7.93028 7.93028C7.63534 8.22522 7.40139 8.57536 7.24177 8.96071C7.08215 9.34606 7 9.75908 7 10.1762C7 10.5933 7.08215 11.0063 7.24177 11.3916C7.40139 11.777 7.63534 12.1271 7.93028 12.4221L23.5082 28L7.93028 43.5779C7.63534 43.8729 7.40139 44.223 7.24177 44.6084C7.08215 44.9937 7 45.4067 7 45.8238C7 46.2409 7.08215 46.6539 7.24177 47.0393C7.40139 47.4246 7.63534 47.7748 7.93028 48.0697C8.22522 48.3647 8.57536 48.5986 8.96071 48.7582C9.34606 48.9178 9.75908 49 10.1762 49C10.5933 49 11.0063 48.9178 11.3916 48.7582C11.777 48.5986 12.1271 48.3647 12.4221 48.0697L28 32.4918L43.5779 48.0697C43.8729 48.3647 44.223 48.5986 44.6084 48.7582C44.9937 48.9178 45.4067 49 45.8238 49C46.2409 49 46.6539 48.9178 47.0393 48.7582C47.4246 48.5986 47.7748 48.3647 48.0697 48.0697C48.3647 47.7748 48.5986 47.4246 48.7582 47.0393C48.9178 46.6539 49 46.2409 49 45.8238C49 45.4067 48.9178 44.9937 48.7582 44.6084C48.5986 44.223 48.3647 43.8729 48.0697 43.5779L32.4918 28L48.0697 12.4221C49.2803 11.2115 49.2803 9.17269 48.0697 7.96214Z" fill="#1F53F1"/>
</svg>
