<svg width="12" height="12" viewBox="0 0 12 12" fill="none" xmlns="http://www.w3.org/2000/svg">
<path d="M1.68806 1.69626C1.80851 1.57574 1.97185 1.50804 2.14217 1.50804C2.31248 1.50804 2.47582 1.57574 2.59627 1.69626L5.99598 5.0989L9.39569 1.69626C9.45495 1.63486 9.52582 1.58588 9.60418 1.55219C9.68255 1.5185 9.76683 1.50077 9.85211 1.50002C9.9374 1.49928 10.022 1.51555 10.1009 1.54787C10.1799 1.58019 10.2516 1.62793 10.3119 1.68829C10.3722 1.74865 10.4199 1.82042 10.4522 1.89943C10.4845 1.97843 10.5007 2.06309 10.5 2.14844C10.4992 2.2338 10.4815 2.31816 10.4479 2.39659C10.4142 2.47502 10.3653 2.54595 10.3039 2.60526L6.9042 6.0079L10.3039 9.41054C10.4209 9.53179 10.4857 9.69417 10.4842 9.86273C10.4827 10.0313 10.4152 10.1925 10.2961 10.3117C10.177 10.4309 10.0159 10.4985 9.84749 10.5C9.67908 10.5014 9.51683 10.4366 9.39569 10.3195L5.99598 6.9169L2.59627 10.3195C2.47513 10.4366 2.31289 10.5014 2.14448 10.5C1.97607 10.4985 1.81497 10.4309 1.69588 10.3117C1.57679 10.1925 1.50924 10.0313 1.50778 9.86273C1.50632 9.69417 1.57106 9.53179 1.68806 9.41054L5.08777 6.0079L1.68806 2.60526C1.56764 2.4847 1.5 2.32122 1.5 2.15076C1.5 1.98029 1.56764 1.81681 1.68806 1.69626Z" fill="#1F53F1"/>
</svg>
