<svg width="118" height="102" viewBox="0 0 118 102" fill="none" xmlns="http://www.w3.org/2000/svg">
<path d="M75.4814 52.3873C75.4044 53.5946 74.6852 54.3909 74.0432 55.2128C73.1699 56.3174 73.7093 57.7302 75.0962 57.9614C75.3787 58.0128 75.6612 58.0128 75.9437 58.0384C77.8443 58.2439 79 59.5026 79 61.4292C79 62.4823 79 63.5355 79 64.5887C79 66.5152 77.8443 67.7739 75.9437 67.9794C75.6869 68.0051 75.4301 68.0051 75.1732 68.0565C74.3 68.1849 73.5038 69.0069 73.4781 69.8803C73.4781 70.0601 73.6065 70.2912 73.735 70.4711C73.9918 70.8307 74.3 71.1646 74.5568 71.5242C75.7126 73.0912 75.6355 74.6324 74.3 76.0195C73.5552 76.8158 72.7847 77.5864 71.9885 78.3314C70.6273 79.6157 69.0606 79.6928 67.571 78.5625C67.3656 78.4084 67.1601 78.2543 66.9546 78.1002C65.6705 77.0984 64.3093 77.6378 64.0524 79.2304C63.9754 79.7698 63.9497 80.3093 63.7956 80.823C63.4104 82.1074 62.2546 82.955 60.9191 82.9807C59.7377 83.0064 58.5563 83.0064 57.3748 82.9807C55.5513 82.9807 54.2929 81.8762 54.036 80.0524C53.9847 79.6928 53.959 79.3588 53.9076 78.9992C53.6765 77.6635 52.2639 77.124 51.2109 77.9717C50.9284 78.1772 50.6459 78.4084 50.3633 78.6139C48.9251 79.6671 47.3841 79.59 46.0743 78.3827C45.2267 77.5864 44.4049 76.7644 43.6344 75.9424C42.3759 74.6067 42.3245 73.0655 43.4032 71.6013C43.5573 71.3958 43.7114 71.1903 43.8655 70.9848C44.5333 70.1114 44.5846 69.3151 43.9426 68.4418C43.8398 68.2876 43.583 68.2106 43.3775 68.1592C42.7098 68.0308 42.042 67.9794 41.3999 67.8253C39.8846 67.44 39.0114 66.3097 39.0114 64.7685C38.9857 63.6383 39.0114 62.5337 39.0114 61.4035C39.0114 59.4769 40.1672 58.2183 42.0677 58.0128C42.3245 57.9871 42.5814 57.9871 42.8382 57.9357C43.7114 57.8073 44.5076 56.9596 44.5333 56.1119C44.5333 55.9321 44.4049 55.7009 44.2765 55.5211C44.0196 55.1615 43.7114 54.8275 43.4546 54.4679C42.2732 52.901 42.3759 51.3598 43.7114 49.9727C44.4305 49.202 45.201 48.4571 45.9459 47.7379C47.3584 46.3764 48.8737 46.2994 50.4404 47.4553C50.6459 47.6094 50.8513 47.7636 51.0568 47.9177C51.853 48.5342 52.8546 48.5599 53.5994 47.9434C53.7535 47.8149 53.8049 47.5581 53.8306 47.3526C53.959 46.6847 54.0103 46.0168 54.1644 45.3746C54.5497 43.9105 55.6797 43.0371 57.1694 43.0114C58.3251 42.9857 59.4808 43.0114 60.6366 43.0114C62.5114 43.0114 63.7442 44.1417 63.9754 46.0168C64.0011 46.2994 64.0268 46.5819 64.0781 46.8645C64.335 48.3287 65.6962 48.8681 66.8776 47.9434C67.2628 47.6608 67.6224 47.3269 68.0333 47.0957C69.1634 46.4535 70.3705 46.3764 71.3721 47.1984C72.6049 48.2516 73.735 49.4332 74.8137 50.6662C75.1989 51.1543 75.276 51.8221 75.4814 52.3873ZM75.918 61.275C73.7606 61.0438 71.8858 60.7356 70.8585 58.2439C69.8568 55.8037 70.653 54.134 72.2197 52.49C71.2951 51.591 70.4475 50.7946 69.5486 49.9213C67.9563 51.3084 66.3896 52.2588 63.9754 51.257C61.5612 50.2809 60.9191 48.5855 60.9191 46.2223C59.6606 46.2223 58.4792 46.2223 57.2207 46.2223C57.0153 48.303 56.6814 50.1782 54.2158 51.18C51.7502 52.1818 50.1065 51.3598 48.4371 49.7672C47.5896 50.7176 46.8191 51.5653 45.9715 52.4643C46.3054 52.9267 46.7163 53.4918 47.1016 54.0569C48.4885 56.0605 47.1786 59.965 44.8415 60.7613C44.6617 60.8127 44.4819 60.864 44.2765 60.8897C43.7628 60.9668 43.2491 60.9668 42.7611 61.1209C42.53 61.198 42.1961 61.4805 42.1704 61.6603C42.1191 62.6878 42.1448 63.6896 42.1448 64.8456C44.3278 64.974 46.1513 65.385 47.153 67.851C48.1803 70.3169 47.3071 71.9609 45.7404 73.6563C46.665 74.5296 47.5125 75.3003 48.4114 76.1223C48.9251 75.7626 49.4901 75.3259 50.0551 74.9406C52.0584 73.5792 55.8852 74.8379 56.7071 77.1241C56.7841 77.3295 56.8355 77.5607 56.8612 77.7662C56.9382 78.28 56.9382 78.7937 57.0923 79.2818C57.1694 79.513 57.4519 79.8469 57.6573 79.8469C58.659 79.8983 59.6863 79.8726 60.7907 79.8726C60.9961 77.7149 61.3557 75.8654 63.8213 74.8379C66.2869 73.8104 67.9049 74.7095 69.6 76.2507C70.4732 75.3259 71.2694 74.4783 72.1169 73.5535C70.653 71.9609 69.8055 70.3426 70.8071 67.851C71.8344 65.3336 73.7606 65.0511 75.8923 64.7685C75.918 63.6126 75.918 62.5337 75.918 61.275Z" fill="#1F53F1"/>
<path d="M58.9889 55C63.4172 55 67 58.5382 67 62.9444C67 67.4395 63.484 71 59.0111 71C54.5382 71 51 67.4618 51 62.9666C51.0223 58.5605 54.5605 55 58.9889 55Z" fill="#FF725E"/>
<path d="M21.3701 66.3896C22.5993 66.977 23.9401 67.3965 25.0017 68.1796C29.9182 71.7594 30.1696 78.5555 25.6721 82.6388C25.5045 82.8066 25.3089 82.9464 25.0296 83.1981C31.6222 86.0788 35.2537 90.9731 35.6168 98.2446C35.3095 98.2726 35.1419 98.3285 35.0023 98.3285C34.4156 98.3285 33.8569 98.3285 33.1027 98.3285C32.9072 93.5741 30.8679 89.7985 26.9571 87.1136C24.5268 85.4355 21.7612 84.7363 18.8281 84.9041C12.6266 85.2677 6.56477 90.162 6.11782 98.3285C5.30771 98.3285 4.49761 98.3285 3.6875 98.3285C3.6875 97.5734 3.6875 96.8183 3.6875 96.0911C3.7713 95.9233 3.88304 95.7276 3.91098 95.5598C4.46967 92.3435 5.7826 89.4908 8.15705 87.3093C9.91693 85.6872 12.012 84.4287 13.9395 83.0024C13.9116 82.9744 13.6881 82.8066 13.4646 82.6108C9.07889 78.5835 9.3303 71.8992 14.1071 68.3194C15.1966 67.5083 16.5933 67.0609 17.8224 66.4735C19.0516 66.3896 20.2248 66.3896 21.3701 66.3896ZM19.6661 82.3591C23.2697 82.3311 26.3146 79.2827 26.3425 75.6749C26.3704 72.0671 23.2138 68.8788 19.6103 68.9347C16.0067 68.9627 12.9618 72.0111 12.9339 75.6189C12.878 79.2267 16.0346 82.3871 19.6661 82.3591Z" fill="#0F1E35" stroke="black" stroke-width="2"/>
<path d="M100.397 66.3613C101.626 66.9486 102.967 67.3682 104.029 68.1512C108.945 71.7311 109.197 78.5272 104.699 82.6105C104.532 82.7783 104.336 82.9181 104.057 83.1698C110.649 86.0505 114.281 90.9448 114.644 98.2163C114.337 98.2443 114.169 98.3002 114.029 98.3002C113.443 98.3002 112.884 98.3002 112.13 98.3002C111.934 93.5458 109.895 89.7701 105.984 87.0853C103.554 85.4072 100.788 84.708 97.8552 84.8758C91.6537 85.2394 85.5919 90.1337 85.1449 98.3002C84.3348 98.3002 83.5247 98.3002 82.7146 98.3002C82.7146 97.5451 82.7146 96.79 82.7146 96.0628C82.7984 95.895 82.9101 95.6992 82.9381 95.5314C83.4968 92.3152 84.8097 89.4625 87.1841 87.281C88.944 85.6589 91.0391 84.4004 92.9666 82.974C92.9387 82.9461 92.7152 82.7783 92.4917 82.5825C88.106 78.5552 88.3574 71.8709 93.1342 68.2911C94.2237 67.48 95.6204 67.0325 96.8495 66.4452C98.0787 66.3613 99.224 66.3613 100.397 66.3613ZM98.6653 82.3028C102.269 82.2748 105.314 79.2264 105.342 75.6186C105.37 72.0108 102.213 68.8225 98.6094 68.8784C95.0059 68.9064 91.961 71.9548 91.933 75.5626C91.9051 79.1704 95.0617 82.3308 98.6653 82.3028Z" fill="#0F1E35" stroke="black" stroke-width="2"/>
<path d="M60.8977 3.68677C62.1269 4.27432 63.4677 4.69401 64.5292 5.47741C69.4457 9.0587 69.6972 15.8576 65.1997 19.9425C65.0321 20.1103 64.8365 20.2502 64.5572 20.502C71.1498 23.3839 74.7813 28.2801 75.1444 35.5546C74.8371 35.5826 74.6695 35.6386 74.5299 35.6386C73.9432 35.6386 73.3845 35.6386 72.6303 35.6386C72.4348 30.8822 70.3955 27.105 66.4847 24.4191C64.0544 22.7403 61.2888 22.0409 58.3557 22.2087C52.1542 22.5725 46.0924 27.4688 45.6454 35.6386C44.8353 35.6386 44.0252 35.6386 43.2151 35.6386C43.2151 34.8831 43.2151 34.1277 43.2151 33.4003C43.2989 33.2324 43.4106 33.0365 43.4386 32.8687C43.9973 29.6511 45.3102 26.7973 47.6846 24.6149C49.4445 22.9922 51.5396 21.7331 53.4671 20.3062C53.4392 20.2782 53.2157 20.1103 52.9922 19.9145C48.6065 15.8855 48.8579 9.19859 53.6347 5.61731C54.7242 4.80592 56.1209 4.35826 57.35 3.7707C58.5512 3.68677 59.7245 3.68677 60.8977 3.68677ZM59.1658 19.6347C62.7694 19.6067 65.8142 16.557 65.8422 12.9478C65.8701 9.33849 62.7135 6.1489 59.1099 6.20486C55.5063 6.23284 52.4615 9.28253 52.4335 12.8918C52.3777 16.5011 55.5622 19.6627 59.1658 19.6347Z" fill="#0F1E35" stroke="black" stroke-width="2"/>
</svg>
