<svg width="45" height="45" viewBox="0 0 45 45" fill="none" xmlns="http://www.w3.org/2000/svg">
<rect x="0.5" y="0.5" width="44" height="44" rx="22" fill="white" stroke="#E0E0E0"/>
<path d="M24.0286 13.001C24.7583 12.9982 25.488 13.0055 26.2176 13.023L26.4116 13.03C26.6356 13.038 26.8566 13.048 27.1236 13.06C28.1876 13.11 28.9136 13.278 29.5506 13.525C30.2106 13.779 30.7666 14.123 31.3226 14.679C31.831 15.1786 32.2244 15.7829 32.4756 16.45C32.7226 17.087 32.8906 17.814 32.9406 18.878C32.9526 19.144 32.9626 19.366 32.9706 19.59L32.9766 19.784C32.9943 20.5132 33.002 21.2426 32.9996 21.972L33.0006 22.718V24.028C33.003 24.7577 32.9954 25.4875 32.9776 26.217L32.9716 26.411C32.9636 26.635 32.9536 26.856 32.9416 27.123C32.8916 28.187 32.7216 28.913 32.4756 29.55C32.2252 30.2177 31.8317 30.8226 31.3226 31.322C30.8225 31.8303 30.2179 32.2237 29.5506 32.475C28.9136 32.722 28.1876 32.89 27.1236 32.94C26.8566 32.952 26.6356 32.962 26.4116 32.97L26.2176 32.976C25.4881 32.9938 24.7583 33.0014 24.0286 32.999L23.2826 33H21.9736C21.2438 33.0025 20.5141 32.9948 19.7846 32.977L19.5906 32.971C19.3532 32.9624 19.1158 32.9524 18.8786 32.941C17.8146 32.891 17.0886 32.721 16.4506 32.475C15.7833 32.2243 15.1788 31.8308 14.6796 31.322C14.1706 30.8223 13.7768 30.2175 13.5256 29.55C13.2786 28.913 13.1106 28.187 13.0606 27.123C13.0494 26.8857 13.0394 26.6484 13.0306 26.411L13.0256 26.217C13.0071 25.4875 12.9988 24.7577 13.0006 24.028V21.972C12.9978 21.2426 13.0051 20.5132 13.0226 19.784L13.0296 19.59C13.0376 19.366 13.0476 19.144 13.0596 18.878C13.1096 17.813 13.2776 17.088 13.5246 16.45C13.7759 15.7826 14.1705 15.1784 14.6806 14.68C15.1795 14.1707 15.7835 13.7766 16.4506 13.525C17.0886 13.278 17.8136 13.11 18.8786 13.06L19.5906 13.03L19.7846 13.025C20.5138 13.0066 21.2432 12.9982 21.9726 13L24.0286 13.001ZM23.0006 18.001C22.3381 17.9916 21.6803 18.114 21.0656 18.3611C20.4508 18.6081 19.8912 18.9749 19.4194 19.44C18.9476 19.9052 18.573 20.4595 18.3173 21.0707C18.0616 21.682 17.9299 22.3379 17.9299 23.0005C17.9299 23.663 18.0616 24.319 18.3173 24.9302C18.573 25.5414 18.9476 26.0958 19.4194 26.5609C19.8912 27.0261 20.4508 27.3929 21.0656 27.6399C21.6803 27.887 22.3381 28.0094 23.0006 28C24.3267 28 25.5984 27.4732 26.5361 26.5355C27.4738 25.5978 28.0006 24.3261 28.0006 23C28.0006 21.6739 27.4738 20.4021 26.5361 19.4645C25.5984 18.5268 24.3267 18.001 23.0006 18.001ZM23.0006 20.001C23.3991 19.9936 23.7951 20.0658 24.1654 20.2132C24.5357 20.3606 24.8729 20.5803 25.1574 20.8595C25.4418 21.1387 25.6678 21.4718 25.822 21.8393C25.9763 22.2068 26.0558 22.6014 26.0558 23C26.0559 23.3986 25.9766 23.7931 25.8224 24.1607C25.6683 24.5283 25.4424 24.8614 25.1581 25.1407C24.8737 25.42 24.5366 25.6399 24.1663 25.7874C23.796 25.9349 23.4001 26.0072 23.0016 26C22.2059 26 21.4429 25.6839 20.8803 25.1213C20.3176 24.5587 20.0016 23.7956 20.0016 23C20.0016 22.2043 20.3176 21.4413 20.8803 20.8787C21.4429 20.3161 22.2059 20 23.0016 20L23.0006 20.001ZM28.2506 16.501C27.928 16.5139 27.6229 16.6511 27.3992 16.884C27.1755 17.1168 27.0506 17.4271 27.0506 17.75C27.0506 18.0729 27.1755 18.3832 27.3992 18.616C27.6229 18.8488 27.928 18.9861 28.2506 18.999C28.5821 18.999 28.9 18.8673 29.1345 18.6329C29.3689 18.3984 29.5006 18.0805 29.5006 17.749C29.5006 17.4175 29.3689 17.0995 29.1345 16.8651C28.9 16.6307 28.5821 16.499 28.2506 16.499V16.501Z" fill="#0F1E35"/>
</svg>
