<svg width="53" height="53" viewBox="0 0 53 53" fill="none" xmlns="http://www.w3.org/2000/svg">
<circle cx="26.5" cy="26.5" r="26" transform="rotate(-180 26.5 26.5)" fill="white" stroke="#CFD2D7"/>
<path fill-rule="evenodd" clip-rule="evenodd" d="M29.6864 35.5675L20.9852 26.8507C20.9068 26.7758 20.8447 26.6857 20.8025 26.5859C20.7604 26.4861 20.7391 26.3787 20.7401 26.2704C20.7398 26.0468 20.8279 25.8322 20.9852 25.6734C24.1327 22.6027 27.166 19.6391 30.0853 16.7823C30.2354 16.6417 30.8361 16.2921 31.2998 16.8111C31.7635 17.3313 31.4824 17.7842 31.2998 17.9716L22.8088 26.2704L30.9142 34.3902C31.2097 34.7975 31.1857 35.1735 30.8421 35.5183C30.4985 35.8631 30.1129 35.8799 29.6864 35.5675Z" fill="#0F1E35"/>
</svg>
