<svg width="80" height="79" viewBox="0 0 80 79" fill="none" xmlns="http://www.w3.org/2000/svg">
<path d="M76.6118 2.69133H2.93213V76.3087H76.6118V2.69133Z" stroke="#0F1E35" stroke-width="5" stroke-miterlimit="10"/>
<path d="M39.7695 39.2348C39.7695 39.2437 39.7695 39.2516 39.7695 39.2605C39.7714 39.3405 39.7714 39.4195 39.7714 39.4995C39.7714 39.5677 39.7714 39.6348 39.7705 39.703C39.7695 39.7138 39.7705 39.7257 39.7705 39.7365C39.7072 49.8072 35.5963 58.9179 28.9816 65.5279C22.3145 72.1884 13.1052 76.3087 2.93213 76.3087" stroke="#0F1E35" stroke-width="5" stroke-miterlimit="10"/>
<path d="M39.7705 39.7365C39.7705 39.7257 39.7695 39.7138 39.7705 39.703C39.7686 39.6338 39.7686 39.5657 39.7686 39.4965C39.7686 39.4175 39.7686 39.3395 39.7695 39.2605C39.7695 39.2516 39.7695 39.2437 39.7695 39.2348C39.8397 29.1741 43.9487 20.0723 50.5584 13.4691C57.1217 6.91237 66.1472 2.81774 76.1314 2.69133" stroke="#0F1E35" stroke-width="5" stroke-miterlimit="10"/>
<path d="M39.7971 39.7385C39.7882 39.7385 39.7803 39.7385 39.7714 39.7385C39.6913 39.7405 39.6123 39.7405 39.5322 39.7405C39.464 39.7405 39.3968 39.7405 39.3286 39.7395C39.3177 39.7385 39.3058 39.7395 39.295 39.7395C29.2158 39.6763 20.0974 35.5688 13.4818 28.9598C6.81568 22.2983 2.69189 13.0958 2.69189 2.93132" stroke="#0F1E35" stroke-width="5" stroke-miterlimit="10"/>
<path d="M39.2949 39.7395C39.3058 39.7395 39.3177 39.7385 39.3285 39.7395C39.3977 39.7375 39.4659 39.7375 39.5351 39.7375C39.6142 39.7375 39.6923 39.7375 39.7714 39.7385C39.7802 39.7385 39.7882 39.7385 39.7971 39.7385C49.8663 39.8086 58.9758 43.9141 65.5846 50.5183C72.1469 57.076 76.2449 66.0938 76.3715 76.0697" stroke="#0F1E35" stroke-width="5" stroke-miterlimit="10"/>
</svg>
