<svg width="97" height="102" viewBox="0 0 97 102" fill="none" xmlns="http://www.w3.org/2000/svg">
<g clip-path="url(#clip0_1267_1538)">
<path d="M48.5281 97.9431C40.0701 97.9431 31.6402 97.9431 23.1822 97.9431C21.412 97.9431 20.9905 97.5492 21.0186 95.777C21.0467 91.5012 20.9343 87.1973 21.1872 82.9497C21.5525 76.6766 27.5096 70.8256 33.7758 70.5724C39.0866 70.3755 44.4256 70.4599 49.7645 70.4599C54.2043 70.4599 58.6721 70.3755 63.1118 70.5724C69.5186 70.8537 75.4476 76.6766 75.7848 83.0622C76.0096 87.4505 75.9253 91.8388 75.9253 96.2271C75.9253 97.5211 75.3914 97.9431 73.9583 97.9431C65.4722 97.9431 57.0142 97.9431 48.5281 97.9431Z" fill="#0F1E35"/>
<path d="M63.4771 11.5614C63.3366 11.7865 63.1118 12.2647 62.7746 12.6304C61.0324 14.4026 59.234 16.1467 57.4356 17.8626C56.986 18.3127 56.8737 18.7065 56.9861 19.3535C57.4637 21.8571 57.9133 24.3888 58.2505 26.9205C58.3067 27.3987 58.0538 28.2145 57.6604 28.4395C57.2108 28.6927 56.4241 28.6646 55.9183 28.4395C53.7546 27.3987 51.619 26.2454 49.5115 25.0639C48.781 24.6701 48.2471 24.6138 47.4884 25.0358C45.409 26.2173 43.3015 27.3143 41.1659 28.3552C40.6321 28.6083 39.7891 28.6365 39.2271 28.4114C38.5246 28.102 38.5527 27.3143 38.6932 26.5548C39.1428 24.0794 39.5643 21.6039 39.9577 19.1003C40.0139 18.7346 39.8172 18.2002 39.5362 17.947C37.8221 16.2029 36.0518 14.487 34.2815 12.771C33.7195 12.2366 33.2699 11.6458 33.5509 10.8301C33.8319 9.98616 34.5906 9.84551 35.3212 9.76112C37.7097 9.42355 40.0982 9.02973 42.4866 8.74843C43.161 8.66404 43.442 8.35461 43.6949 7.82013C44.7627 5.59785 45.8586 3.43183 46.9264 1.20954C47.2636 0.53442 47.657 -0.140704 48.4719 0.0562074C49.0338 0.196858 49.652 0.675071 49.9049 1.18141C51.0851 3.37557 52.1529 5.62598 53.2207 7.84826C53.4736 8.35461 53.7265 8.63591 54.3728 8.7203C56.8456 9.02973 59.2902 9.39542 61.7349 9.76112C62.9151 9.9299 63.449 10.4362 63.4771 11.5614ZM38.2998 12.2928C39.5081 13.5868 40.5478 14.8527 41.7841 15.9498C42.9362 16.9624 43.2453 18.0033 42.88 19.4942C42.4866 21.0976 42.318 22.7291 42.0089 24.5576C43.8073 23.6293 45.4371 22.8416 46.9545 21.9415C47.9942 21.3226 48.8653 21.3789 49.8768 21.9696C51.4504 22.8698 53.0802 23.6574 54.9067 24.5857C54.5976 22.701 54.3447 21.0413 54.0075 19.4098C53.7265 18.0876 53.8951 17.1031 54.991 16.1467C56.2836 14.9933 57.3794 13.6149 58.5315 12.3772C58.5034 12.3772 58.3348 12.2928 58.1662 12.2647C56.5365 12.0397 54.9067 11.7865 53.2769 11.5896C52.2653 11.4771 51.5066 11.1114 51.0851 10.0987C50.6355 9.0016 50.0454 7.96079 49.5115 6.89184C49.2024 6.27298 48.8652 5.62598 48.4438 4.86647C47.5727 6.61054 46.7016 8.10144 46.0553 9.67673C45.5214 10.9988 44.5941 11.4771 43.2453 11.6177C41.6155 11.7584 39.9577 12.0678 38.2998 12.2928Z" fill="#0F1E35"/>
<path d="M5.14211 46.4712C5.5917 43.7988 5.9851 41.1827 6.49089 38.5666C6.60329 37.9477 6.43469 37.6102 6.0132 37.2164C4.27102 35.5286 2.55694 33.8407 0.814763 32.1529C0.25277 31.6185 -0.196824 31.084 0.0560725 30.2401C0.337069 29.3962 1.06766 29.2555 1.79825 29.143C4.21482 28.7773 6.65949 28.4679 9.04796 28.0459C9.44136 27.9897 9.91905 27.624 10.1157 27.2864C11.2678 25.0923 12.3356 22.8418 13.4315 20.6196C13.7406 19.9726 14.1059 19.41 14.977 19.3818C15.82 19.3818 16.1853 19.9444 16.5225 20.5914C17.6184 22.8137 18.6861 25.0641 19.8382 27.2583C20.0349 27.5958 20.5126 27.9615 20.8779 28.0178C23.2945 28.4116 25.7111 28.7492 28.1276 29.1149C28.8582 29.2274 29.6169 29.368 29.8698 30.212C30.1227 31.0277 29.645 31.5903 29.1111 32.1248C27.3408 33.8407 25.5987 35.5567 23.8846 37.3289C23.5755 37.6383 23.4069 38.2572 23.4631 38.6791C23.8284 41.1265 24.3061 43.5738 24.6433 46.0492C24.7276 46.6118 24.5309 47.4839 24.1375 47.7652C23.7441 48.0465 22.8449 47.9621 22.3391 47.7089C20.1754 46.6681 18.0398 45.5429 15.9043 44.3614C15.2018 43.9676 14.6679 43.9957 13.9654 44.3896C11.8298 45.571 9.63805 46.6962 7.47438 47.8214C6.238 48.4684 5.08591 47.7933 5.14211 46.4712ZM25.0929 31.6747C23.2102 31.3934 21.2994 31.0559 19.3605 30.8027C18.5737 30.6902 18.096 30.3245 17.7589 29.6212C17.1126 28.271 16.4101 26.9207 15.7357 25.5986C15.539 25.1767 15.3142 24.7828 15.0332 24.1921C14.1621 25.9362 13.3472 27.3989 12.7009 28.9461C12.1389 30.3245 11.1835 30.8871 9.75045 30.9996C8.12067 31.1402 6.49089 31.4497 4.80491 31.7028C6.0975 33.025 7.22148 34.3471 8.48597 35.4723C9.49756 36.3725 9.75045 37.357 9.46946 38.651C9.10416 40.3388 8.87936 42.0548 8.57027 43.9113C10.3967 42.9549 12.0546 42.1673 13.6563 41.239C14.6117 40.6764 15.4547 40.7045 16.4101 41.239C18.0117 42.1391 19.6696 42.9268 21.4961 43.8832C21.1589 41.886 20.906 40.0856 20.5126 38.3134C20.2597 37.1601 20.5969 36.4006 21.4118 35.6129C22.6763 34.3752 23.8565 32.9968 25.0929 31.6747Z" fill="#EB5757"/>
<path d="M73.5649 37.9477C73.3963 37.7508 73.1996 37.4414 72.9467 37.1882C71.2326 35.5004 69.4904 33.7845 67.7482 32.1248C67.1862 31.5903 66.6523 30.9152 67.0738 30.212C67.3829 29.7056 68.1135 29.2837 68.7317 29.1711C71.1483 28.7211 73.5649 28.3835 76.0095 28.1022C76.6839 28.0178 76.9649 27.7084 77.2178 27.1739C78.2013 25.0923 79.241 23.0106 80.2526 20.9571C80.6179 20.1976 80.927 19.3818 81.9948 19.3818C83.0063 19.3818 83.2873 20.1976 83.6526 20.9009C84.6642 22.9825 85.732 25.036 86.7155 27.1176C86.9965 27.7084 87.3056 28.0178 88.0081 28.1022C90.3966 28.3835 92.785 28.7211 95.1735 29.1711C95.7917 29.2837 96.4942 29.7056 96.8033 30.212C97.281 30.9433 96.6909 31.5903 96.157 32.1248C94.3867 33.8689 92.5883 35.6129 90.8461 37.3851C90.5932 37.6664 90.3685 38.1728 90.4247 38.5385C90.818 41.0702 91.2957 43.5738 91.661 46.1055C91.7453 46.64 91.5767 47.512 91.2114 47.7652C90.79 48.0465 89.8908 48.0183 89.385 47.7933C87.1651 46.7525 85.0014 45.5992 82.8658 44.4177C82.1915 44.052 81.6857 44.052 81.0394 44.4177C78.96 45.571 76.8244 46.64 74.745 47.7652C74.0707 48.1309 73.3682 48.384 72.6938 47.8496C72.0475 47.3432 72.0756 46.6962 72.2161 45.9367C72.6657 43.4894 73.0591 41.0421 73.4806 38.5947C73.4806 38.3978 73.5087 38.2572 73.5649 37.9477Z" fill="#1F53F1"/>
<path d="M63.2524 50.7687C63.3086 58.8702 56.5928 65.6214 48.5001 65.6214C40.3512 65.6214 33.7196 59.039 33.6634 50.8812C33.6072 42.7516 40.1545 36.0285 48.191 36.0004C56.649 35.9441 63.2243 42.414 63.2524 50.7687ZM36.642 50.7687C36.642 57.3793 41.9528 62.6959 48.5001 62.6396C55.0473 62.6115 60.3019 57.323 60.2738 50.7968C60.2457 44.1862 54.9911 38.9259 48.4158 38.9259C41.8966 38.8978 36.642 44.1862 36.642 50.7687Z" fill="#0F1E35"/>
</g>
<defs>
<clipPath id="clip0_1267_1538">
<rect width="97" height="102" fill="white"/>
</clipPath>
</defs>
</svg>
