<svg width="107" height="102" viewBox="0 0 107 102" fill="none" xmlns="http://www.w3.org/2000/svg">
<path d="M9 28.1882C9.53367 27.1171 10.4386 26.5474 11.5524 26.0916C25.0566 20.5312 38.5377 14.9253 51.9956 9.31928C52.9933 8.90908 53.9215 8.88629 54.9192 9.29649C68.5627 14.9708 82.2294 20.6452 95.8961 26.3195C97.8916 27.1399 98.6109 29.0541 97.4275 30.5582C97.0099 31.0823 96.337 31.4925 95.7105 31.766C86.3828 35.6628 77.0551 39.5141 67.7274 43.3881C63.5276 45.12 59.3278 46.852 55.128 48.6295C54.0143 49.108 52.9933 49.1308 51.8796 48.6523C38.3753 43.0235 24.871 37.4175 11.3667 31.8343C10.2994 31.3786 9.46406 30.7633 9 29.7378C9 29.2137 9 28.7123 9 28.1882Z" fill="#1F53F1"/>
<path d="M9 57.6088C9.48773 56.5038 10.3239 55.822 11.4387 55.4224C12.6928 54.9757 13.9006 54.0353 15.1315 54.0353C16.3392 54.0353 17.5237 54.9522 18.7315 55.4459C29.1597 59.9128 39.5879 64.3562 50.0162 68.8231C52.3852 69.834 54.7309 69.8105 57.0767 68.7995C68.4572 63.933 79.8609 59.0664 91.2414 54.1763C91.7756 53.9412 92.1936 53.9412 92.7046 54.1763C93.773 54.6935 94.8878 55.1402 95.9794 55.5869C97.2103 56.1041 98 56.927 98 58.3611C98 59.7717 97.2103 60.5946 95.9794 61.1353C85.017 65.8138 74.0545 70.5158 63.0921 75.1943C60.3747 76.3463 57.6574 77.4982 54.9632 78.6737C53.9645 79.1204 53.0355 79.0969 52.0368 78.6737C38.4963 72.8668 24.9327 67.0833 11.3922 61.2999C10.3239 60.8532 9.51096 60.2184 9 59.184C9 58.6667 9 58.1495 9 57.6088Z" fill="#0F1E35"/>
<path d="M9.02322 72.3423C9.55727 71.28 10.4164 70.602 11.5774 70.2629C11.9256 70.1499 12.2972 70.0143 12.599 69.8335C14.2708 68.7938 15.8265 69.0877 17.5912 69.8335C28.365 74.3538 39.1852 78.7611 49.9823 83.191C52.3042 84.1402 54.6261 84.1854 56.9713 83.2136C68.3256 78.5351 79.7031 73.8792 91.0574 69.2007C91.7308 68.9295 92.288 68.9295 92.9149 69.2233C93.9598 69.6979 95.0511 70.1047 96.096 70.5342C97.257 71.0088 97.9768 71.8224 98 73.1107C98 74.4216 97.2802 75.2579 96.0728 75.7551C89.2927 78.5351 82.5126 81.3377 75.7326 84.1176C68.6274 87.0332 61.5223 89.9488 54.4172 92.8644C54.3475 92.887 54.2779 92.9548 54.2082 93C53.7438 93 53.2794 93 52.815 93C52.7686 92.9774 52.7221 92.9322 52.6757 92.9096C38.9066 87.2592 25.1375 81.5863 11.3684 75.9585C10.3003 75.5291 9.48761 74.9188 9 73.9018C9.02322 73.3593 9.02322 72.8395 9.02322 72.3423Z" fill="#0F1E35"/>
<path d="M9 42.4546C9.65014 41.1588 10.904 40.7582 12.065 40.0986C14.1083 38.9206 15.8962 39.1326 18.0324 40.075C28.5507 44.7163 39.1388 49.1455 49.6804 53.7161C52.281 54.847 54.7887 54.8235 57.3893 53.6926C68.6274 48.8393 79.8889 44.0331 91.1503 39.2033C91.7308 38.9441 92.2184 38.9206 92.7756 39.2033C93.7973 39.6981 94.8422 40.1221 95.887 40.5462C97.1409 41.0645 98 41.8891 98 43.3498C98 44.8105 97.1409 45.6351 95.9103 46.1534C88.0853 49.4989 80.2604 52.8444 72.4586 56.1899C66.6306 58.6873 60.8025 61.161 54.9744 63.6819C53.976 64.106 53.0472 64.106 52.0488 63.6819C38.3958 57.792 24.7428 51.9492 11.0897 46.1299C10.0913 45.7058 9.41795 45.0226 9 44.0331C9 43.5147 9 42.9729 9 42.4546Z" fill="#EB5757"/>
</svg>
