<svg width="47" height="47" viewBox="0 0 47 47" fill="none" xmlns="http://www.w3.org/2000/svg">
<circle cx="23.5" cy="23.5" r="23" fill="white" stroke="#CFD2D7"/>
<path fill-rule="evenodd" clip-rule="evenodd" d="M20.6746 15.459L28.3908 23.1891C28.4602 23.2554 28.5154 23.3353 28.5527 23.4238C28.5901 23.5123 28.609 23.6075 28.6081 23.7036C28.6084 23.9019 28.5303 24.0922 28.3908 24.2331C25.5996 26.9561 22.9096 29.5843 20.3209 32.1176C20.1877 32.2423 19.655 32.5523 19.2438 32.092C18.8326 31.6308 19.0819 31.2291 19.2438 31.0629L26.7736 23.7036L19.5858 16.503C19.3237 16.1419 19.345 15.8084 19.6497 15.5027C19.9544 15.1969 20.2964 15.182 20.6746 15.459Z" fill="#0F1E35"/>
</svg>
