<svg width="85" height="102" viewBox="0 0 85 102" fill="none" xmlns="http://www.w3.org/2000/svg">
<g clip-path="url(#clip0_1267_1545)">
<path d="M5.20373 67.0629C5.20373 68.9637 5.17691 70.918 5.23056 72.8723C5.23056 73.1936 5.65971 73.6487 6.00841 73.8094C8.2883 74.907 10.5682 76.0046 12.9286 76.9416C13.9478 77.3432 14.7525 77.8251 15.3962 78.7086C17.3811 81.5464 19.5805 84.17 22.4773 86.1511C23.4698 86.8204 23.7112 87.8377 23.4429 88.9889C22.826 91.4251 22.2359 93.8345 21.619 96.2708C21.5922 96.4314 21.5654 96.592 21.5385 96.8062C24.2744 96.8062 26.9835 96.8062 29.8266 96.8062C30.0949 95.1999 30.3363 93.5936 30.6045 91.9873C30.8459 90.4613 31.9724 89.5778 33.4477 89.6314C37.6588 89.7652 41.8699 89.9527 46.081 89.9794C48.5486 90.0062 51.0163 89.792 53.4839 89.6314C55.6029 89.4975 56.6758 90.4078 56.8904 92.496C57.0245 93.7275 57.2391 94.9322 57.5073 96.1369C57.5609 96.4046 57.9901 96.7794 58.2583 96.8062C60.8064 96.8597 63.3277 96.833 66.0368 96.833C65.6881 95.4408 65.3931 94.129 65.0712 92.8172C64.6689 91.1574 64.2397 89.5243 63.8105 87.8645C63.5155 86.7936 63.6764 85.8566 64.4006 84.9731C66.5464 82.3227 68.6654 79.6456 70.8112 77.0219C72.3401 75.1747 73.0374 73.0865 73.1715 70.6771C73.9762 57.5857 65.098 48.644 55.737 44.8692C50.0507 42.5668 44.1498 41.8172 38.0343 42.3794C37.0955 42.4597 36.1835 42.5668 35.2448 42.6204C33.7695 42.7007 32.5893 41.8172 32.4016 40.5054C32.187 39.033 33.0185 37.7747 34.601 37.5605C48.0122 35.8471 60.0822 38.5511 69.926 48.3495C72.2328 50.6519 74.0567 53.3558 75.4514 56.3007C75.6928 56.8094 75.9342 57.0503 76.5512 57.0771C80.8427 57.2912 84.4369 60.5574 84.9734 64.707C85.5366 69.1511 82.8276 73.4613 78.6701 74.666C77.9727 74.8802 77.6777 75.2282 77.3022 75.8708C76.2025 77.8519 75.0223 79.7794 73.708 81.5999C72.4205 83.3936 70.9721 85.0534 69.5237 86.7401C69.0946 87.2487 69.0409 87.7038 69.2018 88.2928C70.087 91.7196 70.9453 95.1464 71.7768 98.5731C72.2328 100.447 71.133 101.92 69.175 101.946C64.7493 101.973 60.3505 101.973 55.9248 101.946C54.4227 101.946 53.4839 101.197 53.1353 99.7243C52.7329 98.118 52.3842 96.4849 52.0355 94.959C46.5101 94.959 40.9847 94.959 35.5934 94.959C35.1375 96.6723 34.762 98.3054 34.2255 99.9117C33.7427 101.384 32.9112 101.946 31.3823 101.946C27.1444 101.946 22.8797 101.946 18.6417 101.946C16.3887 101.946 15.3158 100.501 15.8522 98.2786C16.5764 95.4141 17.3006 92.5227 17.9712 89.6314C18.0516 89.3369 17.8907 88.8818 17.6761 88.6408C15.8254 86.633 13.9746 84.6251 12.0703 82.644C11.5606 82.1086 10.9437 81.5999 10.2732 81.359C7.53728 80.3416 4.85504 79.2708 2.5215 77.4771C0.804871 76.2723 -0.107088 74.6928 0.000200979 72.4975C0.161135 69.7401 0.134313 66.9558 0.187957 64.1716C0.241602 62.3511 1.52907 61.307 3.32617 61.5747C3.51393 61.6015 3.72851 61.6818 3.91626 61.7086C6.38392 62.0834 6.67896 61.7889 7.67139 59.5668C8.79793 57.0503 10.1122 54.6141 11.507 52.2314C12.3921 50.7054 14.0283 50.4109 15.2889 51.2944C16.4959 52.1511 16.7105 53.6771 15.6913 55.096C13.8405 57.7464 12.4189 60.6109 11.5875 63.7164C11.1583 65.3763 9.95129 66.0991 8.47606 66.5007C7.48363 66.7952 6.41074 66.8755 5.20373 67.0629ZM78.4287 68.9101C79.287 68.4818 80.0112 67.17 79.904 65.9653C79.7698 64.5464 79.2334 63.3684 77.8118 62.6723C78.0264 64.8408 78.2141 66.8755 78.4287 68.9101Z" fill="#0F1E35"/>
<path d="M32.2676 18.0442C32.2944 8.0851 40.4216 -0.0267056 50.4263 6.60765e-05C60.2969 0.0268377 68.4777 8.19219 68.4777 18.0709C68.4777 28.03 60.2701 36.1418 50.2922 36.0883C40.3143 36.0615 32.2676 27.9764 32.2676 18.0442ZM50.3727 5.14022C43.1843 5.11345 37.3906 10.8426 37.3638 17.9906C37.337 25.1386 43.1574 31.0016 50.319 31.0284C57.4806 31.0552 63.2742 25.2725 63.301 18.1245C63.3278 10.8694 57.6415 5.167 50.3727 5.14022Z" fill="#1F53F1"/>
<path d="M21.619 33.0898C22.2359 33.1969 23.4697 33.2772 24.6767 33.5717C28.0832 34.4552 30.0144 36.8111 30.7922 40.1576C31.5701 43.6379 30.6313 46.6631 28.0027 49.0457C24.0866 52.6064 18.8563 52.3119 15.3694 48.3229C12.9554 45.5654 11.802 42.1922 10.7023 38.7922C10.595 38.4442 10.4877 38.0961 10.4073 37.7213C10.0854 36.3292 10.7828 34.9639 12.1507 34.5623C15.0207 33.6788 17.9712 33.1434 21.619 33.0898ZM16.1472 38.9528C16.9519 41.1749 17.8102 43.2631 19.2318 45.0568C20.2242 46.315 21.5117 46.8237 22.8528 46.208C23.8184 45.7261 24.8377 45.0032 25.4278 44.1198C26.7689 42.1654 25.4009 38.8993 23.2015 38.4977C20.868 38.0426 18.5612 38.2568 16.1472 38.9528Z" fill="#0F1E35"/>
<path d="M43.7206 45.4849C48.656 45.5919 53.2158 46.9573 57.5342 49.2329C58.9289 49.9825 59.4117 51.4014 58.7412 52.7132C58.0706 53.9982 56.6222 54.4801 55.2274 53.7841C52.2502 52.2849 49.1924 51.0266 45.8396 50.866C43.7475 50.7589 41.6553 50.9998 39.5632 51.214C38.0075 51.3746 36.6664 50.7053 36.3981 49.34C36.0763 47.8408 36.8809 46.529 38.4635 46.2345C40.2069 45.8597 41.9504 45.7258 43.7206 45.4849Z" fill="#0F1E35"/>
<path d="M25.7229 62.5652C25.7229 64.5463 24.1404 66.1258 22.1824 66.1258C20.1975 66.1258 18.5345 64.466 18.5614 62.5116C18.5882 60.5841 20.2243 58.951 22.1555 58.951C24.1136 58.9242 25.7229 60.5573 25.7229 62.5652Z" fill="#0F1E35"/>
<g clip-path="url(#clip1_1267_1545)">
<path d="M51.3795 7.76367C51.4434 8.22325 51.5394 8.68282 51.5714 9.1424C51.5874 9.66537 51.7633 9.93478 52.3232 10.0299C52.9949 10.1408 53.6347 10.3785 54.2745 10.5845C54.7544 10.743 54.9463 11.0599 54.7704 11.5512C54.5624 12.1693 54.5145 12.9775 54.0826 13.3261C53.7947 13.5638 52.9789 13.0726 52.3871 12.9933C51.6674 12.8824 50.9316 12.7873 50.1958 12.819C49.572 12.8349 48.9962 13.0884 48.8203 13.7857C48.6283 14.4988 49.0442 14.9584 49.604 15.2595C50.5637 15.7508 51.5554 16.1628 52.5311 16.6066C53.7947 17.1929 54.7704 18.0645 55.2502 19.3957C56.066 21.6302 54.8983 24.1816 52.5791 25.0057C51.7313 25.3068 51.3954 25.703 51.4754 26.5746C51.5074 26.9708 51.3635 27.7156 51.1715 27.7473C50.5317 27.89 49.8279 27.8266 49.1561 27.7632C49.0442 27.7473 48.9162 27.3987 48.8842 27.1768C48.8362 26.8757 48.8522 26.5429 48.8682 26.2418C48.8842 25.7822 48.6923 25.5604 48.1965 25.4653C47.3327 25.2751 46.485 24.9899 45.6373 24.7205C45.1094 24.562 44.9815 24.1658 45.1094 23.6587C45.1094 23.627 45.1254 23.6111 45.1254 23.5794C45.5893 21.5985 45.5733 21.6144 47.4767 22.2324C48.5004 22.5652 49.54 22.8505 50.6277 22.5177C51.2355 22.3275 51.7473 22.0264 51.8593 21.345C51.9873 20.6318 51.6514 20.093 51.0596 19.7761C50.3718 19.3957 49.636 19.1105 48.9322 18.7777C48.2764 18.4607 47.5886 18.1755 46.9968 17.7634C44.3577 15.9093 44.5976 12.2485 47.4287 10.7113C47.5407 10.6479 47.6526 10.5687 47.7806 10.537C48.8682 10.3151 49.2041 9.63367 49.0442 8.60359C48.9962 8.33418 49.1242 8.04893 49.1721 7.76367C49.9079 7.76367 50.6437 7.76367 51.3795 7.76367Z" fill="#EB5757"/>
</g>
</g>
<defs>
<clipPath id="clip0_1267_1545">
<rect width="85" height="102" fill="white"/>
</clipPath>
<clipPath id="clip1_1267_1545">
<rect width="10.4607" height="20.0787" fill="white" transform="translate(45.0615 7.76367)"/>
</clipPath>
</defs>
</svg>
