<svg width="26" height="26" viewBox="0 0 26 26" fill="none" xmlns="http://www.w3.org/2000/svg">
<path d="M22.7502 22.75L18.0453 18.0451M18.0453 18.0451C18.8501 17.2403 19.4885 16.2848 19.9241 15.2333C20.3596 14.1818 20.5838 13.0548 20.5838 11.9166C20.5838 10.7785 20.3596 9.65149 19.9241 8.59997C19.4885 7.54846 18.8501 6.59302 18.0453 5.78823C17.2405 4.98343 16.2851 4.34504 15.2336 3.90948C14.182 3.47393 13.055 3.24976 11.9169 3.24976C10.7787 3.24976 9.65173 3.47393 8.60021 3.90948C7.5487 4.34504 6.59327 4.98343 5.78847 5.78823C4.16312 7.41359 3.25 9.61804 3.25 11.9166C3.25 14.2152 4.16312 16.4197 5.78847 18.0451C7.41383 19.6704 9.61829 20.5835 11.9169 20.5835C14.2155 20.5835 16.4199 19.6704 18.0453 18.0451Z" stroke="#828282" stroke-width="2" stroke-linecap="round" stroke-linejoin="round"/>
</svg>
