<svg width="95" height="102" viewBox="0 0 95 102" fill="none" xmlns="http://www.w3.org/2000/svg">
<path d="M46.0555 96.9922C45.4106 96.7758 44.7658 96.5835 44.1448 96.319C40.9921 94.9246 39.1053 91.6309 39.5591 88.1689C39.6308 87.5679 39.2964 87.4477 38.9382 87.2554C33.4927 84.1059 28.0711 80.9324 22.6256 77.783C18.7565 75.5471 14.9112 73.2632 11.0182 71.0754C10.23 70.6186 9.91956 70.1378 9.91956 69.2001C9.96733 58.4055 9.94344 47.6108 9.94344 36.8161C9.94344 36.4555 9.94344 36.0949 9.94344 35.7343C7.36401 34.7005 5.62051 32.9454 4.904 30.2528C4.06807 27.0552 5.31002 23.6413 8.00887 21.742C10.66 19.8668 14.2425 19.8187 16.8936 21.694C17.5145 22.1267 17.9206 22.1027 18.5415 21.742C27.9756 16.2365 37.4335 10.731 46.8914 5.22548C47.4168 4.91294 47.799 4.93698 48.3244 5.22548C57.7584 10.731 67.2164 16.2365 76.6743 21.742C77.1758 22.0305 77.5341 22.1027 78.0834 21.718C81.8092 19.0975 86.9203 20.2515 89.2609 24.1943C91.5776 28.1131 90.0969 33.2099 86.0128 35.2294C85.3679 35.5419 85.2007 35.9266 85.2007 36.5997C85.2246 47.5387 85.2007 58.5016 85.2246 69.4406C85.2246 70.1618 84.9858 70.5465 84.3648 70.9071C74.8591 76.4126 65.3534 81.9422 55.8478 87.4477C55.4178 87.6881 55.1312 87.9045 55.1551 88.5296C55.2745 92.833 52.9578 95.8142 48.8021 96.872C48.7304 96.896 48.6588 96.9682 48.5871 97.0163C47.7273 96.9922 46.8914 96.9922 46.0555 96.9922ZM52.504 83.1202C61.4843 77.9032 70.4168 72.7102 79.3492 67.4932C79.5881 67.3489 79.7791 66.9162 79.7791 66.6277C79.803 56.5302 79.803 46.4087 79.803 36.3112C79.803 35.8304 79.6597 35.59 79.2059 35.3496C76.1249 33.7628 74.5486 31.2625 74.6919 27.7524C74.7158 27.1033 74.5247 26.7427 73.9515 26.4302C65.3773 21.4776 56.827 16.501 48.3005 11.5244C47.7751 11.2118 47.3691 11.2359 46.8675 11.5484C38.2694 16.5731 29.6713 21.5738 21.0493 26.5504C20.5 26.8629 20.285 27.2235 20.3089 27.8727C20.4045 31.2625 18.8998 33.7148 15.9621 35.3255C15.6755 35.4698 15.4128 35.9506 15.4128 36.2632C15.3889 46.3606 15.3889 56.4821 15.365 66.5796C15.365 67.1085 15.58 67.397 16.0099 67.6374C17.3235 68.3827 18.6371 69.1521 19.9507 69.9214C27.2113 74.1527 34.4719 78.36 41.7564 82.5673C42.043 82.7355 42.5207 82.8317 42.7595 82.6875C46.0794 80.5237 49.2798 80.7641 52.504 83.1202Z" fill="#0F1E35"/>
<path d="M29.8389 35.1573C34.1857 32.6329 38.437 30.1566 42.6883 27.7044C44.0974 26.887 45.5065 26.0215 46.9395 25.2522C47.2261 25.0839 47.7755 25.0598 48.0382 25.2281C53.6508 28.4497 59.2157 31.6953 64.8045 34.9409C64.9 34.989 64.9955 35.0852 65.1389 35.2054C64.8761 35.3737 64.6612 35.5179 64.4462 35.6381C59.0485 38.7876 53.6269 41.913 48.2293 45.0624C47.7993 45.3028 47.465 45.4952 46.9395 45.1826C41.3747 41.913 35.762 38.6674 30.1971 35.4218C30.1016 35.3737 30.0061 35.3015 29.8389 35.1573Z" fill="#EB5757"/>
<path d="M44.7657 70.6908C43.667 70.0657 42.7117 69.4887 41.7325 68.9358C37.0751 66.2191 32.4178 63.5264 27.7605 60.8097C27.3545 60.5693 27.0918 60.3529 27.0918 59.7759C27.1157 53.3088 27.1157 46.8416 27.1157 40.3503C27.1157 40.2301 27.1396 40.1099 27.1396 39.8936C27.4023 40.0378 27.6411 40.134 27.8561 40.2542C33.2777 43.4036 38.7231 46.5531 44.1447 49.7025C44.5507 49.9429 44.7896 50.1593 44.7896 50.7363C44.7657 57.2035 44.7657 63.6707 44.7657 70.1619C44.8134 70.3062 44.7896 70.4264 44.7657 70.6908Z" fill="#0F1E35"/>
<path d="M67.8615 39.9175C67.8615 45.5913 67.8615 51.1209 67.8615 56.6745C67.8615 57.7323 67.9093 58.7661 67.8376 59.8239C67.8137 60.1365 67.5988 60.5692 67.36 60.7375C61.7951 64.0072 56.2063 67.2528 50.6175 70.4984C50.522 70.5465 50.4026 70.5705 50.2115 70.6426C50.1876 70.3301 50.1638 70.0897 50.1638 69.8252C50.1638 63.5263 50.1638 57.2515 50.1638 50.9526C50.1638 50.5198 50.1399 50.1352 50.6414 49.8467C56.2541 46.6251 61.819 43.3795 67.4077 40.1339C67.5271 40.0617 67.6466 40.0136 67.8615 39.9175Z" fill="#1F53F1"/>
</svg>
