<svg width="82" height="82" viewBox="0 0 82 82" fill="none" xmlns="http://www.w3.org/2000/svg">
<path d="M39.9441 59.6036L39.9236 59.6108L39.9033 59.6186L19.5559 67.4078L20.6689 45.641L20.6692 45.6357C20.7032 44.9217 20.466 44.2417 20.0581 43.7083L20.0457 43.6921L20.0329 43.6763L6.32739 26.7272L27.376 21.0676L27.3873 21.0645L27.3986 21.0613C28.0548 20.8738 28.6627 20.457 29.0535 19.8307L40.9361 1.59394L52.8278 19.8608L52.8323 19.8677L52.8368 19.8745C53.2264 20.4588 53.8063 20.8773 54.4547 21.0718L54.4754 21.078L54.4962 21.0836L75.5449 26.7432L61.8547 43.6929L61.8422 43.7084L61.8301 43.7243C61.4222 44.2577 61.185 44.9377 61.219 45.6517L61.2193 45.657L62.3323 67.4238L41.9849 59.6346L41.9826 59.6337C41.3117 59.3782 40.5947 59.3759 39.9441 59.6036Z" stroke="#1F53F1" stroke-width="3"/>
<path d="M60.6155 14.1355L66.0599 3.41401L71.3412 8.6953L60.6155 14.1355ZM16.1964 3.43002L21.651 14.1717L10.9094 8.71704L16.1964 3.43002ZM40.9626 69.0523L44.7011 80.5H37.2241L40.9626 69.0523Z" stroke="#1F53F1" stroke-width="3"/>
</svg>
