<svg width="82" height="82" viewBox="0 0 82 82" fill="none" xmlns="http://www.w3.org/2000/svg">
<path d="M60.8682 43.05C60.3975 47.6132 58.3755 51.8766 55.14 55.1286C51.9045 58.3805 47.6513 60.424 43.0906 60.9178C42.9988 60.9167 42.9076 60.934 42.8226 60.9687C42.7375 61.0033 42.6602 61.0546 42.5953 61.1195C42.5304 61.1845 42.4791 61.2618 42.4444 61.3468C42.4098 61.4319 42.3925 61.523 42.3936 61.6148V76.5306C42.3936 76.9004 42.2467 77.2549 41.9853 77.5163C41.7239 77.7778 41.3693 77.9246 40.9996 77.9246C40.6299 77.9246 40.2753 77.7778 40.0139 77.5163C39.7525 77.2549 39.6056 76.9004 39.6056 76.5306V71.1186C39.5923 70.9382 39.5146 70.7685 39.3867 70.6406C39.2587 70.5126 39.0891 70.4349 38.9086 70.4216C32.7087 69.9199 26.8278 67.464 22.1125 63.4073C17.3972 59.3507 14.0906 53.9025 12.6686 47.847C12.6157 47.6676 12.5994 47.4794 12.6207 47.2936C12.6421 47.1077 12.7006 46.9281 12.7928 46.7653C12.885 46.6026 13.0091 46.4601 13.1575 46.3463C13.306 46.2325 13.4758 46.1497 13.6569 46.1029C13.838 46.0561 14.0267 46.0462 14.2117 46.0739C14.3967 46.1016 14.5743 46.1662 14.7338 46.2639C14.8933 46.3616 15.0315 46.4904 15.1402 46.6426C15.2489 46.7949 15.3258 46.9674 15.3664 47.15C16.6306 52.5855 19.5783 57.4833 23.7894 61.1452C28.0005 64.807 33.26 67.0462 38.8184 67.5434C38.9988 67.6336 39.171 67.5434 39.3432 67.3712C39.4342 67.3198 39.5079 67.2424 39.5546 67.1489C39.6013 67.0554 39.6191 66.9501 39.6056 66.8464V61.6148C39.6067 61.523 39.5894 61.4319 39.5548 61.3468C39.5202 61.2618 39.4689 61.1845 39.4039 61.1195C39.339 61.0546 39.2617 61.0033 39.1766 60.9687C39.0916 60.934 39.0004 60.9167 38.9086 60.9178C34.3697 60.4122 30.1341 58.3897 26.8874 55.1778C23.6413 51.9154 21.6149 47.6367 21.1474 43.0582C21.1208 42.8907 21.0367 42.7377 20.9095 42.6254C20.7823 42.5132 20.62 42.4488 20.4504 42.4432H5.53461C5.15402 42.4432 4.78903 42.292 4.51991 42.0229C4.2508 41.7538 4.09961 41.3888 4.09961 41.0082C4.09961 40.6277 4.2508 40.2627 4.51991 39.9935C4.78903 39.7244 5.15402 39.5732 5.53461 39.5732H11.2008C11.3699 39.5662 11.5314 39.5012 11.6583 39.3893C11.7852 39.2773 11.8698 39.1251 11.8978 38.9582C12.2699 32.7676 14.5701 26.8485 18.4758 22.031C22.3816 17.2136 27.6971 13.7392 33.677 12.095C34.0391 12.0263 34.4139 12.0987 34.7243 12.2975C35.0347 12.4962 35.2573 12.8062 35.3465 13.1639C35.4356 13.5215 35.3846 13.8997 35.2037 14.2209C35.0229 14.5421 34.726 14.782 34.374 14.8912C29.024 16.3339 24.2581 19.4112 20.7417 23.6935C17.2253 27.9759 15.1339 33.2494 14.7596 38.7778C14.7365 38.8797 14.7374 38.9855 14.7623 39.0869C14.7872 39.1884 14.8354 39.2826 14.903 39.3622C14.9706 39.4418 15.0559 39.5045 15.152 39.5454C15.2481 39.5863 15.3524 39.6043 15.4566 39.5978H20.4176C20.5872 39.5923 20.7495 39.5279 20.8767 39.4157C21.0039 39.3034 21.088 39.1504 21.1146 38.9828C21.5789 34.4113 23.6001 30.1383 26.8396 26.8794C30.079 23.6205 34.34 21.5739 38.9086 21.0822C39.0004 21.0833 39.0916 21.0661 39.1766 21.0314C39.2617 20.9968 39.339 20.9455 39.4039 20.8805C39.4689 20.8156 39.5202 20.7383 39.5548 20.6533C39.5894 20.5682 39.6067 20.4771 39.6056 20.3852V5.46944C39.6056 5.09973 39.7525 4.74516 40.0139 4.48373C40.2753 4.22231 40.6299 4.07544 40.9996 4.07544C41.3693 4.07544 41.7239 4.22231 41.9853 4.48373C42.2467 4.74516 42.3936 5.09973 42.3936 5.46944V22.386C42.403 22.5834 42.371 22.7806 42.2997 22.9649C42.2284 23.1492 42.1194 23.3166 41.9797 23.4563C41.84 23.5961 41.6726 23.7051 41.4883 23.7763C41.304 23.8476 41.1068 23.8796 40.9094 23.8702C25.7476 23.8702 18.1708 42.435 28.8882 53.1606C39.6056 63.8862 57.8998 56.211 58.1622 41C58.16 40.8164 58.1946 40.6341 58.2638 40.464C58.3331 40.2939 58.4357 40.1393 58.5656 40.0094C58.6955 39.8795 58.85 39.7769 59.0202 39.7077C59.1903 39.6384 59.3725 39.6038 59.5562 39.606H76.4646C76.8452 39.606 77.2102 39.7572 77.4793 40.0263C77.7484 40.2955 77.8996 40.6604 77.8996 41.041C77.8996 41.4216 77.7484 41.7866 77.4793 42.0557C77.2102 42.3249 76.8452 42.476 76.4646 42.476H70.8886C70.7156 42.4691 70.5466 42.5291 70.4167 42.6437C70.2869 42.7583 70.2062 42.9185 70.1916 43.091C69.7391 49.3203 67.33 55.2474 63.3083 60.026C59.2866 64.8046 53.858 68.1905 47.7974 69.7C45.9688 70.1346 45.3374 67.3466 47.1824 66.912C52.5948 65.5663 57.4486 62.5565 61.0601 58.3066C64.6715 54.0567 66.8587 48.7808 67.3134 43.2222C67.3365 43.1204 67.3356 43.0146 67.3107 42.9131C67.2858 42.8117 67.2377 42.7175 67.17 42.6379C67.1024 42.5583 67.0171 42.4956 66.921 42.4547C66.8249 42.4138 66.7206 42.3958 66.6164 42.4022H61.5652C61.3957 42.4078 61.2333 42.4722 61.1061 42.5844C60.9789 42.6967 60.8948 42.8497 60.8682 43.0172V43.05ZM72.1596 19.8604L62.0818 29.8808C61.8356 30.1481 61.4937 30.3073 61.1306 30.3236H54.4148C54.2315 30.3397 54.0545 30.3987 53.8982 30.4958L41.959 42.5252C41.6905 42.7761 41.3353 42.9129 40.9679 42.9071C40.6005 42.9012 40.2498 42.7531 39.9895 42.4938C39.7292 42.2346 39.5796 41.8844 39.5722 41.5171C39.5648 41.1498 39.7003 40.7939 39.95 40.5244L51.8892 28.4868C51.9695 28.4466 52.0368 28.3844 52.0832 28.3075C52.1297 28.2306 52.1534 28.1421 52.1516 28.0522V21.32C52.1499 21.1261 52.1875 20.9338 52.2622 20.7548C52.3369 20.5758 52.4471 20.4138 52.5862 20.2786L62.6066 10.2664C62.8001 10.0573 63.0521 9.91119 63.3298 9.84727C63.6075 9.78335 63.898 9.80454 64.1635 9.90807C64.4289 10.0116 64.6571 10.1927 64.8182 10.4277C64.9793 10.6628 65.0658 10.9409 65.0666 11.2258V16.7198C65.0782 16.9009 65.1553 17.0715 65.2836 17.1998C65.4119 17.3281 65.5826 17.4052 65.7636 17.4168H71.1674C71.4556 17.4093 71.7395 17.4887 71.9819 17.6448C72.2243 17.8009 72.4141 18.0264 72.5265 18.2919C72.6389 18.5574 72.6687 18.8507 72.612 19.1334C72.5554 19.4161 72.4148 19.6752 72.2088 19.8768L72.1596 19.8604ZM60.6796 27.2404L66.518 21.402C66.6194 21.3083 66.6911 21.1869 66.7242 21.0528C66.7572 20.9187 66.7502 20.7779 66.7039 20.6477C66.6576 20.5176 66.5741 20.4039 66.4638 20.3208C66.3535 20.2377 66.2212 20.1888 66.0834 20.1802H63.6234C63.2426 20.1891 62.8735 20.048 62.5958 19.7872C62.3182 19.5264 62.1542 19.1669 62.1392 18.7862V16.4C62.1385 16.2588 62.0964 16.1209 62.0181 16.0034C61.9398 15.8859 61.8287 15.7939 61.6986 15.7389C61.5686 15.6839 61.4252 15.6683 61.2863 15.694C61.1475 15.7197 61.0192 15.7855 60.9174 15.8834L55.1774 21.7218C55.0242 21.8553 54.9299 22.044 54.915 22.2466V26.7812C54.9139 26.8731 54.9312 26.9642 54.9658 27.0493C55.0005 27.1343 55.0518 27.2116 55.1167 27.2765C55.1816 27.3415 55.2589 27.3928 55.344 27.4274C55.429 27.4621 55.5202 27.4793 55.612 27.4782H60.2286C60.409 27.4782 60.5812 27.4782 60.6632 27.2978L60.6796 27.2404ZM52.8404 41.0164C52.8437 43.361 52.1513 45.6538 50.8509 47.6047C49.5505 49.5556 47.7006 51.0769 45.5353 51.976C43.37 52.8751 40.9866 53.1116 38.6868 52.6556C36.387 52.1996 34.2742 51.0715 32.6158 49.4142C30.9574 47.757 29.8279 45.6449 29.3703 43.3455C28.9127 41.046 29.1476 38.6625 30.0452 36.4965C30.9427 34.3306 32.4627 32.4796 34.4127 31.1779C36.3627 29.8762 38.655 29.1822 40.9996 29.1838C41.3519 29.2108 41.681 29.3699 41.9211 29.6291C42.1613 29.8883 42.2947 30.2286 42.2947 30.5819C42.2947 30.9353 42.1613 31.2756 41.9211 31.5348C41.681 31.794 41.3519 31.953 40.9996 31.98C38.6074 31.98 36.3131 32.9304 34.6215 34.6219C32.9299 36.3135 31.9796 38.6078 31.9796 41C31.9796 43.3923 32.9299 45.6866 34.6215 47.3781C36.3131 49.0697 38.6074 50.02 40.9996 50.02C46.2312 50.02 49.7162 46.1004 49.9704 41C49.9622 40.8022 49.9948 40.6048 50.0662 40.4201C50.1376 40.2354 50.2462 40.0674 50.3853 39.9265C50.5244 39.7856 50.6911 39.6748 50.8748 39.601C51.0586 39.5273 51.2555 39.4921 51.4535 39.4978C51.6514 39.5034 51.846 39.5497 52.0253 39.6338C52.2046 39.7179 52.3646 39.838 52.4955 39.9866C52.6263 40.1352 52.7252 40.3091 52.786 40.4976C52.8467 40.686 52.868 40.885 52.8486 41.082L52.8404 41.0164Z" fill="#1F53F1"/>
</svg>
