<svg width="633" height="343" viewBox="0 0 633 343" fill="none" xmlns="http://www.w3.org/2000/svg">
<path d="M446.91 300.586C446.91 300.586 433.926 302.586 424.329 312.149C414.732 321.711 409 337.099 409 337.099L428.628 342.837C428.672 342.88 420.812 324.537 446.91 300.586Z" fill="#FAE0B2"/>
<path d="M450.514 310.018L449.125 298.934L439.224 293.805C438.095 293.24 438.138 291.588 439.267 291.067L449.342 286.285L451.122 275.288C451.339 274.027 452.859 273.549 453.771 274.506L461.414 282.634L472.444 280.939C473.704 280.765 474.615 282.069 474.007 283.199L468.623 292.979L473.617 302.933C474.181 304.063 473.226 305.367 471.967 305.15L461.023 303.064L453.077 310.931C452.208 311.844 450.688 311.322 450.514 310.018Z" fill="#F7CC7F"/>
<path d="M184.289 297.586C184.289 297.586 197.273 299.585 206.87 309.148C216.467 318.711 222.199 334.099 222.199 334.099L202.571 339.836C202.528 339.836 210.388 321.537 184.289 297.586Z" fill="#FAE0B2"/>
<path d="M180.686 307.018L182.076 295.934L191.977 290.805C193.106 290.24 193.062 288.588 191.933 288.067L181.859 283.285L180.078 272.288C179.861 271.027 178.298 270.549 177.429 271.506L169.786 279.634L158.756 277.939C157.497 277.765 156.585 279.069 157.193 280.199L162.578 289.979L157.584 299.933C157.019 301.063 157.975 302.367 159.234 302.15L170.177 300.064L178.124 307.931C178.993 308.801 180.512 308.279 180.686 307.018Z" fill="#F7CC7F"/>
<path d="M361.192 55.9482L365.013 49.4715L361.843 42.6471C361.496 41.8647 362.19 40.9954 363.016 41.2127L370.354 42.8645L375.869 37.7353C376.477 37.1702 377.52 37.5614 377.606 38.3873L378.301 45.9072L384.858 49.5585C385.597 49.9931 385.553 51.0798 384.772 51.4276L377.867 54.4268L376.391 61.8163C376.217 62.6422 375.175 62.9464 374.61 62.2944L369.616 56.6437L362.147 57.5565C361.365 57.6434 360.757 56.6871 361.192 55.9482Z" fill="#F79C8D"/>
<path d="M541.112 97.4639L530.994 104.201L536.683 114.068L526.999 121.154L531.255 131.238L524.871 137.715L528.171 140.931L536.683 132.238L532.644 122.718L542.719 115.329L537.16 105.636L546.323 99.5068L541.112 97.4639Z" fill="#F48C7F"/>
<path d="M556.657 260.423L549.492 250.556L539.939 256.598L532.426 247.209L522.568 251.904L515.838 245.775L512.711 249.209L521.743 257.38L531.123 252.947L538.896 262.727L548.32 256.772L554.79 265.683L556.657 260.423Z" fill="#F48C7F"/>
<path d="M221.107 56.4305L223.539 44.5204L212.596 41.5212L214.463 29.6545L204.389 25.4817L204.345 16.397H199.742L199.786 28.5679L209.383 32.5234L207.428 44.8682L218.155 47.8239L215.983 58.6039L221.107 56.4305Z" fill="#F48C7F"/>
<path d="M126.486 72.2959L131.133 80.9459L141.121 80.4243L145.637 90.4653L156.103 86.5967L161.704 97.7678L171.779 95.3771L178.901 105.244L175.166 107.939L169.825 100.593L159.186 103.071L153.844 92.3344L143.205 96.2899L138.211 85.2057L128.484 85.7273L124.185 77.6859L117.845 79.4246L116.629 74.9474L126.486 72.2959Z" fill="#F7CC7F"/>
<path d="M476.015 47.1352L466.457 49.3846L464.376 59.1671L453.508 60.9306L454.536 72.0408L442.296 74.5605L441.998 84.9106L430.624 89.2359L428.987 84.9311L437.465 81.673L437.826 70.7551L449.579 68.3746L448.511 57.0741L460.511 55.1192L462.524 45.5884L471.404 43.517L471.366 36.943L476.005 36.9273L476.015 47.1352Z" fill="#F7CC7F"/>
<path d="M145.4 161.691L138.018 162.43L135.499 150.693L124.599 150.476L121.299 142L117 143.652L121.429 154.997L131.765 155.214L134.37 167.428L145.487 166.298L145.4 161.691Z" fill="#50BFA5"/>
<path d="M70.1618 267.987L67.3826 274.854L55.8315 271.638L50.5336 281.201L41.5011 280.244L41.0234 284.808L53.0957 286.156L58.0896 277.071L70.1184 280.418L74.2872 270.073L70.1618 267.987Z" fill="#50BFA5"/>
<path d="M34.718 205.715C42.8819 213.583 43.1859 226.58 35.3259 234.752C27.4659 242.924 14.4818 243.228 6.31782 235.36C-1.84614 227.493 -2.15012 214.496 5.70987 206.324C13.5264 198.152 26.5106 197.848 34.718 205.715Z" fill="#FFF3D9"/>
<path d="M34.2383 222.885L25.5099 225.58L22.7741 234.317C22.5569 235.012 21.6016 235.186 21.2107 234.578L15.9563 227.101L6.83697 227.188C6.09874 227.188 5.66449 226.362 6.09874 225.754L11.5703 218.451L8.66083 209.758C8.44371 209.062 9.09509 208.41 9.78989 208.628L18.4315 211.583L25.7704 206.15C26.3784 205.715 27.2034 206.15 27.2034 206.889L27.0732 216.017L34.4989 221.32C35.1068 221.755 34.9766 222.668 34.2383 222.885Z" fill="#FED333"/>
<path d="M626.007 225.171C634.171 233.039 634.475 246.036 626.615 254.207C618.755 262.379 605.771 262.684 597.607 254.816C589.443 246.948 589.139 233.952 596.999 225.78C604.859 217.608 617.843 217.304 626.007 225.171Z" fill="#FFF3D9"/>
<path d="M625.574 242.341L616.846 245.036L614.11 253.773C613.893 254.468 612.938 254.642 612.547 254.033L607.292 246.557L598.173 246.644C597.435 246.644 597 245.818 597.435 245.21L602.906 237.907L599.997 229.214C599.78 228.518 600.431 227.866 601.126 228.083L609.767 231.039L617.106 225.606C617.714 225.171 618.539 225.606 618.539 226.345L618.409 235.473L625.835 240.776C626.443 241.211 626.269 242.123 625.574 242.341Z" fill="#FED333"/>
<path d="M533.38 199.395L536.984 205.35C537.375 206.002 538.33 205.915 538.591 205.22L541.153 198.743L547.927 197.178C548.665 197.004 548.882 196.048 548.318 195.57L542.933 191.136L543.541 184.181C543.628 183.442 542.803 182.921 542.151 183.356L536.289 187.094L529.862 184.399C529.167 184.094 528.429 184.746 528.646 185.485L530.383 192.223L525.823 197.482C525.346 198.048 525.693 198.96 526.475 199.004L533.38 199.395Z" fill="#F47458"/>
<path d="M121.032 219.173C121.032 221.477 119.035 223.346 116.516 223.346C114.041 223.346 112 221.477 112 219.173C112 216.869 113.998 215 116.516 215C119.035 215.043 121.032 216.913 121.032 219.173Z" fill="#50BFA5"/>
<path d="M269.659 10.7462L275.131 11.8329C275.131 11.8329 283.121 8.09469 283.729 6.31252C284.337 4.53036 284.076 0.35748 285.205 0.0966753C286.378 -0.164129 288.723 -0.0771946 289.591 2.70472C290.243 4.70423 287.984 10.9635 288.549 11.5721C288.896 11.9198 292.023 12.6588 294.281 13.1369C295.801 13.4412 296.973 14.6148 297.408 16.0927C297.668 17.0925 297.234 18.1791 296.322 18.7007L294.889 19.4832L295.584 21.0045C296.105 22.1347 295.627 23.4387 294.498 23.9603L293.369 24.4819L293.847 25.3947C294.498 26.5684 293.977 28.0462 292.761 28.5679L291.762 29.0025L291.849 29.2633C292.153 30.3935 291.589 31.5671 290.547 32.0018L289.548 32.393L275 29.5241C273.654 29.2633 272.351 28.6983 271.222 27.9158L266.272 26.0467C265.751 25.8294 265.447 25.2643 265.577 24.6993L268.356 11.7894C268.443 11.0505 269.008 10.6158 269.659 10.7462Z" fill="#96D9C9"/>
<g clip-path="url(#clip0_1181_3320)">
<path d="M455.1 188.3C450.9 182.3 445.4 179.4 442.3 180.8C438.2 182.7 439.3 191.8 440.2 195.8C442.3 205.2 450.3 216 457.3 215C468 213.6 474.3 184.2 467.9 179.8C465.8 178.4 461.9 179.1 459.3 180.9C455.9 183.3 455.2 187.4 455.1 188.3Z" fill="#EB5757"/>
<path d="M430.499 176.2C432.199 177.3 433.599 178.7 435.299 179.7C436.699 180.5 438.299 181.1 439.599 182C440.399 182.6 441.199 181.2 440.399 180.6C439.099 179.7 437.499 179.1 436.099 178.3C434.399 177.3 432.999 175.9 431.299 174.8C430.499 174.2 429.699 175.6 430.499 176.2Z" fill="#EB5757"/>
<path d="M440.198 174.8C440.398 175.7 440.698 176.5 440.798 177.4C440.798 177.8 441.098 178.2 441.598 178.2C441.998 178.2 442.398 177.8 442.398 177.4C442.298 176.4 441.898 175.4 441.698 174.4C441.498 173.3 439.998 173.8 440.198 174.8Z" fill="#EB5757"/>
<path d="M444.598 174.6C444.598 176 444.198 177.3 444.098 178.7C444.098 179.7 445.698 179.7 445.698 178.7C445.798 177.3 446.198 176 446.198 174.6C446.198 173.6 444.598 173.6 444.598 174.6Z" fill="#EB5757"/>
<path d="M450.101 172.5C449.801 174.4 449.601 176.2 449.501 178.1C449.401 179.1 451.001 179.1 451.101 178.1C451.201 176.3 451.401 174.6 451.701 172.9C451.801 171.9 450.301 171.5 450.101 172.5Z" fill="#EB5757"/>
<path d="M426.599 188.2C429.799 188.7 433.099 188.6 436.299 189C437.299 189.1 437.699 187.6 436.699 187.5C433.499 187 430.199 187.2 426.999 186.7C425.999 186.5 425.599 188.1 426.599 188.2Z" fill="#EB5757"/>
<path d="M429.697 217.2C431.197 216.7 432.497 215.5 433.697 214.5C435.197 213.2 436.897 211.8 437.997 210.1C438.597 209.2 437.197 208.4 436.597 209.3C435.597 210.7 434.197 211.8 432.897 213C431.897 213.9 430.597 215.2 429.197 215.6C428.297 216 428.797 217.5 429.697 217.2Z" fill="#EB5757"/>
<path d="M442.1 211.2C441 212.4 440.2 214 439.7 215.5C439.4 216.5 440.9 216.9 441.2 215.9C441.6 214.7 442.3 213.3 443.2 212.3C443.9 211.6 442.8 210.4 442.1 211.2Z" fill="#EB5757"/>
<path d="M444.599 216C444.299 216.7 443.999 217.3 443.799 218.1C443.499 219.1 445.099 219.5 445.299 218.5C445.499 217.9 445.699 217.4 445.999 216.8C446.499 215.9 445.099 215 444.599 216Z" fill="#EB5757"/>
<path d="M434.898 200.4C432.398 200.4 429.898 200.5 427.398 200.6C426.398 200.6 426.398 202.2 427.398 202.2C429.998 202.1 432.398 202 434.898 202C435.998 202 435.998 200.4 434.898 200.4Z" fill="#EB5757"/>
<path d="M472.699 184.4C474.299 184.3 475.699 183.6 477.299 183.1C479.099 182.4 480.999 182.2 482.999 181.9C483.999 181.8 483.599 180.2 482.599 180.4C480.899 180.6 479.199 180.8 477.599 181.4C475.999 181.9 474.499 182.8 472.799 182.9C471.699 182.9 471.699 184.5 472.699 184.4Z" fill="#EB5757"/>
<path d="M473.997 188.3C474.397 188.3 474.897 188.5 475.297 188.6C475.797 188.7 476.397 188.8 476.897 188.8C477.897 188.9 477.897 187.3 476.897 187.2C476.397 187.1 475.797 187.1 475.297 187C474.897 186.9 474.497 186.7 473.997 186.7C472.897 186.8 472.897 188.4 473.997 188.3Z" fill="#EB5757"/>
<path d="M473.597 192.6C473.997 192.6 474.697 193.1 475.097 193.2C475.897 193.5 476.597 193.8 477.397 194.1C478.397 194.5 478.797 192.9 477.797 192.6C476.897 192.2 475.997 191.9 475.097 191.5C474.597 191.3 474.197 191 473.697 191C472.597 191 472.597 192.6 473.597 192.6Z" fill="#EB5757"/>
<path d="M468.5 206.6C472.9 209.5 477.2 212.1 482.3 213.6C483.3 213.9 483.7 212.4 482.7 212.1C477.7 210.6 473.6 208.1 469.3 205.2C468.4 204.6 467.6 206 468.5 206.6Z" fill="#EB5757"/>
<path d="M467.899 210.8C468.699 211.9 469.599 213 470.399 214.1C470.999 214.9 472.399 214.1 471.799 213.3C470.999 212.2 469.999 211.2 469.199 210C468.599 209.2 467.199 210 467.899 210.8Z" fill="#EB5757"/>
<path d="M466.599 214.6C467.199 215.9 467.399 217.4 467.699 218.8C467.899 219.8 469.499 219.4 469.199 218.4C468.899 216.9 468.599 215.3 467.899 213.9C467.599 212.9 466.199 213.7 466.599 214.6Z" fill="#EB5757"/>
<path d="M453.201 218.6C452.801 220.2 452.301 221.9 451.901 223.5C451.601 224.5 453.201 224.9 453.401 223.9C453.901 222.3 454.401 220.7 454.701 219C455.001 218.1 453.401 217.6 453.201 218.6Z" fill="#EB5757"/>
<path d="M456.297 220C456.197 224.2 457.897 228.7 459.397 232.6C459.797 233.6 461.297 233.1 460.897 232.2C459.497 228.5 457.697 224.1 457.897 220.1C457.897 219 456.297 219 456.297 220Z" fill="#EB5757"/>
<path d="M461.2 178.2C462.4 175.2 462.7 171.5 462.8 168.3C462.9 167.3 461.3 167.3 461.2 168.3C461 171.4 460.8 174.9 459.6 177.8C459.3 178.8 460.9 179.2 461.2 178.2Z" fill="#EB5757"/>
<path d="M465.797 176.3C467.997 171.1 470.697 166.3 474.797 162.4C475.497 161.7 474.397 160.5 473.697 161.3C469.497 165.3 466.797 170.3 464.497 175.6C463.997 176.4 465.397 177.2 465.797 176.3Z" fill="#EB5757"/>
</g>
<g clip-path="url(#clip1_1181_3320)">
<path d="M278.636 95.9141C273.622 104.219 270.961 113.55 260.114 122.368C257.863 124.214 253.565 125.137 249.983 129.443C245.89 134.365 247.22 137.236 243.434 141.337C238.829 146.362 235.145 144.106 230.233 148.72C225.935 152.719 222.762 159.999 224.297 166.151C226.549 175.174 237.601 176.507 237.294 182.044C236.987 187.991 223.069 188.196 220.613 195.681C217.543 203.679 227.674 215.881 237.601 222.956C259.398 238.234 274.031 224.597 310.359 237.516C326.016 243.053 331.235 248.385 339.422 245.514C352.93 240.797 357.33 220.085 359.786 208.909C365.619 181.634 355.795 175.379 363.47 151.181C367.154 139.902 370.633 136.826 370.838 126.982C370.94 111.705 362.754 100.221 358.865 95.2989C351.804 86.0706 339.115 69.5624 320.081 69.2548C301.866 68.7421 285.799 84.3275 278.636 95.9141Z" fill="#1E1C2A"/>
<path d="M383.324 191.272C339.935 190.965 296.443 190.862 253.156 190.555C255.715 178.968 260.32 166.664 270.041 163.485C278.432 160.614 285.186 166.971 292.554 163.485C297.773 160.922 302.992 153.949 303.913 134.467C304.527 134.467 305.244 134.365 305.858 134.365C309.849 134.057 313.84 133.75 317.831 133.647C321.822 133.955 325.813 134.262 329.804 134.365C330.418 134.365 331.134 134.467 331.748 134.467C332.362 147.284 335.125 159.999 343.107 163.383C350.577 166.561 357.229 159.384 365.723 162.05C372.17 163.998 378.923 171.175 383.324 191.272Z" fill="#FFBE8F"/>
<path d="M329.394 140.62C329.394 146.259 324.175 150.976 317.728 150.976C311.281 150.976 306.062 146.362 306.062 140.62C306.062 134.98 311.281 130.263 317.728 130.263C324.278 130.263 329.394 134.98 329.394 140.62Z" fill="#1E1C2A"/>
<path d="M317.828 70.9978C315.27 70.9978 313.121 71.1003 310.972 71.3054C299.408 72.7409 290.812 82.3793 290.812 93.9658V117.344C291.426 120.215 293.882 130.161 303.092 137.338C308.414 141.44 313.94 142.978 317.01 143.491C317.112 143.491 317.419 143.491 317.624 143.491C317.726 143.491 318.033 143.491 318.238 143.491C321.41 142.875 326.834 141.542 332.155 137.338C341.365 130.264 343.821 120.215 344.435 117.344V93.7607C344.435 82.2767 335.839 72.5358 324.378 71.1003C322.433 70.9978 320.08 70.8953 317.828 70.9978Z" fill="#FFBE8F"/>
<path d="M295.727 109.551C295.727 114.268 292.964 118.164 289.485 118.164C286.005 118.164 283.242 114.37 283.242 109.551C283.242 104.835 286.005 100.938 289.485 100.938C292.861 101.041 295.727 104.835 295.727 109.551Z" fill="#FFBE8F"/>
<path d="M352.215 109.551C352.215 114.268 349.452 118.164 345.973 118.164C342.493 118.164 339.73 114.268 339.73 109.551C339.73 104.835 342.493 100.938 345.973 100.938C349.452 100.938 352.215 104.835 352.215 109.551Z" fill="#FFBE8F"/>
<path d="M315.066 120.318C315.987 119.907 316.908 119.702 317.829 119.702C318.75 119.702 319.671 119.805 320.592 120.318C319.671 120.728 318.75 120.933 317.829 120.933C316.908 120.933 315.987 120.728 315.066 120.318Z" fill="#1E1C2A"/>
<path d="M356.717 188.401C357.024 188.401 357.638 188.401 358.252 188.812C358.968 189.427 359.275 190.657 358.866 191.683C329.803 191.683 300.638 191.683 271.576 191.683C271.269 190.76 271.473 189.734 272.19 189.222C272.906 188.606 273.827 188.812 273.827 188.812C285.493 185.735 294.498 185.941 300.638 186.556C305.653 186.966 307.085 187.786 312.611 188.094C322.537 188.504 326.835 186.761 334.92 186.146C339.832 185.735 347.404 185.941 356.717 188.401Z" fill="white"/>
<path d="M312.406 170.252C313.634 171.79 315.579 172.508 317.421 172.098C319.979 171.483 321.105 169.227 321.105 168.919L312.406 170.252Z" fill="#1E1C2A"/>
<path d="M321.82 174.867C322.434 175.174 323.458 175.584 324.686 175.892C328.779 177.122 332.361 176.917 334.817 176.61C343.72 175.892 351.804 174.662 354.567 174.149C348.325 174.251 341.878 174.559 335.533 174.764H321.82V174.867Z" fill="#1E1C2A"/>
<path d="M313.633 174.867C313.019 175.174 311.996 175.584 310.768 175.892C306.675 177.122 303.093 176.917 300.637 176.61C291.734 175.892 283.65 174.662 280.887 174.149C287.129 174.251 293.576 174.559 299.921 174.764H313.633V174.867Z" fill="#1E1C2A"/>
<path d="M272.192 304.164C277.206 295.551 282.732 288.886 287.644 283.555C286.723 278.838 285.802 273.916 284.881 269.2C284.881 268.892 284.779 268.584 284.779 268.277C282.527 256.69 280.378 245.001 278.025 233.415C276.797 232.799 275.569 232.082 274.545 231.159C274.136 230.851 273.624 230.441 273.215 229.928C273.113 229.826 272.908 229.621 272.806 229.518C272.703 229.416 272.499 229.211 272.396 228.903C271.475 227.98 270.861 226.955 270.145 225.827C269.429 224.596 268.917 223.263 268.508 221.828C268.098 220.29 267.791 218.649 267.791 216.906C267.791 212.19 269.633 207.883 272.703 204.499C272.396 203.269 272.294 202.039 271.987 200.808C271.885 200.193 271.68 199.578 271.68 198.962C271.373 197.014 270.964 194.964 270.452 193.015C270.35 192.4 270.35 191.99 270.145 191.375C270.247 191.272 270.452 190.965 270.759 190.76C272.908 188.299 275.978 185.53 279.969 183.377C280.378 183.069 280.89 182.967 281.299 182.659C282.016 182.249 282.834 181.942 283.551 181.634C284.165 181.326 284.574 181.224 285.188 181.019C287.644 180.096 290.1 179.686 292.556 179.378C294.398 179.071 296.24 179.071 298.082 179.071C299.924 179.071 301.766 179.173 303.403 179.481C310.259 180.506 315.683 182.967 317.218 183.582C318.548 182.967 323.665 180.506 330.419 179.481C331.647 179.378 332.875 179.173 334.103 179.071C336.559 178.968 339.117 178.968 341.778 179.173C345.257 179.583 349.146 180.506 352.83 182.352C354.365 183.069 355.695 183.89 356.923 184.813C357.844 185.428 358.765 186.145 359.686 186.966C360.607 187.684 361.324 188.504 362.142 189.222C362.756 189.837 363.166 190.452 363.677 190.862C363.677 190.862 363.677 190.862 363.78 190.965C363.473 192.195 363.37 193.22 363.166 194.451C362.552 197.63 361.938 200.911 361.324 204.192C362.245 205.115 362.859 206.14 363.575 207.268C365.212 210.036 366.133 213.215 366.133 216.599C366.133 220.29 365.11 223.776 362.961 226.647C362.859 226.955 362.552 227.262 362.347 227.57C361.631 228.595 360.71 229.518 359.789 230.338C359.584 230.441 359.584 230.441 359.482 230.646C359.175 230.954 358.868 231.056 358.765 231.261C357.844 231.876 356.923 232.492 355.9 233.107C353.649 245.309 351.193 257.613 348.839 269.815C348.737 270.738 348.532 271.66 348.225 272.583C347.509 276.069 346.895 279.761 346.076 283.247C350.988 288.476 356.514 295.346 361.528 303.857C369.613 317.801 373.297 331.131 375.036 341.692H258.684C260.423 331.439 264.21 318.109 272.192 304.164Z" fill="#FFBE8F"/>
<path d="M317.32 136.211C315.683 136.211 314.25 135.903 312.92 135.288C312.613 135.185 312.51 134.672 312.613 134.365C312.715 134.057 313.227 133.955 313.534 134.057C314.557 134.467 315.785 134.775 317.013 134.775C318.855 134.775 320.083 134.365 320.799 134.057C321.106 133.955 321.516 134.057 321.72 134.365C321.823 134.672 321.72 135.083 321.413 135.288C320.595 135.698 319.162 136.211 317.32 136.211Z" fill="#1E1C2A"/>
<path d="M316.398 132.007C311.179 132.007 307.392 129.443 305.96 128.315C305.653 128.008 305.653 127.598 305.857 127.29C306.164 126.982 306.574 126.982 306.881 127.187C308.211 128.213 312.202 130.981 317.626 130.571C321.617 130.263 324.482 128.418 325.915 127.392C326.222 127.085 326.631 127.29 326.938 127.495C327.245 127.7 327.143 128.213 326.733 128.52C325.198 129.751 322.128 131.699 317.728 132.007C317.319 132.007 316.909 132.007 316.398 132.007Z" fill="#1E1C2A"/>
<path d="M325.299 128.11C324.992 128.52 321.82 132.417 316.703 132.109C313.326 132.007 311.177 130.264 310.461 129.546C311.791 128.828 314.145 127.905 317.01 127.393C320.694 126.982 323.662 127.598 325.299 128.11Z" fill="white"/>
<path d="M307.394 107.09C307.394 108.731 305.859 110.167 303.914 110.269C301.97 110.269 300.435 109.039 300.23 107.398C300.23 105.758 301.765 104.322 303.71 104.219C305.859 104.219 307.394 105.45 307.394 107.09Z" fill="#1E1C2A"/>
<path d="M309.645 109.551C309.338 109.551 309.236 109.449 309.031 109.244C308.315 107.911 307.189 106.988 305.961 106.168C302.891 104.527 298.798 104.937 295.114 107.501C294.807 107.603 294.398 107.603 294.091 107.398C293.988 107.09 293.988 106.68 294.193 106.373C298.184 103.502 303.096 102.989 306.575 105.04C307.906 105.758 309.338 106.988 310.259 108.526C310.362 108.834 310.362 109.244 309.952 109.551C309.952 109.551 309.85 109.551 309.645 109.551Z" fill="#1E1C2A"/>
<path d="M326.527 107.09C326.527 108.731 328.062 110.167 330.007 110.269C331.951 110.269 333.486 109.039 333.691 107.398C333.691 105.758 332.156 104.322 330.211 104.219C328.165 104.219 326.527 105.45 326.527 107.09Z" fill="#1E1C2A"/>
<path d="M324.276 109.551C323.559 109.244 323.559 108.834 323.662 108.526C324.583 106.988 325.811 105.757 327.346 105.04C330.825 103.092 335.635 103.707 339.728 106.373C340.035 106.475 340.137 106.988 339.933 107.398C339.626 107.706 339.216 107.808 338.909 107.501C335.225 104.937 331.132 104.425 328.062 106.168C326.834 106.783 325.811 107.808 324.992 109.244C324.89 109.449 324.583 109.551 324.276 109.551Z" fill="#1E1C2A"/>
<path d="M341.061 94.6837C338.809 94.0685 335.432 93.4533 331.544 93.4533C328.167 93.4533 325.301 93.8634 323.152 94.3761C323.152 93.9659 323.255 93.4533 323.459 92.838C323.766 91.5051 324.483 90.5823 325.097 89.967C327.86 89.967 330.009 90.0696 331.646 90.3772C335.637 90.7873 336.66 91.0949 337.274 91.6076C339.219 92.4279 340.447 93.7609 341.061 94.6837Z" fill="#1E1C2A"/>
<path d="M323.459 89.6594C323.152 90.0696 322.845 90.6848 322.743 91.5051C322.333 92.838 322.333 94.2735 322.436 94.2735C322.64 94.2735 323.05 92.7355 323.152 92.3254C323.254 91.6076 323.459 90.9924 323.868 90.1721C323.971 90.0696 323.971 89.8645 324.175 89.762H323.459V89.6594Z" fill="#1E1C2A"/>
<path d="M291.633 96.5291C293.884 95.8114 297.159 94.9911 301.15 94.8885C304.527 94.786 307.392 94.9911 309.541 95.2987C309.541 94.8885 309.439 94.3759 309.234 93.7607C308.825 92.4277 308.006 91.5049 307.392 90.8896C304.834 90.9922 302.48 91.2998 300.843 91.5049C296.852 92.1201 295.828 92.5302 295.214 92.8378C293.27 94.0683 292.247 95.6063 291.633 96.5291Z" fill="#1E1C2A"/>
<path d="M308.928 90.8896C309.235 91.2998 309.542 91.8125 309.849 92.5302C310.258 93.8632 310.463 95.2987 310.258 95.2987C310.156 95.2987 309.542 93.7606 309.337 93.3505C309.03 92.6328 308.928 92.0175 308.416 91.1973C308.314 91.0947 308.109 90.8896 308.109 90.7871L308.928 90.8896Z" fill="#1E1C2A"/>
<path d="M326.121 127.905C326.735 128.52 323.051 135.083 317.525 135.288C312.817 135.39 309.133 130.571 309.543 129.751C309.85 129.136 312.92 131.391 317.525 131.084C322.744 130.674 325.609 127.29 326.121 127.905Z" fill="#E56565"/>
<path d="M376.263 342H256.738C262.878 318.93 272.191 298.217 282.731 280.068C282.833 279.043 283.14 277.3 283.652 275.147C284.061 272.993 284.573 271.045 284.88 269.2C284.88 268.892 284.982 268.482 285.187 268.174C285.596 266.329 285.903 264.996 286.108 264.483C289.28 254.845 332.362 245.616 346.177 266.021C346.894 267.046 347.712 268.277 348.326 270.02C348.633 270.738 348.94 271.558 349.247 272.481C349.964 275.044 350.475 278.428 350.475 282.427C358.764 295.551 368.384 313.905 375.138 337.078C375.342 338.616 375.854 340.257 376.263 342Z" fill="#11957D"/>
<path d="M369.61 227.262C369.507 233.517 368.382 262.945 351.701 271.353C341.775 276.582 336.352 268.789 309.643 267.251C285.083 265.713 280.375 271.66 272.393 266.328C264.104 260.689 263.797 243.258 263.183 208.191C262.876 193.938 263.183 172.201 272.496 167.689C273.417 167.176 273.928 167.176 277.817 165.741C283.855 163.382 288.05 161.844 290.609 160.204C291.325 159.794 291.837 159.384 292.348 158.871C292.758 158.461 293.167 158.051 293.474 157.538C295.623 154.359 293.986 155.692 295.725 154.667C295.828 154.564 296.032 154.462 296.237 154.359C296.749 154.052 296.851 153.847 296.749 153.539C296.953 153.539 297.056 153.642 297.26 153.642C297.977 154.052 299 154.564 300.74 155.282C304.833 157.128 308.722 160.717 311.587 163.895C314.35 166.971 316.09 169.637 316.09 169.637C316.09 169.637 326.835 153.539 334.1 153.949C334.612 153.949 335.124 154.052 335.533 154.257C335.84 154.359 336.147 154.564 336.454 154.667C342.082 157.025 335.942 153.949 339.524 158.051C339.729 158.256 339.933 158.563 340.24 158.768C340.752 159.281 341.366 159.794 341.878 160.101C346.789 163.177 352.827 160.819 357.944 164.51C364.084 168.919 362.549 177.225 364.493 197.117C366.949 218.444 369.712 216.188 369.61 227.262Z" fill="#1F53F1"/>
<path d="M309.54 129.648C309.233 128.93 312.405 125.649 316.601 125.034C321.308 124.316 326.118 126.88 325.913 127.803C325.811 128.52 322.741 127.803 315.987 128.828C311.484 129.443 309.642 130.263 309.54 129.648Z" fill="#E56565"/>
<path d="M300.639 65.0506C293.476 67.8191 282.117 75.4067 282.731 85.6603C283.038 89.6592 287.95 90.8896 288.257 96.2215C288.359 99.0925 287.234 99.9128 287.95 101.143C289.792 104.322 301.867 103.296 311.793 97.657C321.72 92.0175 323.766 85.1476 331.237 85.1476C332.465 85.1476 334.921 85.5578 339.935 86.4806C347.61 88.0186 348.531 89.044 350.373 88.4288C357.332 86.2755 360.197 68.1267 355.183 65.0506C353.034 63.7176 350.885 66.3836 343.721 67.5115C338.502 68.4343 334.818 67.8191 329.292 66.8963C318.854 65.1531 316.705 62.5897 309.338 63.1024C307.803 63.205 304.528 63.5126 300.639 65.0506Z" fill="#1E1C2A"/>
<path d="M293.577 209.319C294.601 208.293 296.136 207.165 298.08 206.038C300.024 205.012 301.866 204.397 303.299 204.089C306.471 204.807 309.541 205.525 312.714 206.448C313.328 207.165 317.626 211.472 316.807 214.343C316.705 214.548 316.5 214.958 316.295 215.163C314.965 215.676 312.509 212.292 311.383 210.754C309.132 210.754 307.085 210.754 304.834 210.857C304.015 211.369 302.992 212.087 301.969 213.01C300.741 214.343 299.922 215.573 299.308 216.701C299.206 217.829 299.103 219.982 300.331 222.033C300.536 222.443 301.15 223.469 302.583 224.699C307.29 228.288 312.202 225.212 315.067 228.39C316.705 230.133 317.012 233.004 316.295 233.517C315.988 233.825 315.374 233.415 314.658 233.21C311.997 232.287 309.848 233.107 308.825 233.21C303.504 234.03 302.787 232.799 296.545 233.825C294.601 234.132 292.963 234.542 291.94 234.748C291.531 233.415 290.814 231.671 289.791 229.928C288.461 227.775 287.028 226.135 285.902 225.109C286.107 223.776 286.619 222.033 287.744 220.085C288.563 218.752 289.279 217.932 289.893 217.316C291.121 215.573 292.656 213.215 293.577 209.319Z" fill="#FFBE8F"/>
<path d="M343.517 216.804C344.131 217.522 344.847 218.239 345.666 219.675C346.792 221.623 347.303 223.469 347.508 224.699C346.382 225.724 344.847 227.365 343.517 229.416C342.391 231.159 341.675 232.902 341.266 234.235C340.242 233.927 338.605 233.517 336.558 233.21C330.316 232.184 329.6 233.312 324.176 232.492C323.153 232.287 321.004 231.466 318.343 232.389C317.525 232.594 316.911 233.004 316.706 232.697C315.99 232.184 316.399 229.313 318.036 227.57C321.004 224.391 325.916 227.57 330.725 224.084C332.158 222.956 332.874 221.931 333.079 221.52C334.409 219.47 334.307 217.316 334.205 216.189C333.693 215.061 332.874 213.83 331.646 212.497C330.623 211.472 329.702 210.857 328.781 210.241C326.53 210.036 324.381 210.036 322.129 210.036C321.004 211.677 318.446 214.958 317.115 214.445C316.808 214.24 316.706 213.83 316.604 213.625C315.785 210.754 320.185 206.55 320.799 205.832C324.074 205.012 327.144 204.294 330.316 203.577C331.749 203.884 333.488 204.499 335.535 205.627C337.479 206.755 339.014 207.986 340.038 208.909C340.754 212.907 342.187 215.266 343.517 216.804Z" fill="#FFBE8F"/>
<path d="M229.824 197.629C231.462 200.603 233.713 203.884 236.783 206.96C248.653 218.957 264.31 220.495 269.939 220.7L266.971 190.657L240.876 185.223C237.192 189.324 233.508 193.528 229.824 197.629Z" fill="#083796"/>
<path d="M237.703 248.59C232.791 242.95 228.084 237.311 223.172 231.774C229.414 217.521 238.215 201.321 250.29 184.812C255.202 178.045 260.114 171.995 265.026 166.253C271.166 165.023 277.408 166.869 281.297 171.278C284.981 175.584 285.083 180.814 285.083 182.147C269.222 204.294 253.462 226.442 237.703 248.59Z" fill="#FFBE8F"/>
<path d="M261.446 226.34C254.897 226.135 250.496 225.622 240.57 225.519C238.83 225.519 234.839 226.442 229.723 227.468C229.006 227.57 224.504 228.595 222.559 232.492C220.41 236.901 222.252 243.361 227.881 247.052C229.211 247.872 231.565 249.205 234.635 249.82C241.184 251.051 246.608 248.385 248.654 247.462C255.818 244.181 269.53 239.977 293.067 234.337C293.271 233.312 293.374 231.979 293.169 230.646C292.657 225.314 289.28 221.931 287.95 220.7C287.643 220.905 287.234 221.213 286.722 221.623C281.606 225.109 275.363 226.75 261.446 226.34Z" fill="#FFBE8F"/>
<path d="M273.418 218.855L271.985 219.675L271.064 220.188L269.939 220.803C259.296 204.807 229.824 197.732 229.824 197.732L230.541 196.399L231.052 195.476L232.587 192.81L238.113 189.632H247.323L265.538 198.963L273.418 218.855Z" fill="#0D3FBA"/>
<path d="M274.235 220.7C273.825 219.47 273.211 218.239 272.597 217.111C260.829 195.579 231.152 192.503 231.152 192.503C237.906 181.737 247.321 171.893 258.271 165.536C262.262 163.28 279.965 152.821 290.403 159.999C295.724 163.69 296.952 170.663 297.464 174.046C299.408 187.684 291.324 200.501 274.235 220.7Z" fill="#1F53F1"/>
<path d="M271.984 219.675L271.063 220.187C258.681 202.654 236.27 197.425 230.539 196.399L231.051 195.476C237.498 196.604 259.602 202.039 271.984 219.675Z" fill="white"/>
<path d="M229.926 227.467C229.926 227.467 238.317 225.212 264.412 226.339Z" fill="#1E1C2A"/>
<path d="M404.915 197.629C403.278 200.603 401.027 203.884 397.957 206.96C386.086 218.957 370.429 220.495 364.801 220.7L367.768 190.657L393.863 185.223C397.547 189.324 401.231 193.528 404.915 197.629Z" fill="#083796"/>
<path d="M349.656 182.249C349.656 180.916 349.759 175.687 353.443 171.38C357.229 166.971 363.574 165.126 369.714 166.356C374.626 171.995 379.537 178.148 384.449 184.915C396.525 201.423 405.325 217.624 411.568 231.876C406.656 237.413 401.948 243.053 397.036 248.692C381.277 226.442 365.416 204.294 349.656 182.249Z" fill="#FFBE8F"/>
<path d="M347.406 221.52C346.894 221.11 346.485 220.803 346.178 220.598C344.847 221.828 341.368 225.314 340.856 230.544C340.754 231.979 340.754 233.21 340.959 234.235C364.7 239.874 378.617 244.078 385.78 247.36C387.827 248.282 393.353 250.948 399.902 249.718C402.972 249.103 405.326 247.872 406.759 246.949C412.387 243.361 414.331 236.798 412.08 232.389C410.136 228.493 405.531 227.468 404.814 227.365C399.595 226.34 395.604 225.417 393.865 225.417C383.938 225.519 379.436 226.032 372.784 226.237C358.765 226.75 352.522 225.109 347.406 221.52Z" fill="#FFBE8F"/>
<path d="M361.219 218.855L362.651 219.675L363.572 220.188L364.698 220.803C375.341 204.807 404.813 197.732 404.813 197.732L404.199 196.297L403.687 195.374L402.152 192.708L396.626 189.529H387.416L369.201 198.86L361.219 218.855Z" fill="#0D3FBA"/>
<path d="M360.502 220.7C360.911 219.47 361.525 218.239 362.139 217.111C373.907 195.579 403.584 192.503 403.584 192.503C396.83 181.737 387.415 171.893 376.465 165.536C372.474 163.28 354.771 152.821 344.333 159.999C339.012 163.69 337.784 170.663 337.272 174.046C335.328 187.684 343.412 200.501 360.502 220.7Z" fill="#1F53F1"/>
<path d="M362.754 219.675L363.675 220.187C376.057 202.654 398.468 197.425 404.199 196.399L403.687 195.476C397.24 196.604 375.136 202.039 362.754 219.675Z" fill="white"/>
<path d="M404.713 227.467C404.713 227.467 396.321 225.212 370.227 226.339Z" fill="#1E1C2A"/>
<path d="M343.31 191.375C343.31 191.58 343.208 191.682 343.208 191.785C343.106 192.195 342.799 192.503 342.696 192.503C342.594 192.605 342.492 192.605 342.389 192.708C342.185 192.81 341.98 192.913 341.775 192.913C341.673 192.913 341.571 192.913 341.366 193.015C341.264 193.015 341.161 193.118 341.161 193.22C341.161 193.426 341.059 193.631 340.854 193.836C340.65 194.041 340.547 194.246 340.24 194.348C339.933 194.451 339.626 194.553 339.319 194.553C338.808 194.553 338.398 194.451 337.989 194.041C337.784 193.836 337.58 193.631 337.375 193.425C337.17 193.118 336.863 192.913 336.659 192.605C336.454 192.4 336.147 192.093 335.942 191.785C336.045 191.58 336.249 191.477 336.454 191.477C336.863 191.375 337.17 191.58 337.375 191.887C337.784 192.298 338.194 192.708 338.603 193.22C338.808 193.426 339.012 193.528 339.217 193.528C339.524 193.528 339.729 193.426 339.933 193.118C340.138 192.81 340.036 192.4 339.831 192.195C339.626 191.99 339.422 191.785 339.217 191.58C338.808 191.17 338.501 190.76 338.091 190.452C337.784 190.144 337.58 189.939 337.273 189.632C337.068 189.427 336.863 189.324 336.659 189.324C336.454 189.324 336.352 189.427 336.147 189.529C335.84 189.734 335.533 190.042 335.226 190.247C334.817 190.554 334.407 190.862 333.998 191.272C333.793 191.477 333.486 191.682 333.282 191.887C332.975 192.195 332.975 192.708 333.282 193.015C333.384 193.118 333.589 193.118 333.691 193.22C333.998 193.323 334.203 193.22 334.407 193.015C334.612 192.913 334.714 192.708 334.919 192.605H335.021C335.226 192.81 335.431 193.015 335.635 193.22C335.738 193.323 335.738 193.323 335.635 193.425C335.328 193.733 335.021 193.938 334.612 194.143C334.203 194.348 333.793 194.348 333.384 194.143C333.077 194.041 332.77 193.836 332.463 193.631C332.258 193.426 332.156 193.118 332.054 192.913C332.054 192.81 332.054 192.708 332.054 192.605C332.054 192.4 331.951 192.4 331.747 192.298C331.44 192.195 331.133 192.093 330.826 191.887C330.519 191.682 330.314 191.375 330.212 191.067C330.109 190.76 330.109 190.554 330.109 190.247C330.109 189.939 330.314 189.734 330.416 189.529C330.621 189.324 330.826 189.222 331.03 189.016C331.235 188.811 331.44 188.606 331.747 188.504C332.156 188.196 332.463 187.889 332.872 187.683C333.179 187.478 333.486 187.171 333.793 186.966C334.203 186.658 334.612 186.351 335.021 185.94C335.124 185.838 335.124 185.838 335.226 185.94C335.431 186.145 335.635 186.351 335.84 186.556C335.635 186.658 335.431 186.863 335.328 186.966C334.919 187.273 334.407 187.683 333.998 187.991C333.384 188.401 332.872 188.914 332.258 189.324C332.054 189.529 331.747 189.734 331.542 189.939C331.44 190.042 331.337 190.247 331.235 190.452C331.235 190.657 331.337 190.862 331.542 191.067C331.747 191.272 331.951 191.375 332.258 191.272C332.463 191.272 332.668 191.067 332.872 190.965C333.282 190.555 333.793 190.247 334.203 189.837C334.51 189.632 334.817 189.324 335.124 189.119C335.328 188.914 335.533 188.811 335.84 188.606C336.147 188.401 336.454 188.299 336.761 188.299C337.375 188.299 337.887 188.606 338.296 189.016C338.603 189.427 339.012 189.734 339.319 190.144C339.626 190.554 340.036 190.862 340.343 191.272C340.547 191.477 340.65 191.58 340.854 191.785C341.264 192.093 341.775 191.99 342.082 191.58C342.287 191.375 342.287 190.965 341.98 190.76C341.775 190.554 341.571 190.349 341.468 190.144C341.059 189.632 340.65 189.222 340.138 188.709C339.729 188.299 339.319 187.889 338.91 187.478C338.705 187.171 338.398 186.966 338.194 186.658C337.887 186.351 337.682 186.043 337.375 185.735C337.17 185.428 336.863 185.223 336.659 184.915L336.556 184.812C336.454 184.71 336.556 184.71 336.556 184.71C336.659 184.607 336.863 184.505 337.068 184.505C337.17 184.505 337.273 184.505 337.375 184.505H337.477C337.58 184.505 337.784 184.607 337.887 184.71C338.091 184.915 338.296 185.12 338.398 185.325C338.705 185.633 338.91 185.94 339.217 186.248C339.626 186.658 339.933 187.068 340.343 187.478C340.854 187.991 341.366 188.606 341.878 189.119C342.185 189.427 342.492 189.837 342.799 190.144C342.901 190.247 343.208 190.555 343.31 190.965C343.31 191.067 343.31 191.17 343.31 191.17C343.31 191.17 343.31 191.272 343.31 191.375Z" fill="white"/>
<path d="M343.415 160.717C340.754 160.819 334.205 161.434 327.655 165.946C320.287 171.073 317.422 178.045 316.603 180.506C315.989 178.045 314.045 171.79 308.008 166.664C300.844 160.409 292.658 159.999 290.406 159.999C290.713 159.794 292.555 158.666 293.476 157.435C293.579 157.23 294.397 155.897 294.602 155.385C294.807 154.872 294.602 155.18 295.728 154.564C295.83 154.462 296.035 154.359 296.239 154.257C296.751 153.949 296.853 153.744 296.751 153.437C296.956 153.437 297.058 153.539 297.263 153.539C297.979 153.949 299.002 154.462 300.742 155.18C304.835 157.025 308.724 160.614 311.589 163.793C312.408 164.408 313.84 165.741 314.864 167.792C315.989 170.047 316.092 171.996 316.092 173.123C317.217 169.125 318.752 166.151 320.083 164.203C325.711 155.487 333.079 153.744 334.102 153.847C334.819 153.949 335.535 154.154 335.535 154.154C335.842 154.257 336.149 154.462 336.456 154.564C338.4 155.385 338.912 155.59 338.912 155.59C338.912 155.692 338.4 155.59 338.298 155.795C338.298 156.308 340.345 158.153 343.415 160.717Z" fill="#0D3FBA"/>
<path d="M336.66 154.667C333.795 155.385 331.032 156.513 328.781 157.948C324.176 161.024 321.515 165.126 319.98 168.919C319.366 170.355 318.957 171.79 318.65 173.021C318.65 173.328 318.241 173.431 317.934 173.328C317.729 173.226 317.627 173.123 317.524 172.918C317.422 172.816 317.422 172.611 317.422 172.508C318.343 168.817 320.185 163.895 324.176 159.896C325.199 158.871 326.427 157.846 327.758 156.923C329.702 155.692 331.851 154.667 334.204 153.949C334.716 153.949 335.228 154.052 335.637 154.257C336.046 154.462 336.353 154.564 336.66 154.667Z" fill="white"/>
<path d="M315.272 172.611C315.272 172.713 315.272 172.918 315.17 173.021C315.067 173.226 314.965 173.328 314.76 173.431C314.453 173.534 314.146 173.431 314.044 173.123C313.737 171.79 313.226 170.355 312.612 168.817C311.077 165.126 308.518 161.127 303.913 158.051C301.56 156.513 298.797 155.282 295.727 154.667C295.829 154.564 296.034 154.462 296.238 154.359C296.75 154.052 296.852 153.847 296.75 153.539C296.955 153.539 297.057 153.642 297.262 153.642C300.025 154.359 302.583 155.487 304.834 156.923C306.165 157.846 307.393 158.871 308.416 159.896C309.644 161.127 310.77 162.562 311.588 163.895C313.635 166.971 314.658 170.047 315.272 172.611Z" fill="white"/>
<path d="M320.081 204.089C318.751 204.089 317.421 204.089 316.09 204.089C315.272 204.089 314.453 204.089 313.737 204.089C314.146 199.27 314.248 194.041 314.146 188.299C314.044 182.454 313.532 177.122 312.918 172.303C315.272 172.918 317.523 173.534 319.877 174.046C319.263 178.045 318.853 182.557 318.853 187.581C318.751 193.938 319.263 199.475 320.081 204.089Z" fill="#0D3FBA"/>
</g>
<defs>
<clipPath id="clip0_1181_3320">
<rect width="57.5" height="72.2" fill="white" transform="translate(426 161)"/>
</clipPath>
<clipPath id="clip1_1181_3320">
<rect width="193" height="279" fill="white" transform="translate(220 63)"/>
</clipPath>
</defs>
</svg>
