<svg width="82" height="82" viewBox="0 0 82 82" fill="none" xmlns="http://www.w3.org/2000/svg">
<path d="M47.0922 23.4029V11.6277C47.1196 11.2648 47.2832 10.9256 47.55 10.6781C47.8169 10.4307 48.1674 10.2932 48.5313 10.2932C48.8953 10.2932 49.2458 10.4307 49.5126 10.6781C49.7795 10.9256 49.943 11.2648 49.9704 11.6277V14.4157C49.9684 14.5323 49.9944 14.6476 50.0462 14.7521C50.0979 14.8566 50.1739 14.9471 50.2679 15.0162C50.3618 15.0853 50.471 15.1308 50.5861 15.149C50.7013 15.1672 50.8192 15.1576 50.9298 15.1209L57.4898 12.2427C57.6249 12.1942 57.7418 12.1051 57.8244 11.9877C57.907 11.8703 57.9513 11.7302 57.9513 11.5867C57.9513 11.4431 57.907 11.3031 57.8244 11.1856C57.7418 11.0682 57.6249 10.9792 57.4898 10.9307L47.9942 6.83067C46.2558 6.13367 47.3874 3.55067 49.1258 4.21487L63.0658 10.3239C63.3265 10.4291 63.5498 10.6098 63.7071 10.8429C63.8643 11.0759 63.9484 11.3506 63.9484 11.6318C63.9484 11.9129 63.8643 12.1876 63.7071 12.4207C63.5498 12.6537 63.3265 12.8345 63.0658 12.9397L50.3476 18.4337C50.2315 18.4829 50.1349 18.5691 50.0726 18.6787C50.0104 18.7884 49.986 18.9155 50.0032 19.0405V23.6653C49.9916 23.7588 50.001 23.8537 50.0308 23.9431C50.0606 24.0325 50.11 24.1141 50.1754 24.1819L58.7116 33.6939C58.8018 33.8661 58.8838 33.9481 58.974 34.1285L77.834 75.8091C77.9546 76.0359 78.0117 76.2911 77.9993 76.5478C77.9869 76.8044 77.9054 77.0529 77.7635 77.2671C77.6216 77.4812 77.4245 77.6531 77.1929 77.7645C76.9614 77.8759 76.7041 77.9228 76.4482 77.9001H5.53462C5.16491 77.9001 4.81034 77.7532 4.54892 77.4918C4.28749 77.2304 4.14062 76.8758 4.14062 76.5061C4.14062 76.1364 4.28749 75.7818 4.54892 75.5204C4.81034 75.2589 5.16491 75.1121 5.53462 75.1121H8.24062C8.42755 75.108 8.60839 75.0448 8.75723 74.9317L20.7866 63.5993C20.8923 63.4785 20.9532 63.325 20.9588 63.1647L23.4188 48.8639C23.4275 48.6969 23.4705 48.5334 23.5453 48.3839C23.6201 48.2343 23.725 48.1018 23.8534 47.9947L31.5204 41.2789C31.6744 41.1205 31.8627 40.9996 32.0708 40.9255C32.2789 40.8514 32.5012 40.826 32.7207 40.8514C32.9401 40.8767 33.1508 40.9521 33.3365 41.0717C33.5222 41.1913 33.678 41.352 33.7918 41.5413L44.2796 59.8601C44.3812 60.0178 44.4485 60.1952 44.4771 60.3807C44.5056 60.5661 44.4948 60.7555 44.4452 60.9365C44.3957 61.1175 44.3087 61.2861 44.1897 61.4312C44.0708 61.5763 43.9226 61.6948 43.7548 61.7789C43.5963 61.8754 43.4198 61.9385 43.236 61.9643C43.0523 61.9901 42.8652 61.9781 42.6862 61.9289C42.5073 61.8798 42.3403 61.7945 42.1955 61.6785C42.0507 61.5624 41.9312 61.418 41.8442 61.2541L32.5454 45.1985C32.4915 45.1138 32.4203 45.0414 32.3365 44.9861C32.2527 44.9309 32.1582 44.8939 32.0591 44.8776C31.9601 44.8614 31.8587 44.8662 31.7616 44.8918C31.6645 44.9174 31.574 44.9633 31.4958 45.0263L26.2396 49.6511C26.1301 49.7814 26.0416 49.9281 25.9772 50.0857L23.6566 64.3865C23.613 64.7025 23.459 64.9929 23.222 65.2065C20.2618 68.1749 17.0392 71.0531 13.9888 73.9313C13.8863 74.032 13.8166 74.1614 13.7889 74.3024C13.7611 74.4435 13.7766 74.5896 13.8334 74.7217C13.8901 74.8537 13.9854 74.9656 14.1068 75.0426C14.2282 75.1195 14.37 75.1581 14.5136 75.1531H47.7892C47.9174 75.1559 48.0438 75.1233 48.1547 75.0589C48.2655 74.9945 48.3564 74.9008 48.4175 74.7881C48.4785 74.6753 48.5072 74.548 48.5006 74.4199C48.4939 74.2919 48.452 74.1682 48.3796 74.0625L45.2636 67.4369C45.1331 67.1698 45.0883 66.8689 45.1353 66.5753C45.1822 66.2818 45.3187 66.0099 45.526 65.7969L55.284 55.7601C55.3697 55.6874 55.4319 55.591 55.4625 55.4829C55.4932 55.3748 55.491 55.2601 55.4562 55.1533L48.1418 29.7661C48.103 29.631 48.0256 29.5103 47.919 29.4186C47.8125 29.3269 47.6816 29.2684 47.5422 29.2501C47.4029 29.2318 47.2613 29.2546 47.1347 29.3157C47.0082 29.3767 46.9022 29.4734 46.8298 29.5939L39.0808 43.0173C38.9839 43.1788 38.8561 43.3197 38.7048 43.4318C38.5534 43.5439 38.3815 43.6252 38.1987 43.6709C38.016 43.7165 37.826 43.7258 37.6397 43.6981C37.4534 43.6703 37.2743 43.6062 37.1128 43.5093C36.9513 43.4124 36.8104 43.2846 36.6983 43.1332C36.5862 42.9819 36.5049 42.8099 36.4592 42.6272C36.4136 42.4444 36.4043 42.2545 36.432 42.0681C36.4598 41.8818 36.5239 41.7028 36.6208 41.5413L47.002 23.7801C47.0922 23.6981 47.0922 23.6079 47.0922 23.4357V23.4029ZM52.4796 75.1121H73.1436C73.2671 75.1086 73.3879 75.0756 73.4959 75.0157C73.6039 74.9558 73.6959 74.8709 73.7642 74.768C73.8326 74.6651 73.8752 74.5473 73.8884 74.4245C73.9017 74.3018 73.8853 74.1776 73.8406 74.0625L56.4976 35.5225L56.3254 35.3503L53.1028 31.6849C52.9896 31.5724 52.8426 31.5001 52.6844 31.4791C52.5262 31.4581 52.3655 31.4896 52.2268 31.5687C52.0882 31.6478 51.9793 31.7701 51.9169 31.917C51.8544 32.0639 51.8418 32.2272 51.881 32.3819L58.5066 55.4895C58.5848 55.7315 58.5932 55.9906 58.5308 56.2372C58.4685 56.4837 58.3379 56.7077 58.154 56.8835L48.5764 66.7235C48.459 66.8203 48.3774 66.9537 48.3447 67.1023C48.312 67.251 48.3301 67.4063 48.396 67.5435L51.799 74.6939C51.8725 74.8163 51.974 74.9196 52.0952 74.9951C52.2164 75.0707 52.3537 75.1164 52.496 75.1285L52.4796 75.1121Z" fill="#1F53F1"/>
</svg>
