<svg width="214" height="213" viewBox="0 0 214 213" fill="none" xmlns="http://www.w3.org/2000/svg">
<path d="M146.958 115.39C146.875 116.58 146.653 117.463 146.595 117.657C145.854 120.426 144.205 122.11 143.744 122.572C143.225 123.082 142.64 123.552 141.989 123.965C140.884 124.661 139.673 125.147 138.388 125.422C137.638 125.584 136.888 125.762 136.138 125.9C135.355 126.046 135.017 126.596 134.918 127.26C134.704 128.702 134.317 130.086 133.6 131.358C132.751 132.872 131.573 134.103 130.064 135.01C128.383 136.022 126.562 136.669 124.617 136.937C121.437 137.374 118.561 136.548 116.072 134.597C114.572 133.422 113.229 132.062 111.82 130.783C110.163 129.269 108.515 127.754 106.875 126.224C105.293 124.75 103.727 123.252 102.129 121.738C102.945 120.685 103.958 119.989 105.219 119.706C107.584 119.171 109.488 120.046 111.177 121.641C113.839 124.159 116.542 126.637 119.245 129.123C120.415 130.2 121.791 130.912 123.431 130.896C125.392 130.888 126.818 129.9 127.807 128.297C129.1 126.208 128.334 123.997 126.744 122.483C125.433 121.244 124.139 119.997 122.821 118.766C120.406 116.515 117.992 114.28 115.569 112.037C113.855 110.45 112.149 108.847 110.402 107.284C109.216 106.223 107.839 105.527 106.167 105.657C105.013 105.746 103.975 106.167 103.126 106.912C101.23 108.588 99.3846 110.313 97.5222 112.021C95.0994 114.256 92.6684 116.483 90.2539 118.726C88.7624 120.118 87.2461 121.487 85.8287 122.953C83.8098 125.05 84.3866 128.289 86.5621 129.852C87.3367 130.41 88.235 130.669 89.1909 130.791C91.0286 131.034 92.5119 130.378 93.7727 129.115C94.6792 128.208 95.5774 127.293 96.4921 126.402C96.5745 126.329 96.8382 126.313 96.9206 126.386C98.2226 127.552 99.5164 128.726 100.802 129.916C101.156 130.248 101.189 130.702 100.868 131.042C99.0879 132.929 97.2255 134.718 94.8275 135.868C92.3306 137.058 89.743 137.22 87.073 136.669C84.8563 136.216 82.9362 135.188 81.3046 133.657C79.9943 132.426 79.0631 130.928 78.544 129.212C78.3792 128.653 78.3132 128.07 78.1979 127.495C77.9012 125.997 77.6375 125.94 76.286 125.73C74.2588 125.414 72.3388 124.831 70.6659 123.673C68.8118 122.394 67.5592 120.637 66.7269 118.54C66.0676 116.88 65.9111 115.187 66.0429 113.462C66.1665 111.819 66.8175 110.304 67.8806 109.041C68.9354 107.786 70.1632 106.661 71.3417 105.503C72.6354 104.248 73.9539 103.025 75.2724 101.802C77.3738 99.8508 79.4752 97.9074 81.5765 95.956C83.2906 94.3689 84.9964 92.7737 86.7022 91.1866C89.1085 88.9598 91.5148 86.7331 93.9375 84.5063C94.4896 83.9962 94.5473 84.0205 95.0665 84.5144C96.385 85.7614 97.72 87.0084 99.0879 88.2959C98.0084 89.308 96.9453 90.3121 95.8823 91.3081C93.303 93.713 90.7154 96.126 88.1279 98.5309C84.8151 101.608 81.4859 104.669 78.1732 107.754C76.764 109.066 75.3466 110.385 73.9951 111.754C73.1216 112.637 72.6272 113.746 72.6025 115.001C72.5778 116.491 73.3194 117.616 74.4401 118.531C75.8163 119.649 77.3985 120.005 79.1126 119.527C80.4476 119.155 81.4859 118.313 82.4748 117.39C85.12 114.912 87.7817 112.45 90.4352 109.981C92.2235 108.321 93.9787 106.628 95.7917 105.001C97.1019 103.819 98.4039 102.612 99.8296 101.584C101.552 100.345 103.546 99.6969 105.705 99.5512C109.488 99.3002 112.603 100.725 115.297 103.203C117.621 105.333 119.92 107.487 122.219 109.632C124.502 111.762 126.768 113.916 129.059 116.037C130.114 117.009 131.152 118.029 132.339 118.831C134.918 120.58 138.247 119.77 139.838 117.122C140.794 115.535 140.563 113.317 139.137 111.794C137.976 110.564 136.682 109.454 135.437 108.288C132.57 105.608 129.702 102.92 126.826 100.248C124.189 97.8022 121.527 95.3811 118.89 92.9437C117.209 91.3972 115.553 89.8263 113.872 88.2716C112.026 86.563 110.155 84.8707 108.309 83.1621C106.612 81.5993 104.931 80.0285 103.241 78.4576C102.986 78.2227 102.747 77.9717 102.467 77.7612C102.055 77.4616 102.137 77.2106 102.442 76.8786C103.282 75.9555 104.296 75.3482 105.516 75.0891C105.598 75.0729 105.672 75.0324 105.755 75C106.323 75 106.884 75 107.452 75C107.65 75.0648 107.839 75.1458 108.037 75.1943C108.903 75.4292 109.694 75.8016 110.361 76.4089C111.597 77.5507 112.85 78.6762 114.086 79.8179C115.899 81.5022 117.695 83.2026 119.516 84.8869C121.98 87.1703 124.469 89.4295 126.933 91.721C130.32 94.8709 133.682 98.037 137.061 101.195C139.162 103.163 141.28 105.114 143.39 107.074C144.263 107.883 146.01 109.495 146.702 112.094C146.867 112.718 146.933 113.252 146.958 113.624C146.991 114.094 147.007 114.693 146.958 115.39Z" fill="#1576EE"/>
</svg>
