<svg width="96" height="95" viewBox="0 0 96 95" fill="none" xmlns="http://www.w3.org/2000/svg">
<path d="M71.4509 52.8313C71.4028 53.5206 71.2731 54.0317 71.2394 54.1442C70.8068 55.7479 69.8454 56.7233 69.5762 56.9906C69.2733 57.286 68.932 57.5579 68.5522 57.7971C67.9081 58.2004 67.2015 58.4817 66.4515 58.6411C66.0141 58.7349 65.5767 58.8381 65.1392 58.9178C64.6825 59.0022 64.4855 59.3211 64.4278 59.7056C64.3028 60.5403 64.0769 61.3421 63.6586 62.0783C63.1635 62.9552 62.4761 63.6679 61.5964 64.1931C60.6157 64.7793 59.5534 65.1544 58.4189 65.3091C56.5634 65.5623 54.8857 65.0841 53.434 63.954C52.5591 63.274 51.7755 62.4863 50.9535 61.7454C49.9873 60.8685 49.0259 59.9916 48.0693 59.1054C47.1463 58.2519 46.233 57.3844 45.3004 56.5076C45.7763 55.898 46.3676 55.4947 47.103 55.3306C48.4827 55.0211 49.5931 55.5275 50.5786 56.4513C52.1312 57.9096 53.708 59.3445 55.2847 60.7841C55.9673 61.4077 56.7701 61.8204 57.7267 61.811C58.8708 61.8063 59.7024 61.2343 60.2793 60.3058C61.034 59.096 60.5869 57.8159 59.6591 56.939C58.8948 56.2215 58.1401 55.4994 57.371 54.7866C55.9625 53.4831 54.554 52.1888 53.1407 50.8899C52.1409 49.9709 51.1458 49.0424 50.1267 48.1374C49.4345 47.5231 48.6317 47.1199 47.6559 47.1949C46.9829 47.2465 46.3772 47.4903 45.882 47.9217C44.7764 48.8924 43.6996 49.8912 42.6132 50.8806C41.1999 52.1748 39.7819 53.4643 38.3734 54.7632C37.5033 55.5697 36.6188 56.3622 35.792 57.2109C34.6142 58.4254 34.9507 60.3011 36.2198 61.2061C36.6717 61.5297 37.1956 61.6797 37.7533 61.7501C38.8252 61.8907 39.6905 61.5109 40.426 60.7794C40.9548 60.2542 41.4788 59.7243 42.0123 59.2085C42.0604 59.1663 42.2142 59.1569 42.2623 59.1992C43.0218 59.8744 43.7765 60.5543 44.5264 61.2436C44.7331 61.4359 44.7524 61.6985 44.5649 61.8954C43.5266 62.988 42.4402 64.0243 41.0413 64.6902C39.5848 65.3795 38.0753 65.4733 36.5178 65.1544C35.2247 64.8918 34.1047 64.2963 33.1529 63.41C32.3886 62.6973 31.8454 61.8298 31.5425 60.8357C31.4464 60.5121 31.4079 60.1745 31.3406 59.8416C31.1676 58.9741 31.0137 58.9413 30.2254 58.8193C29.0428 58.6365 27.9228 58.2988 26.9469 57.6283C25.8653 56.8874 25.1347 55.8698 24.6492 54.6553C24.2646 53.6941 24.1733 52.714 24.2502 51.7152C24.3223 50.7633 24.702 49.8865 25.3221 49.155C25.9375 48.4281 26.6537 47.7763 27.3411 47.1058C28.0958 46.379 28.865 45.6709 29.6341 44.9628C30.8599 43.8327 32.0857 42.7074 33.3115 41.5773C34.3114 40.6582 35.3065 39.7344 36.3015 38.8153C37.7052 37.5258 39.1089 36.2363 40.5221 34.9468C40.8442 34.6514 40.8779 34.6654 41.1807 34.9515C41.9498 35.6736 42.7286 36.3957 43.5266 37.1413C42.8968 37.7275 42.2767 38.3089 41.6566 38.8857C40.152 40.2784 38.6426 41.6757 37.1332 43.0684C35.2007 44.8503 33.2586 46.6228 31.3262 48.4094C30.5042 49.169 29.6774 49.9334 28.889 50.7258C28.3795 51.2369 28.091 51.8794 28.0766 52.6062C28.0622 53.469 28.4948 54.1208 29.1486 54.6507C29.9514 55.2978 30.8743 55.5041 31.8742 55.2274C32.653 55.0117 33.2586 54.5241 33.8355 53.9895C35.3786 52.5546 36.9313 51.1291 38.4791 49.6989C39.5223 48.7376 40.5462 47.7576 41.6037 46.8151C42.3681 46.1304 43.1276 45.4318 43.9592 44.8362C44.9639 44.1188 46.1272 43.7437 47.3867 43.6592C49.5931 43.5139 51.4102 44.3392 52.9821 45.7741C54.3377 47.0073 55.6789 48.2546 57.0201 49.4973C58.3516 50.7305 59.6736 51.9778 61.0099 53.2064C61.6252 53.7691 62.2309 54.3599 62.9232 54.8242C64.4278 55.837 66.3698 55.3681 67.2976 53.8347C67.8552 52.9157 67.7206 51.6308 66.889 50.7493C66.2112 50.0365 65.4565 49.3941 64.7306 48.7189C63.0578 47.1668 61.3849 45.6099 59.7072 44.0625C58.1689 42.6464 56.6163 41.2443 55.078 39.8329C54.0974 38.9373 53.1311 38.0276 52.1505 37.1272C51.0737 36.1378 49.9825 35.1578 48.9057 34.1684C47.9154 33.2634 46.9348 32.3537 45.9493 31.444C45.8003 31.308 45.6609 31.1626 45.4975 31.0407C45.2571 30.8672 45.3052 30.7218 45.4831 30.5296C45.9734 29.995 46.5646 29.6433 47.2761 29.4933C47.3242 29.4839 47.3674 29.4604 47.4155 29.4417C47.7472 29.4417 48.0741 29.4417 48.4058 29.4417C48.5211 29.4792 48.6317 29.5261 48.7471 29.5542C49.2518 29.6902 49.7133 29.9059 50.1027 30.2576C50.8237 30.9188 51.5544 31.5706 52.2755 32.2318C53.333 33.2071 54.381 34.1918 55.4433 35.1672C56.8806 36.4895 58.3324 37.7978 59.7697 39.1248C61.7454 40.9489 63.7067 42.7824 65.6776 44.6112C66.9034 45.7506 68.1388 46.8807 69.3695 48.0155C69.879 48.4844 70.8981 49.4175 71.3019 50.9228C71.398 51.2838 71.4365 51.5933 71.4509 51.809C71.4701 52.081 71.4798 52.428 71.4509 52.8313Z" fill="#1576EE"/>
<path d="M42.2558 90.7667L42.0795 91.7752L39.4517 91.3189L39.6281 90.3104L42.2558 90.7667Z" fill="black"/>
<path d="M31.1623 85.9078L30.6732 86.8284L29.9405 86.4418L27.9671 90.1561L28.6998 90.5427L28.2106 91.4633L25.3437 89.9505C25.0039 89.7712 24.7401 89.5575 24.5524 89.3095C24.3566 89.0639 24.2459 88.7989 24.2203 88.5144C24.1866 88.2324 24.2471 87.9459 24.4017 87.6549L24.4438 87.5755C24.5788 87.3216 24.7376 87.1378 24.9203 87.0242C25.1002 86.9159 25.2804 86.8518 25.4609 86.8319C25.6333 86.8144 25.7878 86.818 25.9243 86.8426L26.0002 86.6998C25.9002 86.6064 25.8051 86.4783 25.7149 86.3155C25.6218 86.158 25.5711 85.9721 25.5627 85.7576C25.5489 85.5404 25.6123 85.2995 25.7529 85.0349L25.7951 84.9556C25.9581 84.6487 26.1703 84.4219 26.4318 84.2754C26.6904 84.1341 26.978 84.0725 27.2947 84.0905C27.6061 84.1058 27.929 84.2017 28.2635 84.3782L31.1623 85.9078ZM28.8724 85.9189L27.8849 85.3978C27.6566 85.2773 27.4439 85.2362 27.2468 85.2745C27.0445 85.31 26.8885 85.4309 26.7788 85.6372L26.7367 85.7166C26.627 85.9229 26.6117 86.1181 26.6907 86.302C26.7697 86.486 26.926 86.6396 27.1596 86.7629L28.1471 87.284L28.8724 85.9189ZM27.6411 88.2363L26.6696 87.7237C26.4519 87.6088 26.2445 87.5705 26.0474 87.6088C25.845 87.6442 25.6918 87.7599 25.5878 87.9556L25.5457 88.035C25.4388 88.2361 25.4263 88.4259 25.5082 88.6046C25.5872 88.7885 25.7382 88.9393 25.9611 89.057L26.9327 89.5697L27.6411 88.2363Z" fill="black"/>
<path d="M23.2273 81.2782L19.1968 86.1138L18.2818 85.3564L21.6213 81.3497L19.4031 79.5135L20.0941 78.6846L23.2273 81.2782Z" fill="black"/>
<path d="M17.413 76.185L11.443 78.8023L10.1536 77.1852L14.0605 71.9806L14.8229 72.9368L13.9495 74.0644L15.3511 75.8221L16.6506 75.2288L17.413 76.185ZM14.3166 76.2857L13.2626 74.9639L11.3334 77.4667L11.4343 77.5933L14.3166 76.2857Z" fill="black"/>
<path d="M10.8827 66.3859C11.2259 67.085 11.3036 67.7336 11.1157 68.3318C10.9224 68.9325 10.4615 69.4105 9.73295 69.7657L8.37307 70.4287C7.64456 70.7839 6.98571 70.8518 6.39654 70.6325C5.80197 70.4158 5.33309 69.9579 4.98989 69.2588C4.64934 68.5651 4.57823 67.9366 4.77658 67.3733C4.96689 66.8073 5.39392 66.3625 6.05768 66.0389L6.10624 66.0153L6.62103 67.0639L6.54009 67.1034C6.20551 67.2665 5.9765 67.4948 5.85304 67.7883C5.72694 68.0764 5.75761 68.4113 5.94505 68.7931C6.12985 69.1696 6.39107 69.4088 6.72871 69.5108C7.06635 69.6128 7.43484 69.5664 7.83417 69.3718L9.22643 68.693C9.62037 68.5009 9.88326 68.2395 10.0151 67.9086C10.1415 67.5803 10.1124 67.228 9.92757 66.8515C9.74014 66.4697 9.49361 66.24 9.188 66.1624C8.87435 66.082 8.55293 66.1221 8.22375 66.2826L8.07805 66.3536L7.56326 65.3049L7.67659 65.2497C8.34034 64.9261 8.95751 64.8618 9.52809 65.0568C10.0906 65.2491 10.5422 65.6921 10.8827 66.3859Z" fill="black"/>
<path d="M8.19078 60.3568L2.06143 61.8418L1.78044 60.6899L4.21467 60.1002L4.17635 59.9431L1.2589 58.552L0.899151 57.0773L4.54163 58.8934L7.00722 55.505L7.37762 57.0234L5.38471 59.6503L5.42303 59.8074L7.90979 59.2049L8.19078 60.3568Z" fill="black"/>
<path d="M6.31504 51.0312L0 51.8012L0.0105541 50.6248L5.49466 50.063L5.49611 49.9013L0.0245725 49.0623L0.0429414 47.0148L5.52866 46.2734L5.53011 46.1118L0.0569598 45.4523L0.0675139 44.2759L6.36773 45.1583L6.34936 47.2057L0.737332 47.964L0.735882 48.1256L6.33341 48.9838L6.31504 51.0312Z" fill="black"/>
<path d="M7.07301 40.0418L0.903672 38.7315L1.1516 37.5721L7.32094 38.8824L7.07301 40.0418Z" fill="black"/>
<path d="M8.25862 35.0197L2.41302 32.6575L3.26295 30.5687L8.82765 31.4704L8.8886 31.3206L3.79458 29.2621L4.23479 28.1802L10.0804 30.5424L9.23045 32.6313L3.66575 31.7296L3.6048 31.8794L8.69882 33.9379L8.25862 35.0197Z" fill="black"/>
<path d="M12.0733 26.5979L11.2146 26.0038L11.6874 25.3252L8.22321 22.9283L7.7504 23.607L6.89175 23.0129L8.37184 20.8884C8.85492 20.1949 9.39917 19.7916 10.0046 19.6785C10.6085 19.557 11.2583 19.7369 11.9541 20.2184L12.9312 20.8944C13.627 21.3758 14.0258 21.9214 14.1276 22.5312C14.2278 23.1326 14.0364 23.78 13.5533 24.4734L12.0733 26.5979ZM12.3362 24.331L12.6754 23.8441C12.9494 23.4507 13.0462 23.0913 12.9658 22.7659C12.8853 22.4406 12.6575 22.1481 12.2824 21.8886L11.2462 21.1716C10.8662 20.9087 10.5116 20.7982 10.1825 20.8402C9.84852 20.8788 9.54446 21.0948 9.27037 21.4882L8.93119 21.9751L12.3362 24.331Z" fill="black"/>
<path d="M20.3492 14.3851L19.7279 13.5698L21.8522 11.9622L22.4735 12.7775L20.3492 14.3851Z" fill="black"/>
<path d="M33.7524 8.93945C33.2937 9.10126 32.8597 9.16226 32.4504 9.12245C32.0412 9.08264 31.6833 8.94532 31.3769 8.71047C31.0704 8.47563 30.841 8.14374 30.6886 7.71482L30.6044 7.47778L31.7088 7.08822L31.793 7.32526C31.9193 7.68082 32.1249 7.90994 32.4099 8.01263C32.6929 8.10968 33.0241 8.09128 33.4036 7.95743C33.7887 7.82159 34.0476 7.64451 34.1804 7.4262C34.3188 7.2059 34.3459 6.97723 34.2617 6.74019C34.2036 6.57652 34.1083 6.46087 33.976 6.39325C33.8493 6.32362 33.6843 6.28973 33.481 6.29158C33.2814 6.28578 33.0442 6.29961 32.7693 6.33307L32.5589 6.35967C32.119 6.4132 31.7278 6.42418 31.3852 6.39262C31.0463 6.3534 30.7574 6.24889 30.5187 6.07908C30.2856 5.90727 30.1049 5.64076 29.9766 5.27956C29.8483 4.91836 29.824 4.5808 29.9037 4.2669C29.9871 3.94536 30.1604 3.66193 30.4238 3.4166C30.6908 3.16364 31.0367 2.96224 31.4614 2.81241C31.8862 2.66258 32.2888 2.6031 32.6694 2.63397C33.0536 2.6572 33.3903 2.77977 33.6794 3.00168C33.9722 3.21594 34.1948 3.53754 34.3471 3.96646L34.4374 4.22043L33.333 4.60999L33.2428 4.35602C33.1626 4.13027 33.0532 3.96565 32.9145 3.86216C32.7794 3.75103 32.6187 3.6934 32.4324 3.68925C32.2442 3.67946 32.0367 3.71452 31.8102 3.79442C31.4704 3.91429 31.2415 4.06809 31.1233 4.25583C31.0089 4.43593 30.9907 4.63603 31.0689 4.85614C31.121 5.00288 31.2019 5.11405 31.3116 5.18967C31.427 5.26329 31.5732 5.307 31.7501 5.32078C31.9271 5.33457 32.1435 5.32491 32.3994 5.2918L32.6098 5.2652C33.0666 5.20568 33.4758 5.19152 33.8374 5.22274C34.2047 5.25196 34.5172 5.35131 34.7749 5.52077C35.0327 5.69024 35.2257 5.95557 35.354 6.31677C35.4823 6.67797 35.5021 7.02981 35.4135 7.37228C35.3285 7.70711 35.1441 8.01346 34.8605 8.29135C34.5805 8.5616 34.2111 8.77763 33.7524 8.93945Z" fill="black"/>
<path d="M42.3011 6.81642C41.5141 6.91393 40.8615 6.77762 40.3431 6.40748C39.824 6.0314 39.5144 5.44234 39.4143 4.64028L39.2275 3.14311C39.1274 2.34106 39.2832 1.69734 39.6949 1.21195C40.1057 0.720622 40.7047 0.4262 41.4916 0.328684C42.2785 0.231168 42.9315 0.37045 43.4507 0.74653C43.969 1.11667 44.2783 1.70277 44.3783 2.50482L44.5651 4.00199C44.6652 4.80405 44.5098 5.45074 44.0989 5.94206C43.6873 6.42745 43.088 6.7189 42.3011 6.81642ZM42.1699 5.76483C42.611 5.71017 42.9379 5.53995 43.1504 5.25419C43.363 4.96844 43.4426 4.61168 43.3892 4.18391L43.1935 2.61545C43.1401 2.18769 42.9753 1.86122 42.699 1.63604C42.4227 1.41086 42.0639 1.3256 41.6228 1.38027C41.1876 1.4342 40.8607 1.60441 40.6422 1.89091C40.4297 2.17667 40.3501 2.53343 40.4035 2.96119L40.5992 4.52965C40.6525 4.95742 40.8174 5.28389 41.0937 5.50907C41.3759 5.73351 41.7347 5.81876 42.1699 5.76483Z" fill="black"/>
<path d="M49.2635 6.26488L49.7832 0L53.7347 0.325516L53.6456 1.3995L50.8796 1.17163L50.7541 2.68416L53.3046 2.89426L53.2155 3.96824L50.665 3.75814L50.449 6.36254L49.2635 6.26488Z" fill="black"/>
<path d="M58.3479 7.5866L59.784 2.57847L58.0164 2.07509L58.3136 1.03893L62.9924 2.37139L62.6952 3.40756L60.9277 2.90418L59.4916 7.91231L58.3479 7.5866Z" fill="black"/>
<path d="M65.6061 10.0203L68.0246 4.15598L69.0487 4.74116L66.855 9.78158L66.9957 9.86198L70.4089 5.51841L72.1913 6.53688L70.1539 11.6666L70.2946 11.747L73.5515 7.31414L74.5756 7.89931L70.7187 12.9417L68.9363 11.9233L71.0208 6.67551L70.8801 6.59511L67.3885 11.0388L65.6061 10.0203Z" fill="black"/>
<path d="M74.606 15.7053L80.1808 12.3318L81.6716 13.7667L78.4819 19.4362L77.6004 18.5877L78.3182 17.3559L76.6978 15.7962L75.4874 16.5538L74.606 15.7053ZM77.6625 15.2015L78.8811 16.3744L80.4649 13.6415L80.3483 13.5292L77.6625 15.2015Z" fill="black"/>
<path d="M81.1462 22.5086L86.4008 19.0307L87.9164 21.3049C88.1357 21.6341 88.2693 21.9589 88.3171 22.2795C88.3648 22.6 88.3285 22.8972 88.208 23.1709C88.0876 23.4447 87.8847 23.676 87.5995 23.8648L87.5094 23.9244C87.1941 24.1331 86.8891 24.2272 86.5942 24.2068C86.2993 24.1863 86.0337 24.0962 85.7974 23.9364L85.6623 24.0258C85.7852 24.2319 85.8182 24.4329 85.7612 24.6287C85.7092 24.8213 85.5781 24.9871 85.3679 25.1262L83.6489 26.264L82.9908 25.2765L84.5672 24.2331C84.6873 24.1536 84.7633 24.0566 84.7952 23.9421C84.8303 23.8326 84.7997 23.7055 84.7034 23.5609L83.786 22.1844L81.8043 23.4961L81.1462 22.5086ZM84.6868 21.5882L85.4745 22.7702C85.6307 23.0046 85.8146 23.1452 86.0261 23.1921C86.246 23.2406 86.461 23.1953 86.6712 23.0562L86.7462 23.0065C86.9564 22.8674 87.0808 22.6916 87.1195 22.4791C87.1632 22.2633 87.1053 22.0358 86.9458 21.7964L86.1581 20.6144L84.6868 21.5882Z" fill="black"/>
<path d="M85.8021 30.2016L91.6598 27.8695L93.1642 31.6223L92.16 32.0221L91.0969 29.3701L89.6994 29.9265L90.6689 32.3449L89.6647 32.7447L88.6953 30.3263L87.2476 30.9026L88.3307 33.6046L87.3265 34.0044L85.8021 30.2016Z" fill="black"/>
<path d="M89.4501 45.1144C89.4231 44.6302 89.4864 44.198 89.6397 43.8178C89.7931 43.4376 90.0259 43.1339 90.3382 42.9068C90.6505 42.6797 91.0345 42.5536 91.4904 42.5284L91.7423 42.5145L91.8071 43.6802L91.5552 43.6941C91.1773 43.7149 90.8988 43.8472 90.7199 44.091C90.5469 44.3344 90.4715 44.6563 90.4938 45.0568C90.5164 45.4633 90.6141 45.7607 90.787 45.949C90.9603 46.1433 91.1729 46.2335 91.4248 46.2196C91.5988 46.21 91.7369 46.1514 91.8392 46.0439C91.9419 45.9423 92.0209 45.794 92.0762 45.5991C92.1379 45.4098 92.1913 45.179 92.2363 44.9067L92.2698 44.6979C92.3419 44.2623 92.4412 43.885 92.5679 43.5662C92.7009 43.2531 92.8827 43.0062 93.1134 42.8256C93.3443 42.6509 93.6518 42.553 94.0357 42.5318C94.4195 42.5106 94.7514 42.5823 95.0313 42.7467C95.3176 42.9168 95.5418 43.1622 95.704 43.4831C95.8726 43.8095 95.9693 44.1969 95.9942 44.6453C96.0191 45.0936 95.9633 45.4954 95.8266 45.8507C95.6962 46.2117 95.4836 46.4993 95.1886 46.7134C94.9 46.9332 94.5278 47.0557 94.0719 47.0809L93.802 47.0958L93.7372 45.9301L94.0071 45.9152C94.247 45.902 94.4363 45.8435 94.575 45.7399C94.7199 45.642 94.8206 45.5045 94.8769 45.3275C94.9393 45.1502 94.9638 44.942 94.9505 44.7029C94.9306 44.3442 94.8468 44.082 94.6992 43.9163C94.558 43.7562 94.3704 43.6826 94.1364 43.6955C93.9805 43.7041 93.8507 43.7502 93.747 43.8339C93.6437 43.9236 93.5605 44.0511 93.4975 44.2164C93.4345 44.3818 93.383 44.5915 93.343 44.8456L93.3094 45.0543C93.2384 45.5079 93.137 45.9033 93.0053 46.2403C92.874 46.5833 92.6905 46.8543 92.4549 47.0532C92.2192 47.2521 91.9095 47.3621 91.5256 47.3833C91.1417 47.4045 90.7973 47.3246 90.4924 47.1435C90.1939 46.9681 89.9506 46.7057 89.7628 46.3563C89.5812 46.0126 89.477 45.5986 89.4501 45.1144Z" fill="black"/>
<path d="M89.092 53.8869C89.2192 53.1069 89.5339 52.521 90.036 52.1293C90.5441 51.7385 91.1984 51.6079 91.9989 51.7376L93.4931 51.9797C94.2937 52.1094 94.8698 52.4393 95.2215 52.9694C95.5792 53.5004 95.6944 54.156 95.5672 54.936C95.4399 55.716 95.1223 56.3015 94.6142 56.6923C94.1121 57.084 93.4608 57.215 92.6603 57.0854L91.166 56.8433C90.3655 56.7136 89.7864 56.3832 89.4287 55.8521C89.077 55.322 88.9647 54.667 89.092 53.8869ZM90.1415 54.057C90.0702 54.4943 90.1422 54.8547 90.3577 55.1383C90.5731 55.4219 90.8943 55.5983 91.3213 55.6674L92.8867 55.9211C93.3136 55.9902 93.6744 55.9243 93.9688 55.7234C94.2634 55.5224 94.4463 55.2033 94.5176 54.766C94.588 54.3346 94.5159 53.9742 94.3014 53.6847C94.086 53.4011 93.7648 53.2247 93.3379 53.1555L91.7724 52.9019C91.3455 52.8327 90.9848 52.8986 90.6903 53.0996C90.3948 53.3065 90.2119 53.6256 90.1415 54.057Z" fill="black"/>
<path d="M87.677 60.7065L93.5522 62.9943L93.1193 64.0985L88.2512 62.2028L87.2018 64.8794L86.1946 64.4872L87.677 60.7065Z" fill="black"/>
<path d="M82.988 70.1346C83.2728 69.705 83.5955 69.3865 83.9562 69.1791C84.3186 68.98 84.6998 68.8938 85.0998 68.9203C85.5015 68.9552 85.9029 69.1047 86.3039 69.3687L89.7173 71.6161L89.0616 72.6051L85.6181 70.3379C85.2973 70.1267 84.9846 70.05 84.6799 70.1077C84.3719 70.1704 84.1037 70.3741 83.8752 70.7188C83.6467 71.0634 83.5656 71.3867 83.6318 71.6887C83.6947 71.9956 83.8866 72.2546 84.2074 72.4659L87.6509 74.7331L86.9952 75.7221L83.5818 73.4747C83.1808 73.2107 82.8871 72.8989 82.7006 72.5394C82.5159 72.1881 82.4459 71.8048 82.4909 71.3895C82.5375 70.9825 82.7032 70.5642 82.988 70.1346Z" fill="black"/>
<path d="M77.841 76.8138L81.4811 80.5514L82.8003 79.2755L83.5534 80.0488L80.0616 83.4262L79.3084 82.6529L80.6276 81.377L76.9875 77.6394L77.841 76.8138Z" fill="black"/>
<path d="M72.4549 81.4432L76.0453 86.6118L75.0673 87.2866L71.4769 82.1179L72.4549 81.4432Z" fill="black"/>
<path d="M65.8569 85.1941C66.5777 84.8645 67.2412 84.7982 67.8475 84.9952C68.4563 85.1976 68.9298 85.6661 69.2681 86.4007L69.8995 87.7719C70.2378 88.5064 70.2842 89.167 70.0387 89.7535C69.7958 90.3455 69.3139 90.8063 68.5932 91.136C67.8725 91.4656 67.2077 91.5292 66.5989 91.3267C65.9926 91.1297 65.5204 90.664 65.1821 89.9294L64.5506 88.5582C64.2124 87.8236 64.1647 87.1603 64.4077 86.5684C64.6531 85.9818 65.1362 85.5237 65.8569 85.1941ZM66.3005 86.1572C65.8964 86.342 65.6364 86.6026 65.5202 86.9389C65.4041 87.2753 65.4363 87.6393 65.6167 88.0311L66.2782 89.4676C66.4586 89.8594 66.7146 90.1211 67.0462 90.2526C67.3778 90.3842 67.7457 90.3576 68.1497 90.1729C68.5483 89.9906 68.8083 89.73 68.9299 89.3911C69.046 89.0548 69.0139 88.6907 68.8335 88.299L68.172 86.8625C67.9915 86.4707 67.7355 86.209 67.4039 86.0774C67.0669 85.9483 66.699 85.9749 66.3005 86.1572Z" fill="black"/>
<path d="M59.3923 87.8672L60.6668 94.0238L58.4517 94.4793L56.1143 89.3664L55.9554 89.3991L57.0661 94.7641L55.9188 95L54.6443 88.8434L56.8595 88.388L59.1968 93.5008L59.3557 93.4681L58.245 88.1031L59.3923 87.8672Z" fill="black"/>
</svg>
