<svg width="45" height="35" viewBox="0 0 45 35" fill="none" xmlns="http://www.w3.org/2000/svg">
<path d="M19.3458 25.7973C15.9813 27.9276 13.156 30.7395 10.8699 34.2331C10.1797 35.2556 9.55428 35.2556 8.99353 34.2331C6.96621 30.4413 4.14091 27.6293 0.517613 25.7973C0.172538 25.6269 0 25.3287 0 24.9026C0 21.3238 1.27247 17.1272 3.8174 12.3128C6.36233 7.49848 8.82099 3.53621 11.1934 0.42605C11.5816 0 12.0129 -0.106512 12.4874 0.106512C13.1344 0.489957 13.3285 0.894705 13.0697 1.32075C10.4385 5.32562 9.36017 9.4157 9.83465 13.591C10.3523 17.7237 13.5226 21.196 19.3458 24.0079C20.5104 24.434 20.5104 25.0304 19.3458 25.7973ZM44.1265 25.7973C40.762 27.9276 37.9367 30.7395 35.6506 34.2331C34.9605 35.2556 34.335 35.2556 33.7743 34.2331C31.7469 30.4413 28.9216 27.6293 25.2983 25.7973C24.9533 25.6269 24.7807 25.3287 24.7807 24.9026C24.7807 21.3238 26.0532 17.1272 28.5981 12.3128C31.1431 7.49848 33.6017 3.53621 35.9741 0.42605C36.3623 0 36.7937 -0.106512 37.2682 0.106512C37.9152 0.489957 38.1093 0.894705 37.8505 1.32075C35.2193 5.32562 34.1409 9.4157 34.6154 13.591C35.133 17.7237 38.3034 21.196 44.1265 24.0079C45.2912 24.434 45.2912 25.0304 44.1265 25.7973Z" fill="#1F53F1"/>
</svg>
