<svg width="705" height="37" viewBox="0 0 705 37" fill="none" xmlns="http://www.w3.org/2000/svg">
<line x1="4.37114e-08" y1="33.5" x2="83" y2="33.5" stroke="black"/>
<path d="M138.898 36.9507C135.541 36.9507 132.826 36.1953 130.752 34.6844C128.695 33.1571 127.444 31.0058 127 28.2304L133.862 27.1957C134.142 28.4439 134.759 29.421 135.714 30.1272C136.685 30.8333 137.911 31.1864 139.392 31.1864C140.61 31.1864 141.548 30.9565 142.206 30.4967C142.864 30.0204 143.193 29.3635 143.193 28.526C143.193 28.0004 143.062 27.5817 142.799 27.2696C142.535 26.9412 141.943 26.6209 141.021 26.3089C140.116 25.9969 138.701 25.5863 136.775 25.0772C134.603 24.5189 132.867 23.8948 131.567 23.2051C130.267 22.5153 129.329 21.6942 128.753 20.7417C128.177 19.7727 127.889 18.6067 127.889 17.2437C127.889 15.5357 128.325 14.0577 129.197 12.8096C130.069 11.545 131.295 10.5761 132.875 9.90279C134.471 9.21305 136.347 8.86818 138.503 8.86818C140.593 8.86818 142.445 9.18841 144.057 9.82889C145.67 10.4694 146.97 11.3808 147.958 12.5632C148.962 13.7457 149.579 15.1416 149.809 16.751L142.947 17.9827C142.831 16.9973 142.404 16.2173 141.663 15.6425C140.922 15.0677 139.919 14.731 138.651 14.6325C137.417 14.5504 136.422 14.7146 135.664 15.1252C134.924 15.5357 134.554 16.1269 134.554 16.8988C134.554 17.3586 134.71 17.7446 135.023 18.0566C135.352 18.3686 136.018 18.6889 137.022 19.0173C138.043 19.3458 139.589 19.7727 141.663 20.2983C143.687 20.8238 145.308 21.4396 146.526 22.1458C147.76 22.8356 148.657 23.6731 149.217 24.6585C149.776 25.6274 150.056 26.8016 150.056 28.1811C150.056 30.9072 149.069 33.0504 147.094 34.6105C145.119 36.1707 142.387 36.9507 138.898 36.9507Z" fill="#0F1E35"/>
<path d="M174.883 36.9507C172.201 36.9507 169.847 36.3513 167.823 35.1525C165.799 33.9536 164.219 32.3031 163.084 30.2011C161.964 28.0826 161.405 25.652 161.405 22.9095C161.405 20.134 161.981 17.6953 163.133 15.5932C164.285 13.4747 165.873 11.8242 167.897 10.6418C169.921 9.45939 172.25 8.86818 174.883 8.86818C177.566 8.86818 179.919 9.4676 181.943 10.6664C183.984 11.8653 185.572 13.524 186.707 15.6425C187.843 17.7446 188.411 20.1669 188.411 22.9095C188.411 25.6684 187.835 28.1072 186.683 30.2257C185.547 32.3278 183.959 33.9783 181.918 35.1771C179.894 36.3595 177.549 36.9507 174.883 36.9507ZM174.883 30.6937C177.039 30.6937 178.643 29.9711 179.697 28.526C180.766 27.0644 181.301 25.1922 181.301 22.9095C181.301 20.5446 180.758 18.656 179.672 17.2437C178.602 15.8313 177.006 15.1252 174.883 15.1252C173.418 15.1252 172.217 15.4536 171.279 16.1105C170.341 16.7674 169.642 17.6789 169.181 18.8449C168.736 20.0109 168.514 21.3657 168.514 22.9095C168.514 25.2907 169.049 27.1875 170.119 28.5999C171.205 29.9958 172.793 30.6937 174.883 30.6937Z" fill="#0F1E35"/>
<path d="M203.466 36.2117V9.70572C203.466 9.0324 203.483 8.26875 203.516 7.41478C203.548 6.56081 203.68 5.69862 203.911 4.82823C204.157 3.95783 204.602 3.16955 205.244 2.46338C206.066 1.54372 206.955 0.919661 207.91 0.59121C208.88 0.246336 209.819 0.0656884 210.724 0.049267C211.629 0.0164223 212.402 0 213.044 0H216.352V5.41944H213.291C212.238 5.41944 211.456 5.69041 210.946 6.23236C210.436 6.75788 210.181 7.39015 210.181 8.12916V36.2117H203.466ZM199.27 14.7803V9.60719H216.352V14.7803H199.27Z" fill="#0F1E35"/>
<path d="M243.69 36.2117C241.847 36.5566 240.037 36.7044 238.26 36.6551C236.499 36.6223 234.919 36.3185 233.52 35.7437C232.138 35.1525 231.084 34.2082 230.36 32.9108C229.702 31.6955 229.356 30.4638 229.324 29.2157C229.291 27.9512 229.274 26.5224 229.274 24.9294V2.21704H235.989V24.5353C235.989 25.5699 235.997 26.506 236.013 27.3435C236.046 28.1647 236.219 28.8216 236.532 29.3142C237.124 30.2503 238.07 30.7594 239.37 30.8415C240.67 30.9237 242.11 30.858 243.69 30.6445V36.2117ZM224.732 14.7803V9.60719H243.69V14.7803H224.732Z" fill="#0F1E35"/>
<path d="M262.714 36.2117L254.568 9.55792L261.135 9.60719L265.973 25.4714L270.885 9.60719H276.464L281.376 25.4714L286.215 9.60719H292.781L284.635 36.2117H279.5L273.675 18.8695L267.849 36.2117H262.714Z" fill="#0F1E35"/>
<path d="M310.563 36.9507C308.654 36.9507 307.033 36.5894 305.7 35.8668C304.384 35.1278 303.38 34.1507 302.689 32.9354C302.014 31.7037 301.677 30.3489 301.677 28.8708C301.677 27.6391 301.866 26.5142 302.244 25.496C302.623 24.4778 303.232 23.5828 304.071 22.8109C304.927 22.0226 306.071 21.3657 307.502 20.8402C308.49 20.4789 309.666 20.1587 311.032 19.8795C312.398 19.6003 313.945 19.3375 315.673 19.0912C317.401 18.8285 319.302 18.5411 321.375 18.229L318.956 19.5593C318.956 17.9827 318.578 16.8249 317.821 16.0859C317.064 15.3469 315.796 14.9774 314.019 14.9774C313.032 14.9774 312.003 15.2155 310.934 15.6917C309.864 16.168 309.115 17.0138 308.687 18.229L302.615 16.3076C303.289 14.107 304.556 12.3169 306.416 10.9374C308.276 9.55792 310.81 8.86818 314.019 8.86818C316.372 8.86818 318.462 9.22947 320.289 9.95206C322.116 10.6747 323.498 11.9228 324.436 13.6964C324.963 14.6818 325.276 15.6671 325.374 16.6525C325.473 17.6378 325.522 18.7381 325.522 19.9534V36.2117H319.647V30.743L320.487 31.8762C319.187 33.6662 317.78 34.9636 316.265 35.7683C314.768 36.5566 312.867 36.9507 310.563 36.9507ZM311.995 31.6791C313.229 31.6791 314.266 31.4656 315.105 31.0386C315.961 30.5952 316.636 30.0943 317.129 29.536C317.64 28.9776 317.985 28.5095 318.166 28.1318C318.512 27.4092 318.709 26.5717 318.759 25.6192C318.825 24.6502 318.857 23.8455 318.857 23.2051L320.832 23.6977C318.841 24.0262 317.228 24.3054 315.994 24.5353C314.76 24.7488 313.764 24.9458 313.007 25.1265C312.25 25.3071 311.584 25.5042 311.008 25.7177C310.349 25.9805 309.814 26.2679 309.403 26.5799C309.008 26.8755 308.712 27.2039 308.514 27.5652C308.333 27.9265 308.243 28.3289 308.243 28.7723C308.243 29.3799 308.391 29.9055 308.687 30.3489C309 30.7759 309.436 31.1043 309.995 31.3342C310.555 31.5641 311.221 31.6791 311.995 31.6791Z" fill="#0F1E35"/>
<path d="M339.347 36.2117V9.60719H345.271V16.1105L344.629 15.273C344.975 14.3533 345.436 13.5158 346.012 12.7603C346.588 12.0049 347.295 11.3808 348.134 10.8881C348.776 10.494 349.476 10.1902 350.233 9.9767C350.99 9.74678 351.771 9.60719 352.578 9.55792C353.384 9.49223 354.191 9.50865 354.997 9.60719V15.8642C354.256 15.6343 353.392 15.5604 352.405 15.6425C351.434 15.7082 350.554 15.9299 349.764 16.3076C348.974 16.6689 348.307 17.1534 347.764 17.761C347.221 18.3522 346.81 19.0584 346.53 19.8795C346.25 20.6842 346.11 21.5956 346.11 22.6138V36.2117H339.347Z" fill="#0F1E35"/>
<path d="M379.008 36.9507C376.276 36.9507 373.865 36.3677 371.775 35.2017C369.702 34.0193 368.072 32.4017 366.887 30.3489C365.719 28.2796 365.135 25.9148 365.135 23.2543C365.135 20.3475 365.711 17.8185 366.863 15.6671C368.015 13.5158 369.603 11.8489 371.627 10.6664C373.651 9.4676 375.98 8.86818 378.613 8.86818C381.411 8.86818 383.789 9.52508 385.747 10.8389C387.705 12.1527 389.154 14.0002 390.092 16.3815C391.03 18.7628 391.359 21.5628 391.079 24.7816H384.439V22.3182C384.439 19.6085 384.003 17.6624 383.13 16.48C382.275 15.2812 380.868 14.6818 378.909 14.6818C376.622 14.6818 374.935 15.3797 373.849 16.7756C372.779 18.1551 372.244 20.1997 372.244 22.9095C372.244 25.3893 372.779 27.3107 373.849 28.6738C374.935 30.0204 376.523 30.6937 378.613 30.6937C379.929 30.6937 381.057 30.4063 381.995 29.8316C382.933 29.2568 383.649 28.4274 384.142 27.3435L390.857 29.265C389.853 31.6955 388.265 33.5841 386.093 34.9308C383.937 36.2774 381.575 36.9507 379.008 36.9507ZM370.171 24.7816V19.8056H387.845V24.7816H370.171Z" fill="#0F1E35"/>
<path d="M431.765 36.9507C428.408 36.9507 425.692 36.1953 423.619 34.6844C421.562 33.1571 420.311 31.0058 419.866 28.2304L426.729 27.1957C427.009 28.4439 427.626 29.421 428.58 30.1272C429.551 30.8333 430.777 31.1864 432.258 31.1864C433.476 31.1864 434.414 30.9565 435.073 30.4967C435.731 30.0204 436.06 29.3635 436.06 28.526C436.06 28.0004 435.928 27.5817 435.665 27.2696C435.402 26.9412 434.809 26.6209 433.888 26.3089C432.983 25.9969 431.567 25.5863 429.642 25.0772C427.47 24.5189 425.733 23.8948 424.433 23.2051C423.133 22.5153 422.195 21.6942 421.619 20.7417C421.043 19.7727 420.755 18.6067 420.755 17.2437C420.755 15.5357 421.191 14.0577 422.063 12.8096C422.936 11.545 424.162 10.5761 425.742 9.90279C427.338 9.21305 429.214 8.86818 431.37 8.86818C433.46 8.86818 435.311 9.18841 436.924 9.82889C438.537 10.4694 439.837 11.3808 440.824 12.5632C441.828 13.7457 442.445 15.1416 442.676 16.751L435.813 17.9827C435.698 16.9973 435.27 16.2173 434.529 15.6425C433.789 15.0677 432.785 14.731 431.518 14.6325C430.284 14.5504 429.288 14.7146 428.531 15.1252C427.79 15.5357 427.42 16.1269 427.42 16.8988C427.42 17.3586 427.576 17.7446 427.889 18.0566C428.218 18.3686 428.885 18.6889 429.889 19.0173C430.909 19.3458 432.456 19.7727 434.529 20.2983C436.554 20.8238 438.175 21.4396 439.392 22.1458C440.627 22.8356 441.524 23.6731 442.083 24.6585C442.643 25.6274 442.922 26.8016 442.922 28.1811C442.922 30.9072 441.935 33.0504 439.96 34.6105C437.985 36.1707 435.254 36.9507 431.765 36.9507Z" fill="#0F1E35"/>
<path d="M467.75 36.9507C465.067 36.9507 462.714 36.3513 460.69 35.1525C458.665 33.9536 457.086 32.3031 455.95 30.2011C454.831 28.0826 454.271 25.652 454.271 22.9095C454.271 20.134 454.847 17.6953 455.999 15.5932C457.151 13.4747 458.739 11.8242 460.764 10.6418C462.788 9.45939 465.116 8.86818 467.75 8.86818C470.432 8.86818 472.785 9.4676 474.81 10.6664C476.85 11.8653 478.438 13.524 479.574 15.6425C480.709 17.7446 481.277 20.1669 481.277 22.9095C481.277 25.6684 480.701 28.1072 479.549 30.2257C478.414 32.3278 476.825 33.9783 474.785 35.1771C472.761 36.3595 470.416 36.9507 467.75 36.9507ZM467.75 30.6937C469.905 30.6937 471.51 29.9711 472.563 28.526C473.633 27.0644 474.168 25.1922 474.168 22.9095C474.168 20.5446 473.625 18.656 472.539 17.2437C471.469 15.8313 469.872 15.1252 467.75 15.1252C466.285 15.1252 465.084 15.4536 464.146 16.1105C463.207 16.7674 462.508 17.6789 462.047 18.8449C461.603 20.0109 461.381 21.3657 461.381 22.9095C461.381 25.2907 461.916 27.1875 462.985 28.5999C464.071 29.9958 465.66 30.6937 467.75 30.6937Z" fill="#0F1E35"/>
<path d="M494.605 36.2117V0H501.319V36.2117H494.605Z" fill="#0F1E35"/>
<path d="M526.049 37C523.959 37 522.255 36.6469 520.939 35.9407C519.622 35.2346 518.594 34.3395 517.853 33.2557C517.129 32.1718 516.611 31.0468 516.298 29.8808C515.985 28.6984 515.796 27.6227 515.73 26.6538C515.664 25.6849 515.631 24.9787 515.631 24.5353V9.60719H522.445V22.1704C522.445 22.7781 522.478 23.5581 522.543 24.5107C522.609 25.4467 522.815 26.391 523.16 27.3435C523.506 28.296 524.066 29.0925 524.839 29.733C525.629 30.3735 526.74 30.6937 528.172 30.6937C528.748 30.6937 529.365 30.6034 530.023 30.4228C530.681 30.2421 531.298 29.8972 531.874 29.3881C532.45 28.8626 532.919 28.099 533.281 27.0972C533.66 26.079 533.849 24.7488 533.849 23.1065L537.7 24.9294C537.7 27.0315 537.272 29.0022 536.416 30.8415C535.561 32.6809 534.269 34.1671 532.541 35.3003C530.829 36.4334 528.665 37 526.049 37ZM534.688 36.2117V27.3928H533.849V9.60719H540.613V36.2117H534.688Z" fill="#0F1E35"/>
<path d="M570.914 36.2117C569.07 36.5566 567.26 36.7044 565.483 36.6551C563.722 36.6223 562.142 36.3185 560.743 35.7437C559.361 35.1525 558.308 34.2082 557.584 32.9108C556.925 31.6955 556.58 30.4638 556.547 29.2157C556.514 27.9512 556.497 26.5224 556.497 24.9294V2.21704H563.212V24.5353C563.212 25.5699 563.22 26.506 563.236 27.3435C563.269 28.1647 563.442 28.8216 563.755 29.3142C564.347 30.2503 565.294 30.7594 566.594 30.8415C567.894 30.9237 569.334 30.858 570.914 30.6445V36.2117ZM551.955 14.7803V9.60719H570.914V14.7803H551.955Z" fill="#0F1E35"/>
<path d="M584.754 5.91212V0H591.468V5.91212H584.754ZM584.754 36.2117V9.60719H591.468V36.2117H584.754Z" fill="#0F1E35"/>
<path d="M618.271 36.9507C615.589 36.9507 613.236 36.3513 611.211 35.1525C609.187 33.9536 607.607 32.3031 606.472 30.2011C605.353 28.0826 604.793 25.652 604.793 22.9095C604.793 20.134 605.369 17.6953 606.521 15.5932C607.673 13.4747 609.261 11.8242 611.285 10.6418C613.31 9.45939 615.638 8.86818 618.271 8.86818C620.954 8.86818 623.307 9.4676 625.331 10.6664C627.372 11.8653 628.96 13.524 630.095 15.6425C631.231 17.7446 631.799 20.1669 631.799 22.9095C631.799 25.6684 631.223 28.1072 630.071 30.2257C628.935 32.3278 627.347 33.9783 625.307 35.1771C623.282 36.3595 620.937 36.9507 618.271 36.9507ZM618.271 30.6937C620.427 30.6937 622.032 29.9711 623.085 28.526C624.155 27.0644 624.689 25.1922 624.689 22.9095C624.689 20.5446 624.146 18.656 623.06 17.2437C621.991 15.8313 620.394 15.1252 618.271 15.1252C616.807 15.1252 615.605 15.4536 614.667 16.1105C613.729 16.7674 613.03 17.6789 612.569 18.8449C612.125 20.0109 611.903 21.3657 611.903 22.9095C611.903 25.2907 612.437 27.1875 613.507 28.5999C614.593 29.9958 616.181 30.6937 618.271 30.6937Z" fill="#0F1E35"/>
<path d="M662.801 36.2117V23.6485C662.801 23.0408 662.768 22.269 662.702 21.3329C662.636 20.3804 662.431 19.4279 662.085 18.4754C661.74 17.5229 661.172 16.7264 660.382 16.0859C659.608 15.4454 658.506 15.1252 657.074 15.1252C656.498 15.1252 655.881 15.2155 655.223 15.3961C654.564 15.5768 653.947 15.9299 653.371 16.4554C652.795 16.9645 652.318 17.7199 651.94 18.7217C651.578 19.7235 651.397 21.0537 651.397 22.7124L647.546 20.8895C647.546 18.7874 647.973 16.8167 648.829 14.9774C649.685 13.138 650.969 11.6518 652.68 10.5186C654.408 9.38548 656.58 8.81891 659.197 8.81891C661.287 8.81891 662.99 9.17199 664.307 9.87816C665.623 10.5843 666.644 11.4794 667.368 12.5632C668.108 13.6471 668.635 14.7803 668.948 15.9627C669.26 17.1287 669.45 18.1962 669.515 19.1651C669.581 20.134 669.614 20.8402 669.614 21.2836V36.2117H662.801ZM644.583 36.2117V9.60719H650.557V18.4261H651.397V36.2117H644.583Z" fill="#0F1E35"/>
<path d="M693.842 36.9507C690.485 36.9507 687.77 36.1953 685.696 34.6844C683.639 33.1571 682.388 31.0058 681.944 28.2304L688.807 27.1957C689.086 28.4439 689.703 29.421 690.658 30.1272C691.629 30.8333 692.855 31.1864 694.336 31.1864C695.554 31.1864 696.492 30.9565 697.15 30.4967C697.808 30.0204 698.137 29.3635 698.137 28.526C698.137 28.0004 698.006 27.5817 697.743 27.2696C697.479 26.9412 696.887 26.6209 695.965 26.3089C695.06 25.9969 693.645 25.5863 691.719 25.0772C689.547 24.5189 687.811 23.8948 686.511 23.2051C685.211 22.5153 684.273 21.6942 683.697 20.7417C683.121 19.7727 682.833 18.6067 682.833 17.2437C682.833 15.5357 683.269 14.0577 684.141 12.8096C685.013 11.545 686.239 10.5761 687.819 9.90279C689.415 9.21305 691.291 8.86818 693.447 8.86818C695.537 8.86818 697.389 9.18841 699.001 9.82889C700.614 10.4694 701.914 11.3808 702.902 12.5632C703.906 13.7457 704.523 15.1416 704.753 16.751L697.891 17.9827C697.775 16.9973 697.348 16.2173 696.607 15.6425C695.866 15.0677 694.863 14.731 693.595 14.6325C692.361 14.5504 691.366 14.7146 690.609 15.1252C689.868 15.5357 689.498 16.1269 689.498 16.8988C689.498 17.3586 689.654 17.7446 689.967 18.0566C690.296 18.3686 690.962 18.6889 691.966 19.0173C692.987 19.3458 694.533 19.7727 696.607 20.2983C698.631 20.8238 700.252 21.4396 701.47 22.1458C702.704 22.8356 703.601 23.6731 704.161 24.6585C704.72 25.6274 705 26.8016 705 28.1811C705 30.9072 704.013 33.0504 702.038 34.6105C700.063 36.1707 697.331 36.9507 693.842 36.9507Z" fill="#0F1E35"/>
</svg>
