<svg width="214" height="213" viewBox="0 0 214 213" fill="none" xmlns="http://www.w3.org/2000/svg">
<path d="M26.4156 73.0524L24.3576 72.0993L27.3916 65.5698L29.4496 66.5228L26.4156 73.0524Z" fill="#0F1E35"/>
<path d="M44.0689 55.7194L31.3919 43.9767L36.0642 38.9648C36.8607 38.1105 37.6857 37.5716 38.5393 37.3481C39.3925 37.1134 40.2089 37.1117 40.9884 37.3431C41.7735 37.5687 42.4506 37.9451 43.0199 38.4724C43.7183 39.1194 44.1556 39.8352 44.3318 40.62C44.5134 41.3989 44.4248 42.151 44.0658 42.8763L43.6256 42.4685C44.5495 41.8412 45.4899 41.5892 46.4469 41.7123C47.4094 41.8296 48.2575 42.2281 48.9911 42.9076C49.7423 43.6035 50.266 44.3557 50.5621 45.1644C50.8582 45.973 50.9002 46.8079 50.6879 47.6691C50.4812 48.5244 49.9905 49.3675 49.2158 50.1984L44.0689 55.7194ZM44.0671 51.7266L46.972 48.6107C47.3156 48.242 47.5505 47.8434 47.6765 47.4149C47.7967 46.981 47.7982 46.5571 47.6809 46.1432C47.5633 45.718 47.3167 45.3314 46.9411 44.9835C46.6007 44.6681 46.2273 44.4586 45.8209 44.3548C45.4146 44.251 45.0012 44.2662 44.5809 44.4003C44.1547 44.5289 43.7589 44.7893 43.3934 45.1813L40.4313 48.3587L44.0671 51.7266ZM38.4505 46.5239L41.1017 43.6801C41.3854 43.3758 41.5803 43.0493 41.6866 42.7007C41.7929 42.352 41.7971 42.0015 41.6991 41.649C41.6011 41.2966 41.3849 40.9654 41.0503 40.6555C40.6102 40.2478 40.1124 40.0484 39.5571 40.0575C39.0018 40.0665 38.4896 40.3227 38.0205 40.8259L35.3693 43.6698L38.4505 46.5239Z" fill="#0F1E35"/>
<path d="M56.7527 43.3357L46.7441 29.2493L49.1079 27.5832L57.5458 39.4588L63.784 35.0619L65.3548 37.2727L56.7527 43.3357Z" fill="#0F1E35"/>
<path d="M68.6374 35.3931L66.7261 17.3953L70.6147 15.7154L82.5285 29.3919L79.7966 30.5722L69.0559 18.3235L69.6508 18.0665L71.3694 34.2128L68.6374 35.3931ZM69.9267 30.7576L68.8466 28.2831L77.1747 24.6853L78.2548 27.1598L69.9267 30.7576Z" fill="#0F1E35"/>
<path d="M93.2728 27.6215C91.5764 27.9507 90.0508 27.8637 88.6958 27.3606C87.3394 26.8496 86.2044 25.9942 85.291 24.7942C84.3854 23.5927 83.7601 22.1168 83.4149 20.3665C83.0697 18.6162 83.0884 17.0154 83.4708 15.564C83.861 14.111 84.5882 12.8983 85.6521 11.9259C86.7145 10.9455 88.0939 10.2908 89.7902 9.96164C91.7458 9.5822 93.4721 9.75654 94.9693 10.4847C96.4649 11.205 97.6391 12.3421 98.4918 13.8961L95.7848 15.2404C95.2367 14.1977 94.5049 13.4433 93.5894 12.9771C92.6724 12.5032 91.5817 12.3888 90.3173 12.6342C89.1785 12.8551 88.2785 13.2946 87.6174 13.9526C86.964 14.6091 86.5363 15.4377 86.3341 16.4386C86.1382 17.43 86.1586 18.5466 86.3953 19.7882C86.6399 21.0283 87.0419 22.0749 87.6016 22.9279C88.1675 23.7716 88.8816 24.3746 89.744 24.7369C90.6064 25.0993 91.607 25.17 92.7458 24.949C94.0102 24.7037 94.9771 24.1901 95.6465 23.4083C96.3158 22.6264 96.7071 21.6541 96.8203 20.4913L99.8384 20.7246C99.6388 22.4828 98.9839 23.979 97.8737 25.213C96.762 26.4393 95.2283 27.2421 93.2728 27.6215Z" fill="#0F1E35"/>
<path d="M103.29 26.0341L103.678 8.75846L106.569 8.82845L106.389 16.8424L113.467 8.99542L117.018 9.08138L109.402 17.3715L117.134 26.3692L113.463 26.2804L106.362 18.0421L106.181 26.1041L103.29 26.0341Z" fill="#0F1E35"/>
<path d="M124.093 27.8773L123.847 9.87599L126.773 10.6878L126.753 23.6341L133.392 12.5497L136.324 13.3384L136.304 26.2847L142.949 15.1771L145.875 15.989L136.396 31.2916L133.644 30.5279L133.52 17.741L126.845 28.6411L124.093 27.8773Z" fill="#0F1E35"/>
<path d="M142.489 34.4036L150.354 19.0174L152.931 20.3297L145.066 35.7159L142.489 34.4036Z" fill="#0F1E35"/>
<path d="M150.799 38.8436L161.235 25.0702L163.573 26.8322L162.62 41.364L169.975 31.6558L172.314 33.4177L161.879 47.191L159.54 45.4291L160.493 30.8972L153.138 40.6055L150.799 38.8436Z" fill="#0F1E35"/>
<path d="M164.981 50.4559L178.194 39.3197L181.759 43.5185C181.852 43.6283 182.033 43.8474 182.301 44.1758C182.574 44.5102 182.822 44.8454 183.044 45.1813C183.795 46.3375 184.17 47.5332 184.17 48.7684C184.18 50.0045 183.872 51.2056 183.246 52.3716C182.62 53.5375 181.747 54.5923 180.628 55.5357C179.508 56.4792 178.319 57.1619 177.062 57.5839C175.804 58.0059 174.561 58.1118 173.333 57.9016C172.116 57.6924 170.998 57.1231 169.978 56.1937C169.688 55.9258 169.4 55.6298 169.114 55.3056C168.828 54.9814 168.639 54.7645 168.546 54.6547L164.981 50.4559ZM168.966 50.9416L170.629 52.8992C170.784 53.0822 170.987 53.3088 171.237 53.579C171.493 53.8553 171.735 54.0852 171.964 54.2686C172.609 54.7927 173.317 55.0643 174.089 55.0834C174.86 55.1025 175.639 54.938 176.424 54.5899C177.215 54.248 177.956 53.7857 178.647 53.2031C179.363 52.5999 179.955 51.9382 180.425 51.2181C180.895 50.4981 181.175 49.7594 181.267 49.0021C181.364 48.2509 181.211 47.5214 180.81 46.8136C180.672 46.5528 180.485 46.2765 180.248 45.9847C180.022 45.6939 179.831 45.457 179.676 45.274L178.014 43.3164L168.966 50.9416Z" fill="#0F1E35"/>
<path d="M186.321 70.5335L188.422 69.68L191.156 76.3405L189.055 77.1941L186.321 70.5335Z" fill="#0F1E35"/>
<path d="M187.228 101.676C187.127 100.416 187.256 99.2627 187.614 98.216C187.972 97.1772 188.532 96.2994 189.294 95.5826C190.064 94.8731 191.004 94.3871 192.115 94.1247L192.808 97.08C191.807 97.4142 191.059 97.9976 190.564 98.8303C190.069 99.6709 189.863 100.61 189.946 101.646C189.995 102.26 190.137 102.831 190.371 103.359C190.606 103.886 190.92 104.303 191.314 104.61C191.708 104.924 192.173 105.061 192.707 105.019C192.946 105.001 193.162 104.944 193.355 104.849C193.556 104.753 193.73 104.619 193.877 104.447C194.025 104.284 194.152 104.073 194.26 103.816C194.377 103.566 194.47 103.278 194.54 102.952L195.501 98.4002C195.582 98.0088 195.697 97.5827 195.845 97.1219C196.001 96.6685 196.227 96.2298 196.522 95.8058C196.826 95.3891 197.223 95.0334 197.713 94.7388C198.212 94.4514 198.84 94.2785 199.598 94.2199C200.706 94.1341 201.658 94.3414 202.452 94.8416C203.255 95.3492 203.882 96.063 204.333 96.983C204.784 97.9109 205.052 98.9574 205.137 100.122C205.223 101.303 205.104 102.372 204.779 103.327C204.462 104.283 203.953 105.1 203.253 105.78C202.553 106.46 201.682 106.969 200.642 107.306L199.856 104.25C200.452 104.075 200.947 103.788 201.341 103.389C201.743 102.997 202.034 102.529 202.216 101.985C202.398 101.449 202.473 100.886 202.442 100.295C202.404 99.7198 202.274 99.1923 202.051 98.7121C201.837 98.2392 201.55 97.8642 201.191 97.5871C200.832 97.3179 200.429 97.2006 199.983 97.2352C199.56 97.2679 199.223 97.4223 198.972 97.6984C198.73 97.974 198.543 98.3053 198.414 98.6925C198.293 99.087 198.196 99.4836 198.124 99.8824L197.508 103.035C197.43 103.467 197.317 103.953 197.167 104.494C197.018 105.035 196.791 105.562 196.487 106.075C196.183 106.588 195.764 107.022 195.23 107.376C194.697 107.738 194 107.952 193.139 108.019C192.246 108.088 191.445 107.961 190.737 107.639C190.038 107.324 189.44 106.869 188.943 106.273C188.446 105.678 188.053 104.982 187.765 104.186C187.477 103.398 187.298 102.561 187.228 101.676Z" fill="#0F1E35"/>
<path d="M186.44 118.987C186.677 117.276 187.253 115.862 188.166 114.745C189.088 113.63 190.264 112.837 191.694 112.366C193.123 111.903 194.721 111.794 196.488 112.041C198.255 112.287 199.763 112.828 201.012 113.665C202.26 114.509 203.172 115.594 203.748 116.918C204.331 118.243 204.505 119.762 204.268 121.473C204.031 123.185 203.451 124.599 202.53 125.714C201.615 126.838 200.443 127.632 199.014 128.095C197.583 128.566 195.985 128.679 194.218 128.432C192.451 128.186 190.944 127.64 189.696 126.796C188.447 125.959 187.531 124.874 186.948 123.541C186.372 122.217 186.203 120.699 186.44 118.987ZM189.138 119.364C188.971 120.512 189.092 121.502 189.502 122.334C189.911 123.175 190.556 123.85 191.438 124.361C192.319 124.88 193.386 125.226 194.638 125.401C195.89 125.576 197.002 125.533 197.975 125.273C198.955 125.022 199.755 124.548 200.377 123.851C200.997 123.162 201.395 122.244 201.57 121.097C201.737 119.949 201.616 118.959 201.206 118.127C200.796 117.294 200.151 116.618 199.27 116.1C198.387 115.589 197.32 115.246 196.068 115.072C194.816 114.897 193.701 114.935 192.721 115.186C191.749 115.439 190.953 115.909 190.333 116.598C189.711 117.295 189.313 118.217 189.138 119.364Z" fill="#0F1E35"/>
<path d="M184.432 129.858L200.7 135.685L197.185 145.478L194.462 144.502L197 137.432L192.944 135.979L190.893 141.694L188.182 140.723L190.233 135.008L183.455 132.58L184.432 129.858Z" fill="#0F1E35"/>
<path d="M176.741 147.21L189.242 154.689L192.123 149.896L194.45 151.288L187.199 163.353L184.872 161.96L187.753 157.167L175.251 149.688L176.741 147.21Z" fill="#0F1E35"/>
<path d="M167.506 160.084L183.349 168.668L181.205 170.818L169.908 164.473L176.333 175.67L174.206 177.836L162.908 171.491L169.35 182.705L167.206 184.854L158.49 169.124L160.507 167.102L171.736 173.244L165.489 162.106L167.506 160.084Z" fill="#0F1E35"/>
<path d="M154.372 172.067L158.624 189.659L154.988 191.833L141.386 179.834L143.94 178.307L156.192 189.044L155.636 189.377L151.818 173.595L154.372 172.067ZM153.701 176.831L155.096 179.143L147.31 183.8L145.915 181.488L153.701 176.831Z" fill="#0F1E35"/>
<path d="M138.016 181.013L143.553 197.381L136.782 199.645C136.623 199.699 136.415 199.759 136.16 199.828C135.907 199.904 135.668 199.959 135.442 199.992C134.445 200.165 133.557 200.112 132.779 199.832C131.993 199.555 131.326 199.095 130.779 198.451C130.227 197.818 129.798 197.05 129.493 196.148C129.042 194.815 128.991 193.554 129.34 192.365C129.693 191.185 130.528 190.247 131.847 189.553L132.985 189.059L137.207 187.647L135.273 181.93L138.016 181.013ZM128.604 184.16L134.089 189.74L131.509 191.286L125.497 185.198L128.604 184.16ZM138.073 190.205L134.158 191.514C134.006 191.565 133.838 191.629 133.653 191.708C133.469 191.786 133.304 191.875 133.16 191.974C132.744 192.24 132.455 192.56 132.294 192.934C132.126 193.311 132.051 193.699 132.068 194.098C132.077 194.5 132.14 194.875 132.258 195.224C132.376 195.572 132.554 195.909 132.791 196.235C133.022 196.571 133.32 196.838 133.683 197.038C134.038 197.239 134.463 197.321 134.956 197.282C135.131 197.274 135.315 197.243 135.507 197.187C135.702 197.139 135.875 197.089 136.027 197.038L139.942 195.729L138.073 190.205Z" fill="#0F1E35"/>
<path d="M121.176 185.822L123.238 202.978L112.154 204.28L111.83 201.588L120.042 200.623L119.534 196.394L112.752 197.19L112.429 194.498L119.21 193.701L118.627 188.852L110.416 189.817L110.092 187.124L121.176 185.822Z" fill="#0F1E35"/>
<path d="M89.316 184.551C90.5531 184.81 91.6238 185.259 92.5281 185.899C93.4245 186.536 94.1102 187.321 94.5851 188.255C95.0506 189.194 95.2539 190.234 95.1952 191.374L92.1656 191.205C92.1248 190.15 91.7742 189.268 91.1137 188.557C90.4454 187.845 89.6023 187.382 88.5845 187.168C87.9816 187.042 87.3943 187.017 86.8225 187.093C86.2508 187.169 85.7628 187.353 85.3586 187.644C84.9465 187.934 84.6856 188.341 84.5759 188.866C84.5267 189.101 84.5208 189.324 84.5581 189.536C84.5938 189.756 84.6736 189.961 84.7974 190.151C84.9134 190.338 85.0797 190.52 85.2962 190.697C85.5032 190.879 85.7535 191.05 86.047 191.21L90.1457 193.418C90.4986 193.606 90.8754 193.836 91.2762 194.108C91.6675 194.387 92.0254 194.727 92.3497 195.13C92.6645 195.54 92.8948 196.021 93.0405 196.575C93.1767 197.135 93.167 197.787 93.0114 198.531C92.7836 199.619 92.3187 200.474 91.6166 201.095C90.9051 201.722 90.0449 202.122 89.0362 202.295C88.0196 202.466 86.9406 202.428 85.7991 202.18C84.6419 201.929 83.6502 201.513 82.8238 200.931C81.9959 200.357 81.3535 199.638 80.8968 198.774C80.4401 197.91 80.1954 196.931 80.1628 195.837L83.3152 195.946C83.316 196.567 83.453 197.123 83.7263 197.614C83.9902 198.11 84.3576 198.523 84.8285 198.85C85.2915 199.176 85.8111 199.408 86.3873 199.545C86.9494 199.671 87.492 199.695 88.0151 199.616C88.5288 199.544 88.9688 199.375 89.3351 199.108C89.6936 198.84 89.9187 198.487 90.0105 198.048C90.0973 197.633 90.0433 197.267 89.8485 196.948C89.652 196.637 89.3861 196.364 89.0509 196.131C88.7062 195.903 88.3527 195.698 87.9903 195.516L85.1371 194.035C84.7451 193.838 84.3103 193.592 83.8329 193.296C83.3555 192.999 82.9132 192.633 82.506 192.196C82.0988 191.759 81.7999 191.235 81.6092 190.622C81.4107 190.009 81.3999 189.279 81.5769 188.433C81.7604 187.556 82.1058 186.823 82.613 186.235C83.1108 185.653 83.7149 185.207 84.4252 184.898C85.1355 184.59 85.9129 184.409 86.7574 184.358C87.594 184.304 88.4469 184.368 89.316 184.551Z" fill="#0F1E35"/>
<path d="M72.8914 178.907C74.4676 179.616 75.663 180.565 76.4777 181.756C77.289 182.954 77.7197 184.305 77.7696 185.809C77.8123 187.311 77.467 188.875 76.7337 190.501C76.0005 192.127 75.0568 193.422 73.9027 194.386C72.7414 195.346 71.4443 195.917 70.0115 196.097C68.5754 196.285 67.0692 196.025 65.4931 195.317C63.9169 194.608 62.7231 193.655 61.9118 192.457C61.0898 191.264 60.6575 189.916 60.6149 188.415C60.5649 186.91 60.9066 185.344 61.6398 183.718C62.3731 182.092 63.3204 180.798 64.4818 179.838C65.6358 178.874 66.9346 178.3 68.378 178.116C69.8108 177.935 71.3153 178.199 72.8914 178.907ZM71.7718 181.391C70.717 180.908 69.7325 180.746 68.8183 180.905C67.8967 181.061 67.0668 181.491 66.3286 182.194C65.583 182.894 64.9505 183.82 64.431 184.972C63.9114 186.125 63.6397 187.204 63.6158 188.211C63.5814 189.221 63.8112 190.123 64.3053 190.915C64.7921 191.704 65.5612 192.343 66.6127 192.833C67.6675 193.316 68.652 193.478 69.5662 193.319C70.4805 193.159 71.3104 192.73 72.0559 192.03C72.7942 191.327 73.4231 190.399 73.9426 189.247C74.4621 188.095 74.7391 187.013 74.7736 186.002C74.8048 184.999 74.577 184.103 74.0902 183.314C73.5961 182.522 72.8233 181.881 71.7718 181.391Z" fill="#0F1E35"/>
<path d="M62.79 173.816L52.5314 187.722L50.1997 186.011L58.8483 174.288L52.6949 169.773L54.3049 167.591L62.79 173.816Z" fill="#0F1E35"/>
<path d="M46.2783 158.807C47.1928 159.835 47.7883 160.926 48.0651 162.08C48.3365 163.227 48.2881 164.359 47.92 165.474C47.5465 166.583 46.8471 167.59 45.8216 168.495L37.6993 175.668L35.7354 173.496L43.8218 166.355C44.3075 165.926 44.6705 165.461 44.9107 164.961C45.1456 164.455 45.2731 163.942 45.2931 163.423C45.307 162.909 45.2208 162.409 45.0344 161.922C44.848 161.436 44.582 160.998 44.2365 160.61C43.8802 160.209 43.4737 159.891 43.0168 159.654C42.5485 159.416 42.0576 159.273 41.5438 159.225C41.0241 159.183 40.5006 159.25 39.9732 159.428C39.4459 159.605 38.9424 159.906 38.4626 160.329L30.3762 167.47L28.4304 165.282L36.5707 158.094C37.5962 157.188 38.6864 156.621 39.8414 156.39C40.991 156.154 42.124 156.242 43.2402 156.655C44.3512 157.061 45.3638 157.779 46.2783 158.807Z" fill="#0F1E35"/>
<path d="M36.9989 146.41L24.2616 153.48L26.9943 158.359L24.6231 159.675L17.7443 147.395L20.1155 146.078L22.8483 150.957L35.5856 143.887L36.9989 146.41Z" fill="#0F1E35"/>
<path d="M31.4488 134.707L15.169 140.5L14.1895 137.779L30.4693 131.985L31.4488 134.707Z" fill="#0F1E35"/>
<path d="M27.553 118.529C27.8452 120.233 27.7247 121.754 27.1915 123.093C26.6504 124.434 25.7694 125.543 24.5485 126.423C23.3263 127.294 21.8355 127.878 20.0763 128.174C18.3172 128.471 16.7155 128.408 15.2714 127.986C13.8259 127.557 12.6282 126.797 11.6784 125.708C10.7206 124.62 10.0956 123.225 9.80341 121.521C9.51121 119.818 9.63565 118.296 10.1767 116.956C10.7086 115.609 11.5857 114.5 12.8079 113.628C14.0288 112.749 15.5189 112.161 17.2781 111.865C19.0372 111.568 20.6396 111.635 22.085 112.064C23.5292 112.486 24.7308 113.245 25.6899 114.341C26.6398 115.43 27.2608 116.826 27.553 118.529ZM24.8669 118.982C24.6786 117.838 24.2632 116.93 23.6206 116.26C22.9766 115.581 22.1567 115.131 21.1609 114.91C20.1637 114.68 19.0419 114.671 17.7955 114.881C16.5491 115.091 15.5015 115.466 14.6527 116.007C13.7946 116.541 13.1748 117.233 12.7933 118.085C12.4104 118.928 12.3091 119.923 12.4895 121.069C12.6778 122.213 13.0932 123.121 13.7359 123.791C14.3785 124.462 15.1984 124.912 16.1956 125.141C17.1914 125.363 18.3125 125.369 19.5589 125.158C20.8053 124.948 21.8575 124.576 22.7156 124.042C23.5657 123.51 24.1823 122.821 24.5652 121.978C24.9467 121.127 25.0473 120.128 24.8669 118.982Z" fill="#0F1E35"/>
<path d="M26.0513 107.681L8.80146 106.66L8.96998 103.737L21.5901 96.4539L9.43133 95.7344L9.59985 92.8112L26.8497 93.8321L26.6812 96.7552L14.0611 104.038L26.2198 104.758L26.0513 107.681Z" fill="#0F1E35"/>
</svg>
