<svg width="204" height="70" viewBox="0 0 204 70" fill="none" xmlns="http://www.w3.org/2000/svg">
<path d="M20.2651 18.1464C31.352 12.1299 30.0993 -2.07398 19.3255 5.49317C7.73754 13.6185 2.28805 41.034 9.86723 53.3151C12.1848 57.0986 15.6925 59.8278 19.8893 56.7265C22.9585 54.5556 25.2135 49.8416 25.4014 45.3758L26.9674 45.6239C26.2783 55.7961 16.5068 65.7202 7.04852 57.7189C-3.22409 49.0353 -1.47023 25.2174 7.1738 11.8198C10.9947 5.98937 17.9475 0.220975 25.1509 1.77162C31.0388 3.01213 31.1641 10.8274 27.2179 15.9135C25.5267 18.1464 22.5201 21.2477 20.2651 18.1464Z" fill="#1F53F1"/>
<path d="M51.7211 19.2629C50.8441 19.7591 50.0925 20.3173 49.5914 20.7515C48.8397 21.4338 48.4013 22.6123 48.276 23.4806H46.5221C46.6474 22.2401 47.0859 20.3173 47.9002 19.3249C48.0254 19.2629 48.0254 19.2009 48.0881 19.1388C48.8397 18.2085 50.7189 17.03 50.9068 14.9211C50.9694 14.4869 51.032 13.6185 50.7815 13.2464C50.5936 12.7502 49.9672 12.5021 49.4661 12.5021C48.5265 12.5021 47.1485 13.8046 46.6474 15.2932V15.2312C46.5848 15.4173 46.5848 15.6034 46.5848 15.6654C46.5848 15.7274 46.5221 16.2857 46.5221 17.03C46.5221 17.154 46.8979 17.4641 46.9606 17.5882C44.8309 17.8983 43.6408 16.8439 43.7661 15.2312C43.8913 14.2388 44.4551 13.0603 45.5199 12.0679C46.71 10.9514 48.276 10.4552 49.7167 10.4552C51.032 10.4552 52.2848 10.8274 53.2244 11.5717C54.6024 12.6882 54.853 14.3008 54.4145 15.8515C54.0387 17.092 52.4727 18.6426 51.7211 19.2629ZM63.1838 33.4048H64.8124C62.808 38.4909 58.6112 50.5239 55.2914 53.9353C52.7233 56.6024 50.2804 55.4239 49.0276 52.1986C47.8375 49.0973 47.7749 44.4454 48.0254 41.7783C46.2089 45.1277 41.699 52.1366 37.2517 52.0745C34.6836 52.0125 32.9297 50.5859 31.9275 48.353C28.7956 41.7162 31.9275 29.9934 39.3188 27.3883C43.4529 25.8997 48.5892 26.5199 49.2782 31.544C50.8441 31.42 52.9738 31.0478 54.2266 31.1098C55.0409 31.1098 55.0409 31.3579 54.9782 32.0402C54.7277 34.1491 50.5309 60.2619 56.2936 49.4074C58.8618 44.1352 60.9915 39.1112 63.1838 33.4048ZM48.1507 38.4909C48.3386 37.3124 48.7771 34.0871 48.965 32.9086C48.7144 34.3972 46.9606 34.025 46.9606 34.025C49.1529 29.187 43.077 24.1009 38.5671 34.9554C36.8759 38.9871 35.811 49.7176 39.1309 49.5935C41.699 49.4695 47.0232 40.8479 48.1507 38.4909Z" fill="#1F53F1"/>
<path d="M75.0591 31.544C75.1217 28.6288 73.5557 28.0085 72.4909 30.4275C69.7348 36.5681 67.7931 41.9023 64.4106 52.2606C63.5963 52.3226 58.7732 53.0049 58.7732 53.0049C59.0864 48.477 60.026 39.6074 60.5897 34.2731L60.715 32.8465H60.7776C61.9051 32.7225 63.9095 32.4124 65.4755 32.2883C66.7282 32.2263 66.7282 32.2263 66.6029 33.4668C66.3524 36.5061 65.9139 39.6074 65.6007 42.6466C66.7909 39.7934 70.6744 29.0009 72.6788 27.1402C75.4349 24.5971 79.8195 26.3959 80.6965 30.7997C81.1976 33.2807 80.6965 37.3124 79.6943 43.515C81.2602 40.1036 84.58 33.0326 86.5218 30.2415C89.2778 26.706 94.4142 27.0161 95.479 32.3503C96.2933 36.5681 94.4768 43.8871 93.7251 47.9808C92.9108 52.8809 90.8438 63.9835 95.7295 67.643C99.112 70.1861 104.687 68.4494 104.812 63.9835C104.937 58.1531 96.857 58.3392 97.8592 63.3012C97.2955 63.7354 96.0427 63.3012 96.5438 61.2544C96.6691 60.6341 96.9823 60.1379 97.3581 59.7037C97.9845 58.9594 98.9241 58.5252 99.8636 58.3391C100.114 58.2771 100.365 58.2771 100.615 58.2151C100.928 58.2151 101.304 58.2151 101.618 58.2151C102.933 58.4012 103.935 58.9594 104.687 59.7657C105.376 60.6341 105.814 61.6885 105.877 62.9291C105.94 63.3012 105.94 63.7354 105.877 64.1696C105.376 68.7595 100.49 70.6203 96.4186 69.4418C78.003 63.8594 93.5999 31.1719 89.4031 30.4896C88.8394 30.3655 88.3383 30.6756 87.8372 31.42C84.5174 36.32 81.5734 43.7631 79.1305 49.4074C78.9426 49.5315 74.1195 50.1517 73.3052 50.3378C73.681 44.3833 74.9338 37.4365 75.0591 31.544Z" fill="#1F53F1"/>
<path d="M153.779 34.2731L152.965 36.382C151.462 39.9175 149.645 41.7162 147.14 41.8403C145.323 41.9643 142.504 41.158 140.813 38.801C141.001 42.8947 138.934 51.5783 131.23 51.8264C127.659 51.9505 125.028 50.2758 123.4 47.7327C120.017 42.4605 121.583 32.8465 126.406 29.0009C129.037 26.83 133.109 25.7756 136.428 27.5123L136.491 27.0161C136.616 27.0161 141.815 26.0237 141.941 26.4579C142.254 27.3263 142.254 28.6908 142.379 30.4896C142.379 30.9858 142.442 31.544 142.504 32.0402C147.14 29.4351 141.627 27.0781 142.943 23.3566L146.701 23.1085C150.585 22.9224 147.703 32.1643 142.63 32.7845C142.818 33.839 143.068 34.9554 143.381 36.1959C144.634 41.096 147.954 40.8479 149.896 38.4909C150.898 37.2504 151.587 35.7618 152.213 34.2731H153.779ZM129.037 47.4226C133.485 55.7341 140.938 42.9568 138.871 37.3124C137.18 35.0795 136.428 31.7301 136.366 29.0009C132.608 27.2022 130.165 32.4744 129.1 35.4516C127.784 39.0491 127.409 44.4454 129.037 47.4226Z" fill="#1F53F1"/>
<path d="M163.984 27.2022C162.794 26.768 161.416 30.1794 161.04 31.2339L153.335 52.6328C152.333 52.6948 147.886 53.129 147.51 53.191C147.886 46.1821 149.076 37.2504 149.953 29.9313L150.141 28.4427C151.519 28.2566 153.335 28.0085 154.901 27.8845C156.154 27.7604 156.091 27.8225 155.966 29.125L155.59 32.9086L154.087 45.3758L159.474 31.1098C160.1 29.3111 161.102 27.0161 162.543 25.7136C165.237 23.0465 169.371 23.9769 170.373 28.8769C171.814 36.1339 162.919 60.5101 169.245 67.1468C169.997 67.8911 171.062 68.4494 172.189 68.7595C175.885 69.5038 178.892 67.3329 179.017 64.1696C179.079 61.6885 177.451 59.5797 174.883 59.7657C174.82 59.7657 174.695 59.7657 174.632 59.8278C174.507 59.8278 174.444 59.8278 174.319 59.8278C172.44 60.2619 171.688 61.6265 172.064 63.4253C171.5 63.9215 170.185 63.4253 170.749 61.4404C170.874 60.8202 171.187 60.324 171.563 59.8898C172.189 59.1455 173.129 58.7113 174.068 58.5252C174.319 58.4632 174.57 58.4012 174.82 58.4012C175.133 58.3392 175.509 58.4012 175.822 58.4012C177.138 58.5252 178.14 59.0835 178.892 59.9518C179.581 60.8202 180.019 61.8746 180.082 63.0531C180.144 63.4873 180.144 63.9215 180.082 64.3557C179.769 67.0228 178.14 68.6354 176.073 69.4418C175.321 69.7519 174.507 69.938 173.63 69.938C173.379 70 173.192 70 173.004 70V69.938C172.252 69.938 171.5 69.8139 170.811 69.6278C154.463 64.5417 163.984 41.4061 164.798 29.6212C164.923 28.1946 164.61 27.4503 163.984 27.2022Z" fill="#1F53F1"/>
<path d="M203.269 5.18304C196.442 23.8528 192.245 38.3048 191.869 50.3378L190.303 50.71C187.234 35.2656 191.995 5.74127 195.753 0.717178C200.701 0.220975 205.963 -2.01196 203.269 5.18304ZM195.189 58.2771C193.498 59.9518 187.422 63.7974 186.169 55.1758C187.923 54.7417 189.865 53.8113 191.556 53.067C193.435 52.3227 193.623 57.2847 195.189 58.2771Z" fill="#1F53F1"/>
</svg>
