<svg width="95" height="114" viewBox="0 0 95 114" fill="none" xmlns="http://www.w3.org/2000/svg">
<g clip-path="url(#clip0_966_1162)">
<path d="M48.3321 0C49.3968 0.781434 50.528 1.47356 51.4818 2.36663C59.6887 9.91304 69.2929 14.4007 80.2946 15.8296C83.5329 16.2538 86.8379 16.3878 90.0984 16.5441C93.3812 16.7004 94.8007 18.0846 94.8229 21.3666C94.8895 28.8014 95.0669 36.2139 94.9782 43.6486C94.8895 52.624 94.0244 61.51 91.7176 70.2174C87.0153 87.9448 76.3464 100.783 60.1545 108.976C56.5834 110.785 52.8126 112.236 49.0863 113.71C48.1991 114.067 46.9791 114.134 46.0919 113.844C37.7076 110.941 29.8556 107.012 22.913 101.385C13.3532 93.6381 7.09819 83.7027 3.61582 71.9365C1.41993 64.4348 0.288714 56.7544 0.111268 48.9847C-0.0883585 39.5629 0.0447258 30.1187 0.0669065 20.6968C0.0669065 18.2186 1.6861 16.7227 4.34778 16.5664C7.18692 16.4101 10.026 16.3655 12.843 16.0529C24.4435 14.8249 34.6688 10.3819 43.3193 2.43361C44.3174 1.51821 45.4708 0.80376 46.5577 0C47.1344 0 47.7333 0 48.3321 0ZM8.0076 24.6486C7.98542 25.0059 7.96324 25.3631 7.94106 25.7427C7.87452 30.5652 7.7858 35.3878 7.76361 40.2327C7.74143 48.6275 8.20723 57 10.0039 65.2385C12.1554 75.1739 16.3919 84.0153 23.5563 91.2938C30.2105 98.0364 38.2621 102.479 47.0457 105.739C47.334 105.851 47.7776 105.784 48.0882 105.65C52.2138 103.707 56.4946 101.988 60.4206 99.7109C69.0267 94.7321 75.7253 87.8108 80.1836 78.8132C84.5311 70.0388 86.3055 60.6169 86.727 50.9718C87.104 42.5546 86.86 34.1152 86.9044 25.698C86.9044 25.3408 86.86 24.9835 86.8379 24.6263C83.9766 24.3137 81.204 24.0458 78.4314 23.6663C67.2079 22.1257 57.2044 17.7051 48.5096 10.3596C47.6889 9.66745 47.2009 9.60047 46.3359 10.3372C38.373 17.1022 29.168 21.4113 18.854 23.2197C15.3051 23.8449 11.7118 24.1575 8.0076 24.6486Z" fill="#0F1E35"/>
<path d="M41.7441 62.6933C43.696 60.7285 45.3595 59.0317 47.0231 57.3572C51.6367 52.7133 56.2502 48.047 60.8638 43.4254C63.1928 41.1034 66.6752 41.8179 67.6289 44.7873C68.0504 46.0599 67.8508 47.2879 67.0522 48.3819C66.7639 48.7614 66.4312 49.1187 66.0763 49.4536C59.1781 56.4195 52.2577 63.3631 45.3595 70.329C42.9418 72.7626 40.9234 72.7626 38.5057 70.329C35.0898 66.8907 31.674 63.4524 28.2582 60.0141C27.127 58.8754 26.7277 57.4912 27.1713 55.9283C27.6149 54.4101 28.6796 53.4947 30.2101 53.1598C31.7184 52.8472 32.9383 53.4277 34.003 54.4994C36.3541 56.866 38.7053 59.2103 41.0343 61.5993C41.3448 61.8672 41.5001 62.2691 41.7441 62.6933Z" fill="#1F53F1"/>
</g>
<defs>
<clipPath id="clip0_966_1162">
<rect width="95" height="114" fill="white"/>
</clipPath>
</defs>
</svg>
