<svg width="133" height="110" viewBox="0 0 133 110" fill="none" xmlns="http://www.w3.org/2000/svg">
<path d="M37.8859 109.834C38.0853 107.23 38.9992 105.074 40.96 103.432C41.8407 102.702 42.8709 102.37 44.0341 102.37C46.7758 102.403 49.5176 102.387 52.2593 102.387C52.6415 102.387 53.0237 102.453 53.0735 101.856C53.4723 97.5934 53.8877 93.3308 54.3198 88.9188C53.8711 88.9188 53.5056 88.9188 53.1234 88.9188C37.8361 88.9188 22.5488 88.9188 7.26147 88.9188C3.72213 88.9188 0.697899 86.4143 0.0830832 82.9976C0 82.5663 0 82.1185 0 81.6707C0.0166166 56.8411 0.0166166 31.9949 0.0166166 7.13208C0.0166166 3.05187 2.59219 0.331725 6.6965 0.0497587C7.22824 0.0165862 7.74335 0.0165862 8.27508 0.0165862C47.3408 0.0165862 86.4231 0.0165862 125.489 0C127.799 0 129.809 0.580518 131.354 2.35525C132.534 3.71532 132.933 5.35736 132.933 7.13208C132.933 16.7521 132.933 26.3721 132.933 35.9921C132.933 51.1686 132.867 66.345 132.983 81.5214C133.016 85.5187 129.444 89.0184 125.522 88.9852C110.235 88.8857 94.9474 88.9354 79.6601 88.9354C79.361 88.9354 79.0619 88.9354 78.6299 88.9354C79.0619 93.4303 79.4774 97.8422 79.9094 102.354C80.2583 102.37 80.5408 102.403 80.8399 102.403C83.4986 102.403 86.1572 102.42 88.8159 102.403C90.0289 102.387 91.0592 102.768 91.9066 103.598C93.4519 105.074 94.316 106.882 94.3659 109.038C94.3825 109.668 94.1665 109.95 93.4519 109.95C75.2069 109.934 56.9618 109.934 38.7001 109.934C38.4841 109.884 38.2349 109.867 37.8859 109.834ZM125.323 69.6125C125.323 48.8962 125.323 28.2464 125.323 7.57991C86.34 7.57991 47.4239 7.57991 8.45787 7.57991C8.45787 28.2795 8.45787 48.9128 8.45787 69.6125C47.4405 69.6125 86.3566 69.6125 125.323 69.6125Z" fill="#0F1E35"/>
<path d="M70.7461 61.2143C70.7461 53.9629 70.7461 46.7612 70.7461 39.5263C81.3821 39.5263 91.9682 39.5263 102.671 39.5263C102.671 39.8582 102.671 40.1237 102.671 40.3892C102.671 47.0433 102.671 53.714 102.687 60.3681C102.687 61.0152 102.588 61.2973 101.84 61.2807C91.7356 61.2475 81.6314 61.2641 71.5272 61.2641C71.2779 61.2807 71.0452 61.2475 70.7461 61.2143Z" fill="#FF725E"/>
<path d="M47.945 21.7876C47.9783 25.9526 44.6047 29.3544 40.4334 29.371C36.2787 29.3876 32.8884 26.0024 32.8718 21.8374C32.8718 17.7056 36.179 14.3536 40.3503 14.3038C44.5049 14.254 47.9118 17.606 47.945 21.7876Z" fill="#1F53F1"/>
<path d="M102.621 17.6889C102.621 18.5186 102.621 19.2487 102.621 20.0618C92.0012 20.0618 81.4151 20.0618 70.7625 20.0618C70.7625 19.2819 70.7625 18.5186 70.7625 17.6889C81.3818 17.6889 91.968 17.6889 102.621 17.6889Z" fill="#0F1E35"/>
<path d="M70.7458 25.1561C70.7458 24.2601 70.7458 23.4968 70.7458 22.7003C81.3985 22.7003 91.968 22.7003 102.654 22.7003C102.654 23.3972 102.67 24.0609 102.654 24.7081C102.637 25.3055 102.172 25.1395 101.856 25.1395C98.6487 25.1561 95.4413 25.1561 92.2339 25.1561C85.4534 25.1561 78.673 25.1561 71.8925 25.1561C71.5269 25.1561 71.1779 25.1561 70.7458 25.1561Z" fill="#0F1E35"/>
<path d="M63.1012 39.4766C63.1012 40.2233 63.151 40.887 63.0679 41.5342C63.0513 41.7167 62.6192 41.949 62.3865 41.9656C60.1763 41.9988 57.966 41.9822 55.739 41.9822C47.9116 41.9822 40.0842 41.9822 32.2568 41.9656C31.1599 41.9656 31.1599 41.9656 31.1599 40.9036C31.1766 39.2443 30.9439 39.4766 32.6224 39.4766C42.3942 39.4766 52.1494 39.4766 61.9212 39.4766C62.2868 39.4766 62.6358 39.4766 63.1012 39.4766Z" fill="#0F1E35"/>
<path d="M63.1013 51.1586C52.3656 51.1586 41.8127 51.1586 31.21 51.1586C31.21 50.3787 31.21 49.6154 31.21 48.7691C31.5091 48.7525 31.8082 48.7193 32.0908 48.7193C42.1119 48.7193 52.1163 48.7193 62.1374 48.7027C62.9019 48.7027 63.1844 48.9184 63.1013 49.6817C63.0681 50.1464 63.1013 50.6442 63.1013 51.1586Z" fill="#0F1E35"/>
<path d="M63.1013 58.8248C63.1013 59.5218 63.1013 60.1523 63.1013 60.7829C63.1013 61.3637 62.6858 61.2641 62.3368 61.2641C60.3758 61.2641 58.4148 61.2641 56.4372 61.2641C48.3106 61.2641 40.1674 61.2641 32.0409 61.2641C31.7916 61.2641 31.5423 61.2641 31.2266 61.2641C31.2266 60.4178 31.2266 59.6379 31.2266 58.8248C41.8293 58.8248 52.3988 58.8248 63.1013 58.8248Z" fill="#0F1E35"/>
<path d="M63.0514 44.5542C63.0514 45.4171 63.0514 46.1638 63.0514 46.9603C52.4155 46.9603 41.8626 46.9603 31.2266 46.9603C31.2266 46.1472 31.2266 45.3673 31.2266 44.5542C41.8459 44.5542 52.4155 44.5542 63.0514 44.5542Z" fill="#0F1E35"/>
<path d="M31.1603 56.1533C31.1603 55.4729 31.127 54.8424 31.1769 54.2118C31.1935 54.0459 31.4262 53.8633 31.609 53.7804C31.7752 53.714 31.9912 53.7638 32.1906 53.7638C42.1453 53.7638 52.1165 53.7638 62.0711 53.7638C62.3703 53.7638 62.6694 53.7638 63.035 53.7638C63.035 54.6101 63.035 55.3568 63.035 56.1699C52.4156 56.1533 41.8461 56.1533 31.1603 56.1533Z" fill="#0F1E35"/>
</svg>
