<svg width="108" height="110" viewBox="0 0 108 110" fill="none" xmlns="http://www.w3.org/2000/svg">
<path d="M108 72.8854C107.106 75.3203 105.316 76.2391 102.816 76.0323C102.335 75.9864 101.807 75.9405 101.325 76.0553C101.004 76.1242 100.545 76.4228 100.477 76.7215C99.582 80.213 98.1599 83.4977 96.1643 86.8285C96.9213 87.5176 97.7241 88.2067 98.4581 88.9647C100.201 90.7335 100.224 92.9846 98.504 94.7763C96.6231 96.7288 94.6963 98.6353 92.7696 100.519C90.9805 102.265 88.7555 102.242 86.9664 100.496C86.2324 99.7838 85.5672 98.9799 85.0167 98.3826C82.2183 99.5771 79.6493 100.726 77.0344 101.782C76.094 102.173 74.7407 102.15 74.2361 102.839C73.7314 103.528 74.0755 104.814 74.0526 105.848C73.9838 108.375 72.3781 109.96 69.8321 109.983C67.1713 110.006 64.4876 110.006 61.8269 109.983C59.3955 109.96 57.7669 108.329 57.6981 105.871C57.6752 104.837 58.0192 103.551 57.5146 102.862C57.0329 102.196 55.6796 102.196 54.7392 101.805C52.1472 100.726 49.5782 99.6001 46.6881 98.3826C46.1835 98.9569 45.5412 99.7379 44.8072 100.473C43.0181 102.242 40.7932 102.265 39.004 100.542C37.0314 98.6353 35.0817 96.6828 33.1779 94.7074C31.5035 92.9616 31.5494 90.7335 33.2238 88.9877C33.9349 88.2526 35.1047 87.5865 35.2423 86.7366C35.3799 85.9326 34.3936 84.9679 34.0037 84.0261C33.0632 81.6831 32.1687 79.3631 31.3429 76.9741C31.0906 76.262 30.8383 75.9634 30.0814 76.0323C29.2785 76.0783 28.4757 76.0783 27.6729 76.0323C25.3333 75.9175 23.7735 74.3095 23.7506 71.9666C23.7277 69.302 23.7277 66.6144 23.7506 63.9499C23.7735 61.4001 25.3104 59.8152 27.8564 59.7003C28.9115 59.6544 30.219 59.976 30.953 59.4476C31.6182 58.9653 31.5723 57.5641 31.9852 56.6223C32.9256 54.3712 33.889 52.143 34.99 49.9608C35.3799 49.1568 35.4029 48.6974 34.7147 48.1461C34.1413 47.7097 33.6596 47.1354 33.1779 46.6071C31.5952 44.9303 31.5494 42.7251 33.155 41.0712C35.1047 39.0498 37.1002 37.0284 39.1417 35.0759C40.7932 33.491 42.9952 33.5369 44.6696 35.1219C45.4724 35.8799 46.2064 37.0744 47.101 37.2352C47.9267 37.373 48.936 36.2934 49.8994 35.9029C52.1472 34.984 54.4181 34.0882 56.7347 33.3531C57.5376 33.1005 57.744 32.7789 57.7211 32.0209C57.6752 31.102 57.6752 30.1832 57.7669 29.2874C58.0192 27.197 59.5102 25.7958 61.5975 25.7729C64.4188 25.704 67.2401 25.704 70.0614 25.7729C72.3323 25.8188 73.8232 27.3808 73.9608 29.7238C74.0067 30.5278 74.0067 31.3317 73.9608 32.1357C73.9149 32.8937 74.259 33.1005 74.9242 33.3761C77.929 34.5476 80.9109 35.788 83.8469 37.0973C84.4891 37.373 84.8561 37.396 85.2919 36.8676C85.8424 36.2474 86.4388 35.6502 87.0581 35.0759C88.6179 33.6288 90.8199 33.491 92.3338 34.9381C94.5358 37.0055 96.669 39.1417 98.7104 41.3469C100.11 42.84 100.018 45.0222 98.6186 46.5612C97.8388 47.3881 96.9671 48.1461 96.3478 48.7434C97.6094 51.8444 98.871 54.7157 99.949 57.633C100.706 59.7003 100.614 59.8152 102.816 59.7233C105.293 59.6084 107.014 60.5272 107.885 62.8932C108 66.178 108 69.5317 108 72.8854ZM65.8868 106.399C67.0796 106.399 68.2494 106.353 69.4421 106.422C70.222 106.468 70.5431 106.216 70.4973 105.389C70.4514 104.217 70.4743 103.023 70.4743 101.828C70.4743 100.174 70.8184 99.692 72.4011 99.3704C76.4839 98.5434 80.2457 96.9355 83.7093 94.6614C84.8103 93.9493 85.4984 94.0412 86.4618 94.983C87.3793 95.8789 88.3197 96.7977 89.2143 97.7395C89.696 98.2448 90.04 98.2448 90.5217 97.7395C92.2191 95.9937 93.9623 94.2709 95.7056 92.5481C96.1643 92.0887 96.302 91.7442 95.7744 91.2388C94.7881 90.297 93.8247 89.3093 92.8613 88.3216C92.1044 87.5635 92.0126 86.7136 92.5861 85.8407C94.9486 82.2344 96.5543 78.3294 97.4259 74.0798C97.6553 72.9084 98.3893 72.426 99.5361 72.4489C100.844 72.4719 102.128 72.426 103.436 72.4719C104.101 72.4949 104.399 72.2881 104.399 71.5761C104.376 69.0952 104.376 66.6144 104.399 64.1336C104.399 63.3986 104.078 63.2378 103.436 63.2378C102.22 63.2607 101.004 63.2378 99.7655 63.2378C98.2058 63.2378 97.6782 62.8702 97.38 61.3772C96.5543 57.2884 94.9716 53.5212 92.6778 50.0297C91.9209 48.8582 92.0126 48.2151 93.0219 47.2044C93.9394 46.2855 94.834 45.3437 95.7744 44.4479C96.2331 44.0115 96.2331 43.6669 95.7744 43.2075C94.0082 41.4617 92.242 39.716 90.5217 37.9472C90.0171 37.4419 89.673 37.4878 89.2143 37.9702C88.2738 38.9579 87.2875 39.9227 86.3012 40.8875C85.5901 41.5996 84.7414 41.7144 83.9157 41.1631C80.2916 38.7282 76.3463 37.1203 72.0799 36.2474C70.956 36.0177 70.4973 35.3056 70.4973 34.203C70.5202 32.8937 70.4743 31.6074 70.5202 30.2981C70.5431 29.586 70.3367 29.2644 69.5568 29.2874C67.1254 29.3333 64.6711 29.3333 62.2397 29.2874C61.4369 29.2644 61.2764 29.6089 61.2993 30.321C61.3452 31.5385 61.3222 32.7559 61.2993 33.9963C61.2993 35.4894 60.9323 36.0177 59.5102 36.3163C55.4044 37.1662 51.5967 38.7512 48.0873 41.0712C46.9863 41.7833 46.2982 41.6914 45.3348 40.7496C44.4173 39.8308 43.4769 38.935 42.5823 37.9932C42.1006 37.4878 41.7565 37.4878 41.2749 37.9932C39.5316 39.7619 37.7884 41.5306 36.0222 43.2534C35.5634 43.7128 35.5864 44.0574 36.0451 44.4938C37.0314 45.4356 37.9948 46.4234 38.9582 47.4111C39.7151 48.1691 39.8298 49.019 39.2334 49.8919C36.825 53.4983 35.2194 57.4033 34.3707 61.6528C34.1413 62.8243 33.4302 63.3067 32.2604 63.2837C30.953 63.2607 29.6685 63.3067 28.361 63.2607C27.6959 63.2378 27.3977 63.4215 27.3977 64.1566C27.4206 66.6374 27.4206 69.1182 27.3977 71.599C27.3977 72.3341 27.6959 72.5179 28.361 72.4949C29.5767 72.4719 30.7924 72.4949 32.031 72.4949C33.6137 72.4949 34.1184 72.8394 34.4165 74.3555C35.2652 78.4442 36.825 82.2114 39.1187 85.7029C39.8757 86.8744 39.7839 87.5406 38.7976 88.5513C37.8801 89.4701 36.9855 90.4119 36.0451 91.3077C35.5864 91.7442 35.5864 92.0887 36.0451 92.5481C37.8113 94.2939 39.5775 96.0396 41.2978 97.8084C41.8024 98.3137 42.1465 98.2908 42.6052 97.7854C43.5227 96.8206 44.4861 95.9018 45.4266 94.9371C46.2064 94.1331 47.0781 94.0412 47.9956 94.6384C51.5509 97.0274 55.4502 98.5894 59.6249 99.4852C60.9323 99.7609 61.2993 100.289 61.2993 101.667C61.2993 102.862 61.3452 104.033 61.2764 105.228C61.2305 106.147 61.4828 106.537 62.4691 106.468C63.5931 106.33 64.7399 106.399 65.8868 106.399Z" fill="#0F1E35"/>
<path d="M81.6677 0C81.9201 0.091882 82.1494 0.206735 82.4017 0.275646C85.613 1.19447 87.7921 3.95093 87.815 7.28165C87.8379 15.1605 87.8379 23.0164 87.815 30.8953C87.815 32.2046 87.1269 32.9856 86.0717 32.9856C84.9478 32.9856 84.2597 32.1817 84.2597 30.8034C84.2367 26.7606 84.2597 22.6949 84.2597 18.652C84.2597 16.1023 82.7687 14.6322 80.1997 14.6322C56.0236 14.6322 31.8475 14.6322 7.64839 14.6322C5.07938 14.6322 3.61138 16.1253 3.61138 18.675C3.61138 33.7207 3.61138 48.7664 3.61138 63.8121C3.61138 66.4307 5.07938 67.8778 7.74014 67.8778C11.7542 67.8778 15.7453 67.8778 19.7594 67.8778C21.021 67.8778 21.7091 68.4521 21.8467 69.5317C21.9843 70.5424 21.2045 71.4383 20.0576 71.4612C15.5848 71.4842 11.1349 71.5991 6.66207 71.4153C2.85445 71.2545 0.0101945 67.9927 0.0101945 64.1107C-0.0127431 58.0694 0.0101945 52.0512 0.0101945 46.0099C0.0101945 33.3761 0.0101945 20.7194 0.0101945 8.08562C0.0101945 3.83607 1.79932 1.42417 5.8822 0.183764C5.95101 0.160794 6.04276 0.0689115 6.13451 0C31.3199 0 56.4824 0 81.6677 0ZM3.61138 12.0825C5.90514 10.7502 8.19889 11.0029 10.4697 11.0029C31.664 11.0029 52.8812 10.9799 74.0754 11.0258C77.4243 11.0258 80.842 10.4056 84.1909 11.9676C84.1909 10.5205 84.0762 9.21117 84.2138 7.92482C84.4661 5.3751 82.4247 3.5834 79.9474 3.60637C55.9319 3.67528 31.8933 3.65231 7.87776 3.65231C7.5337 3.65231 7.18964 3.62934 6.84557 3.65231C5.23995 3.79013 3.70313 5.26025 3.61138 6.86818C3.54257 8.49909 3.61138 10.153 3.61138 12.0825Z" fill="#0F1E35"/>
<path d="M11.8688 40.3822C12.7404 40.3822 13.612 40.3592 14.4836 40.3822C15.6305 40.4281 16.2957 41.1172 16.3875 42.2657C16.4333 42.84 16.4333 43.4143 16.3875 43.9885C16.2957 45.0681 15.6305 45.7573 14.5525 45.7802C12.7633 45.8262 10.9742 45.8262 9.18508 45.7802C8.10702 45.7573 7.44183 45.0452 7.35008 43.9656C7.30421 43.3913 7.30421 42.817 7.35008 42.2428C7.41889 41.0942 8.10702 40.4281 9.25389 40.3822C10.1026 40.3592 10.9742 40.3822 11.8688 40.3822Z" fill="#0F1E35"/>
<path d="M38.3618 21.822H8.91003C7.99253 21.822 7.2356 21.087 7.2356 20.1452C7.2356 19.2263 7.9696 18.4683 8.91003 18.4683H38.3618C39.2793 18.4683 40.0362 19.2034 40.0362 20.1452C40.0133 21.087 39.2793 21.822 38.3618 21.822Z" fill="#1F53F1"/>
<path d="M45.1513 29.3793H8.91003C7.99253 29.3793 7.2356 28.6443 7.2356 27.7025C7.2356 26.7837 7.9696 26.0256 8.91003 26.0256H45.1513C46.0688 26.0256 46.8257 26.7607 46.8257 27.7025C46.8028 28.6443 46.0688 29.3793 45.1513 29.3793Z" fill="#1F53F1"/>
<path d="M30.1502 36.9595H8.91003C7.99253 36.9595 7.2356 36.2245 7.2356 35.2827C7.2356 34.3639 7.9696 33.6058 8.91003 33.6058H30.1731C31.0906 33.6058 31.8475 34.3409 31.8475 35.2827C31.8246 36.2015 31.0677 36.9595 30.1502 36.9595Z" fill="#1F53F1"/>
<path d="M20.6771 45.7572C19.2091 45.7572 18.0164 44.5627 18.0164 43.0926C18.0164 41.6225 19.2091 40.428 20.6771 40.428C22.1451 40.428 23.3379 41.6225 23.3379 43.0926C23.3379 44.5627 22.1451 45.7572 20.6771 45.7572Z" fill="#1F53F1"/>
<path d="M67.4691 9.64759C68.6346 9.64759 69.5794 8.70144 69.5794 7.53431C69.5794 6.36717 68.6346 5.42102 67.4691 5.42102C66.3037 5.42102 65.3589 6.36717 65.3589 7.53431C65.3589 8.70144 66.3037 9.64759 67.4691 9.64759Z" fill="#1F53F1"/>
<path d="M73.2499 9.64759C74.4154 9.64759 75.3602 8.70144 75.3602 7.53431C75.3602 6.36717 74.4154 5.42102 73.2499 5.42102C72.0844 5.42102 71.1396 6.36717 71.1396 7.53431C71.1396 8.70144 72.0844 9.64759 73.2499 9.64759Z" fill="#1F53F1"/>
<path d="M79.0072 9.64759C80.1727 9.64759 81.1175 8.70144 81.1175 7.53431C81.1175 6.36717 80.1727 5.42102 79.0072 5.42102C77.8418 5.42102 76.897 6.36717 76.897 7.53431C76.897 8.70144 77.8418 9.64759 79.0072 9.64759Z" fill="#1F53F1"/>
<path d="M78.6626 64.5931C79.3737 65.6038 79.7407 66.8672 79.7407 68.4521C79.7407 69.7385 79.3966 70.7262 78.7314 71.4383C78.1351 72.0815 77.4011 72.426 76.5294 72.426C75.6349 72.426 74.9009 72.1045 74.2816 71.4843C73.8916 71.0708 73.5934 70.5195 73.3411 69.8074C73.1117 69.0953 72.9741 68.3143 72.9741 67.5104C72.9741 66.247 73.2723 65.2133 73.8457 64.4553C74.4192 63.6743 75.1991 63.2838 76.1395 63.2838C77.2176 63.2608 78.0433 63.7202 78.6626 64.5931Z" fill="#EB5757"/>
<path d="M65.8673 43.0792C52.3371 43.0792 41.3538 54.0859 41.3538 67.6958C41.3538 81.283 52.3144 92.3125 65.8673 92.3125C79.3975 92.3125 90.3808 81.3058 90.3808 67.6958C90.3808 54.0859 79.4202 43.0792 65.8673 43.0792ZM56.5894 73.1535C55.6571 73.8157 54.3837 74.1354 52.7237 74.1354C51.5412 74.1354 50.336 73.9071 49.0626 73.4504L48.4258 70.7558C49.6765 71.7377 51.0409 72.2173 52.5418 72.2173C53.8834 72.2173 54.5429 71.7605 54.5429 70.8243C54.5429 70.4589 54.4064 70.1621 54.1563 69.9109C53.9061 69.6825 53.3376 69.3628 52.4735 68.9518C51.0864 68.2896 50.1768 67.7872 49.7675 67.399C49.0171 66.7367 48.6305 65.8918 48.6305 64.8642C48.6305 63.7453 49.0626 62.8547 49.9267 62.1925C50.7908 61.5302 51.9505 61.1877 53.4059 61.1877C54.5656 61.1877 55.6798 61.3704 56.7031 61.7358V63.928C55.7253 63.3799 54.8157 63.1059 53.9744 63.1059C53.4513 63.1059 53.0193 63.2201 52.7237 63.4256C52.4053 63.6311 52.2461 63.928 52.2461 64.2933C52.2461 64.5902 52.3826 64.8414 52.6327 65.0469C52.8829 65.2524 53.3376 65.5036 53.9971 65.7776C55.3388 66.3257 56.2938 66.8738 56.8851 67.399C57.7264 68.1525 58.1357 69.0431 58.1357 70.0707C58.1585 71.3952 57.6355 72.4228 56.5894 73.1535ZM67.8457 73.8842H59.2955C59.7048 73.5874 59.9549 73.222 60.0459 72.7653C60.0914 72.5598 60.1141 72.1031 60.1141 71.418V63.9508C60.1141 63.0602 60.0459 62.4665 59.8867 62.1925C59.773 61.9184 59.5684 61.6901 59.2727 61.4846H66.2766C66.5495 61.4846 66.7769 61.4389 66.9361 61.3704V64.1107C66.6632 63.7681 66.3676 63.5626 66.0492 63.4484C65.7991 63.3571 65.4125 63.3114 64.8895 63.3114H63.6615V66.3485H65.7081C65.9355 66.3485 66.1402 66.3257 66.2766 66.2572V68.8833C66.1174 68.5864 65.9128 68.3809 65.6626 68.3124C65.4807 68.2439 65.1851 68.1982 64.7985 68.1982H63.6615V71.7834C64.1391 71.9661 64.844 72.0574 65.7536 72.0574C66.9815 72.0574 67.9139 71.7149 68.5733 71.0298L67.8457 73.8842ZM81.3076 72.3086C79.966 73.5189 78.2605 74.1354 76.1912 74.1354C74.1446 74.1354 72.4618 73.5417 71.1657 72.3543C69.8695 71.1668 69.21 69.614 69.21 67.7187C69.21 65.8005 69.8922 64.2477 71.2339 63.0374C72.5983 61.8271 74.3492 61.2334 76.4868 61.2334C78.5334 61.2334 80.1706 61.8271 81.4213 62.9917C82.672 64.1563 83.286 65.7091 83.286 67.6273C83.3315 69.5455 82.6493 71.0983 81.3076 72.3086Z" fill="#EB5757"/>
</svg>
