<svg width="129" height="110" viewBox="0 0 129 110" fill="none" xmlns="http://www.w3.org/2000/svg">
<path d="M96.7437 0C97.2737 0.152565 97.7785 0.305131 98.3085 0.457696C101.438 1.4748 103.508 4.2464 103.584 7.57741C103.634 9.81504 103.584 12.0272 103.584 14.392C104.24 14.392 104.719 14.392 105.224 14.392C112.064 14.392 118.904 14.392 125.744 14.392C128.167 14.392 129 15.2311 129 17.6722C129 33.0304 129 48.3632 129 63.7215C129 66.2134 128.192 67.0525 125.668 67.0525C118.879 67.0525 112.064 67.0525 105.275 67.0525C104.77 67.0525 104.29 67.0525 103.71 67.0525C103.71 70.6632 103.71 74.1468 103.71 77.8083C105.603 77.8083 107.471 77.7575 109.338 77.8337C110.449 77.8592 111.635 77.91 112.695 78.2406C115.774 79.1814 117.768 82.0039 117.869 85.462C117.945 87.6488 117.945 89.861 117.869 92.0478C117.743 96.523 114.639 99.6506 110.196 99.7523C108.076 99.8032 105.931 99.7523 103.634 99.7523C103.634 102.066 103.634 104.253 103.634 106.44C103.634 109.237 102.877 110 100.151 110C92.3772 110 84.6286 110 76.8548 110C76.35 110 75.8452 109.974 75.3657 109.872C74.2047 109.593 73.4222 108.525 73.4475 107.355C73.4979 106.185 74.3561 105.168 75.5171 104.965C76.0472 104.863 76.6024 104.889 77.1577 104.889C83.7453 104.889 90.3328 104.889 96.9204 104.889C97.4252 104.889 97.9047 104.889 98.4852 104.889C98.4852 103.16 98.4852 101.532 98.4852 99.7523C98.0057 99.7523 97.5514 99.7523 97.097 99.7523C91.5443 99.7523 86.0168 99.7523 80.4641 99.7523C75.2647 99.7269 72.1602 96.5993 72.135 91.3866C72.135 89.4796 72.1098 87.5725 72.135 85.6909C72.1855 81.1139 75.3404 77.8592 79.9088 77.8083C85.613 77.7575 91.3172 77.7829 97.0466 77.7829C97.5009 77.7829 97.9552 77.7829 98.4852 77.7829C98.4852 74.1722 98.4852 70.6886 98.4852 67.027C97.9804 67.027 97.5009 67.027 96.9961 67.027C86.2187 67.027 75.4162 67.027 64.6388 67.027C61.6858 67.027 61.0043 66.3405 61.0043 63.3655C61.0043 48.1852 61.0043 33.005 61.0043 17.8247C61.0043 15.1294 61.7363 14.3666 64.4621 14.3666C75.29 14.3666 86.1178 14.3666 96.9456 14.3666C97.4504 14.3666 97.93 14.3666 98.5357 14.3666C98.5357 11.9255 98.6114 9.61162 98.5105 7.29771C98.46 6.15347 97.6271 5.39064 96.4661 5.21265C95.9613 5.13637 95.4565 5.13637 94.9517 5.13637C74.6842 5.13637 54.3915 5.11094 34.124 5.16179C33.1649 5.16179 32.1049 5.56863 31.2467 6.05176C30.8429 6.28061 30.5905 7.14514 30.5905 7.72998C30.5653 16.0194 30.5653 24.3087 30.5905 32.5981C30.5905 32.6744 30.641 32.7507 30.7167 33.005C31.1458 33.005 31.6253 33.005 32.1049 33.005C38.8943 33.005 45.7091 33.005 52.4985 33.005C55.0982 33.005 55.9564 33.8695 55.9564 36.514C55.9564 52.9147 55.9564 69.3155 55.9564 85.7163C55.9564 88.4625 55.1487 89.2507 52.4228 89.2507C45.2043 89.2507 37.9857 89.2507 30.6662 89.2507C30.6662 94.4379 30.6662 99.5743 30.6662 104.863C31.1458 104.863 31.6253 104.863 32.1301 104.863C38.7934 104.863 45.4819 104.863 52.1452 104.863C54.442 104.863 55.6535 105.753 55.6787 107.381C55.704 109.084 54.442 110 52.0947 110C44.3714 110 36.648 110 28.9247 110C26.2493 110 25.4921 109.211 25.4921 106.516C25.4921 101.278 25.4921 96.0399 25.4921 90.7764C25.4921 90.3187 25.4921 89.861 25.4921 89.2507C24.9368 89.2507 24.4825 89.2507 24.0282 89.2507C17.1882 89.2507 10.3483 89.2253 3.50832 89.2762C1.96869 89.3016 0.832909 88.8439 0.075719 87.4708C0 69.9258 0 52.3553 0 34.7595C0.832909 33.4118 2.04441 33.005 3.60927 33.0304C10.3483 33.0812 17.1125 33.0558 23.8515 33.0558C24.3311 33.0558 24.8106 33.0558 25.4164 33.0558C25.4164 32.3693 25.4164 31.8862 25.4164 31.3776C25.4164 23.5205 25.3911 15.6888 25.4164 7.83169C25.4164 4.19555 27.6879 1.24595 31.0448 0.330558C31.4486 0.228848 31.8525 0.10171 32.2311 0C53.7353 0 75.2395 0 96.7437 0ZM50.6813 84.1652C50.6813 68.7815 50.6813 53.525 50.6813 38.243C35.4365 38.243 20.3179 38.243 5.14889 38.243C5.14889 53.6013 5.14889 68.8578 5.14889 84.1652C20.3684 84.1652 35.4618 84.1652 50.6813 84.1652ZM123.826 61.9415C123.826 47.7021 123.826 33.6661 123.826 19.6046C104.543 19.6046 85.3354 19.6046 66.1027 19.6046C66.1027 25.7073 66.1027 31.759 66.1027 37.9379C66.5066 37.5819 66.8094 37.3531 67.0618 37.0734C72.2612 31.4285 80.5651 31.3267 86.4207 37.0734C94.8002 45.3119 103.483 53.2199 112.039 61.255C112.367 61.5601 112.796 61.9161 113.175 61.9161C116.708 61.9415 120.217 61.9415 123.826 61.9415ZM66.0018 61.8398C79.0759 61.8398 92.0239 61.8398 105.073 61.8398C104.871 61.5855 104.795 61.4584 104.669 61.3567C97.0466 54.1607 89.4242 46.9647 81.7513 39.8196C78.7983 37.0734 74.6085 37.1242 71.5545 39.8196C69.813 41.3452 68.1471 42.9726 66.4813 44.5745C66.2037 44.8288 65.9765 45.2865 65.9765 45.6425C66.0018 51.0077 66.0018 56.3729 66.0018 61.8398ZM94.9264 94.6668C99.8734 94.6668 104.82 94.6668 109.767 94.6668C111.711 94.6668 112.67 93.7768 112.695 91.8443C112.746 89.8101 112.746 87.7759 112.695 85.7671C112.645 83.8346 111.711 82.9701 109.742 82.9447C99.8734 82.9447 90.0299 82.9447 80.1612 82.9447C78.0916 82.9447 77.1829 83.8601 77.1325 85.9706C77.1072 87.8268 77.1072 89.683 77.1325 91.5392C77.1577 93.8023 78.0411 94.6668 80.2874 94.6668C85.1839 94.6668 90.0552 94.6668 94.9264 94.6668Z" fill="#0F1E35"/>
<path d="M64.5129 104.94C65.901 104.94 66.9863 106.033 67.0116 107.406C67.0368 108.804 65.8758 110.025 64.4876 110C63.0994 110 61.9384 108.779 61.9889 107.381C62.0141 106.007 63.1247 104.94 64.5129 104.94Z" fill="#0F1E35"/>
<path d="M25.3977 49.2162C23.4884 49.2162 21.7913 49.243 20.0676 49.2162C18.9274 49.1894 17.8666 48.7335 17.5749 47.6072C17.3628 46.8026 17.4158 45.6763 17.8666 45.0058C18.2644 44.389 19.2986 43.9063 20.0676 43.8795C25.3977 43.7991 30.7278 43.7991 36.0579 43.8527C37.6755 43.8527 38.7892 45.0058 38.7892 46.5076C38.7892 48.0094 37.702 49.1358 36.0844 49.2162C34.3608 49.2699 32.6371 49.243 30.7278 49.243C30.7278 49.7794 30.7278 50.2353 30.7278 50.6912C30.7278 59.0315 30.7278 67.345 30.7278 75.6853C30.7278 77.7234 29.508 79.0375 27.8374 78.8497C26.3789 78.6888 25.4242 77.5893 25.4242 75.873C25.3977 69.6781 25.4242 63.4832 25.4242 57.2883C25.3977 54.6602 25.3977 52.0589 25.3977 49.2162Z" fill="#EB5757"/>
<path d="M97.501 35.3698C97.501 29.4706 102.297 24.6139 108.152 24.6139C114.008 24.6139 118.829 29.4451 118.854 35.3443C118.879 41.1927 114.033 46.1002 108.203 46.1256C102.347 46.1256 97.501 41.2689 97.501 35.3698ZM113.73 35.3952C113.755 32.293 111.231 29.7248 108.152 29.7248C105.098 29.7248 102.524 32.3184 102.549 35.3698C102.549 38.4211 105.022 40.913 108.076 40.9638C111.156 41.0401 113.705 38.5228 113.73 35.3952Z" fill="#0F1E35"/>
</svg>
